<svg width="20" height="20" viewBox="0 0 20 20" fill="none" xmlns="http://www.w3.org/2000/svg">
<path d="M12.3013 9.65583C11.8458 9.91516 11.3492 10.0944 10.833 10.1858V19.895C11.2722 19.8095 11.6944 19.6527 12.083 19.4308L17.1055 16.5317C17.7381 16.1649 18.2634 15.6385 18.629 15.0052C18.9946 14.3719 19.1876 13.6538 19.1888 12.9225V7.1225C19.1862 6.67734 19.1116 6.23553 18.968 5.81416L12.3013 9.65583Z" fill="#F8991D"/>
<path d="M8.53536 8.21416C8.98169 8.47088 9.48756 8.60598 10.0024 8.60598C10.5173 8.60598 11.0232 8.47088 11.4695 8.21416L18.1362 4.3725C17.8409 4.03323 17.4925 3.74419 17.1045 3.51666L12.0837 0.614162C11.4499 0.24968 10.7315 0.0578613 10.0004 0.0578613C9.26921 0.0578613 8.55086 0.24968 7.91703 0.614162L2.89453 3.51416C2.52041 3.73324 2.18297 4.00966 1.89453 4.33333L8.53536 8.21416Z" fill="#222057"/>
<path d="M9.16638 10.1858C8.64991 10.0946 8.15296 9.91536 7.69721 9.65583L1.04721 5.76917C0.893319 6.2039 0.813324 6.66134 0.810547 7.1225V12.9225C0.811765 13.6538 1.0048 14.3719 1.37037 15.0052C1.73595 15.6385 2.26127 16.1649 2.89388 16.5317L7.91638 19.4308C8.30494 19.6527 8.72718 19.8095 9.16638 19.895V10.1858Z" fill="#F8991D"/>
</svg>
