<svg width="172" height="43" viewBox="0 0 172 43" fill="none" xmlns="http://www.w3.org/2000/svg">
<path d="M20.7805 42.0251C32.2574 42.0251 41.5612 32.6173 41.5612 21.0125C41.5612 9.40762 32.2574 0 20.7805 0C9.30379 0 0 9.40762 0 21.0125C0 32.6173 9.30379 42.0251 20.7805 42.0251Z" fill="white"/>
<path d="M13.9023 28.1175C13.9023 28.4875 13.9748 28.854 14.1156 29.1955C14.2563 29.537 14.4627 29.847 14.7227 30.1075C14.9825 30.3679 15.2909 30.5739 15.6299 30.7131C15.9689 30.8525 16.3318 30.9225 16.6978 30.9192H19.5923V11.0824H17.3163C16.8703 11.0758 16.4275 11.1589 16.0135 11.3269C15.5997 11.4949 15.2228 11.7444 14.9052 12.061C14.5875 12.3775 14.3352 12.7548 14.1631 13.1709C13.9909 13.587 13.9023 14.0335 13.9023 14.4845V28.1175Z" fill="#222057"/>
<path d="M24.737 11.0809H21.9414V22.6629H24.9596C25.6596 22.6629 26.3318 22.3852 26.8316 21.8893C27.3313 21.3934 27.6183 20.7191 27.6313 20.0112V13.9076C27.6351 13.5268 27.5621 13.1492 27.4167 12.798C27.2712 12.4467 27.0565 12.1291 26.7856 11.8646C26.5147 11.6 26.1934 11.3941 25.8411 11.2594C25.4888 11.1246 25.1132 11.0639 24.737 11.0809Z" fill="#222057"/>
<path d="M24.7864 30.9175C26.3577 30.9175 27.6313 29.6296 27.6313 28.0408C27.6313 26.452 26.3577 25.1641 24.7864 25.1641C23.2152 25.1641 21.9414 26.452 21.9414 28.0408C21.9414 29.6296 23.2152 30.9175 24.7864 30.9175Z" fill="#F8991D"/>
<path d="M60.7789 3.49529C60.2723 2.99934 59.6808 2.60055 59.0332 2.31846C58.3448 2.02896 57.606 1.88221 56.8606 1.88694H52.5349C52.3997 1.86842 52.2626 1.86842 52.1275 1.88694L51.7977 2.10275C51.698 2.20011 51.6246 2.32165 51.5843 2.45575C51.5552 2.58491 51.5552 2.7189 51.5843 2.84806V15.9701C51.5861 16.2407 51.6902 16.5004 51.8753 16.6958C51.9735 16.7795 52.0851 16.8458 52.205 16.892C52.3901 16.9686 52.5933 16.9891 52.7897 16.9507C52.9861 16.9124 53.1672 16.817 53.3107 16.6763C53.4097 16.586 53.4833 16.4709 53.5241 16.3428C53.5516 16.2201 53.5516 16.0927 53.5241 15.9701V13.0083H56.8218C57.5399 13.0099 58.2515 12.87 58.9167 12.5964C59.5938 12.3197 60.2077 11.9059 60.7208 11.3803C61.2145 10.8783 61.6095 10.2858 61.8846 9.63464C62.1799 8.9552 62.3254 8.21906 62.3113 7.47705C62.3207 6.74378 62.1821 6.01638 61.904 5.3391C61.6451 4.65935 61.2636 4.03425 60.7789 3.49529ZM60.1 8.75195C59.9303 9.16587 59.6871 9.5448 59.3823 9.87001C59.0604 10.1879 58.6863 10.4467 58.2766 10.635C57.8431 10.8298 57.3738 10.9301 56.8994 10.9292H53.5823V3.92681H56.9187C57.3869 3.92578 57.8499 4.02612 58.2766 4.22104C58.6849 4.41863 59.0533 4.69136 59.3629 5.02521C59.6763 5.34353 59.9207 5.72431 60.0806 6.14327C60.2578 6.55833 60.3502 7.00539 60.3522 7.45749C60.357 7.90188 60.2711 8.34255 60.1 8.75195Z" fill="white"/>
<path d="M68.4795 15.0681C68.3532 15.0288 68.218 15.0288 68.0917 15.0681C67.8548 15.082 67.6177 15.0474 67.3944 14.9666C67.1711 14.8857 66.9662 14.7601 66.792 14.5974C66.6212 14.4251 66.4889 14.2178 66.404 13.9894C66.3089 13.7602 66.269 13.5114 66.2876 13.2636V2.80918C66.3167 2.68002 66.3167 2.54592 66.2876 2.41687C66.2382 2.28812 66.1583 2.17358 66.0548 2.08342C65.9631 1.98514 65.8515 1.90806 65.7276 1.85722C65.6039 1.80648 65.4706 1.78332 65.3371 1.78919C65.2094 1.76037 65.0769 1.76037 64.9491 1.78919C64.8336 1.84981 64.7287 1.92936 64.6388 2.02456C64.5459 2.11985 64.4733 2.23327 64.4254 2.358C64.4051 2.48798 64.4051 2.62033 64.4254 2.75031V13.1067C64.4054 13.6451 64.5048 14.1813 64.7164 14.6758C64.886 15.1327 65.1507 15.5473 65.4923 15.892C65.8349 16.2351 66.2445 16.5023 66.6949 16.6766C67.1627 16.8708 67.6636 16.9708 68.1693 16.9707C68.2972 16.9966 68.4291 16.9966 68.5572 16.9707C68.7908 16.8662 68.9775 16.6774 69.0809 16.4411C69.11 16.3121 69.11 16.178 69.0809 16.0489C69.0832 15.9143 69.0586 15.7807 69.0086 15.656C68.9586 15.5314 68.8842 15.4181 68.7899 15.3232C68.7118 15.2109 68.6043 15.1226 68.4795 15.0681Z" fill="white"/>
<path d="M80.7622 6.32088C80.6691 6.22074 80.5569 6.14067 80.4324 6.08551C80.3128 6.03426 80.1842 6.00781 80.0541 6.00781C79.9242 6.00781 79.7956 6.03426 79.6759 6.08551C79.5457 6.14067 79.4271 6.22064 79.3267 6.32088C79.2237 6.40753 79.1494 6.52382 79.1134 6.65432C79.0842 6.78338 79.0842 6.91747 79.1134 7.04663V11.6952C79.1104 12.1482 79.0383 12.5981 78.9 13.029C78.7583 13.4291 78.5481 13.8008 78.2793 14.1274C78.0096 14.4402 77.6796 14.6938 77.3093 14.8728C76.9062 15.0536 76.4701 15.1471 76.0291 15.1473C75.5629 15.1874 75.0935 15.1273 74.6518 14.9708C73.8705 14.613 73.2532 13.9677 72.9254 13.1663C72.7741 12.7449 72.6954 12.3004 72.6926 11.8521V7.12505C72.7217 6.996 72.7217 6.8619 72.6926 6.73274C72.6329 6.60986 72.5544 6.49738 72.4599 6.3993C72.3728 6.30585 72.267 6.23237 72.1495 6.18359C71.8932 6.08562 71.6104 6.08562 71.3542 6.18359C71.2393 6.237 71.1342 6.30997 71.0438 6.3993C70.9617 6.50293 70.8902 6.6146 70.8304 6.73274C70.8013 6.8619 70.8013 6.996 70.8304 7.12505V11.8129C70.8129 13.2731 71.3633 14.6818 72.3629 15.7358C72.8637 16.2298 73.4485 16.6285 74.0893 16.9126C74.733 17.1911 75.4259 17.3346 76.126 17.3346C76.8263 17.3346 77.5191 17.1911 78.1628 16.9126C78.7703 16.6304 79.3174 16.2306 79.7728 15.7358C80.2289 15.2231 80.5902 14.6318 80.8397 13.9901C81.0872 13.3053 81.212 12.5813 81.2084 11.8521V7.12505C81.2374 6.996 81.2374 6.8619 81.2084 6.73274C81.1718 6.63312 81.1123 6.54379 81.0346 6.47216C80.957 6.40043 80.8636 6.34867 80.7622 6.32088Z" fill="white"/>
<path d="M89.9554 6.31939C89.8448 6.22296 89.7206 6.14361 89.5868 6.08403H89.1795C88.4052 6.08104 87.6389 6.24138 86.9294 6.55476C86.2002 6.83509 85.5388 7.2697 84.9895 7.82966C84.4575 8.36554 84.0298 8.99763 83.7287 9.69313C83.4359 10.4221 83.2844 11.2011 83.2825 11.9879V16.0678C83.2548 16.2036 83.2548 16.3438 83.2825 16.4797C83.335 16.6067 83.4146 16.7205 83.5153 16.8132C83.6131 16.9073 83.729 16.9803 83.8557 17.0275C83.9825 17.0748 84.1175 17.0952 84.2525 17.0877C84.3737 17.1161 84.4998 17.1161 84.621 17.0877C84.7359 17.0343 84.8408 16.9613 84.9314 16.8719C85.0267 16.7787 85.0996 16.6647 85.1448 16.5385C85.182 16.4038 85.182 16.2613 85.1448 16.1266V11.9292C85.1483 11.4098 85.2538 10.8965 85.4551 10.4188C85.6485 9.96524 85.9249 9.55265 86.2698 9.20274C86.6194 8.84923 87.0347 8.5692 87.4918 8.37891C87.9507 8.17545 88.4458 8.06863 88.9467 8.06513C89.0811 8.09312 89.2197 8.09312 89.3541 8.06513C89.4788 8.01943 89.5916 7.94564 89.6839 7.84932C89.7784 7.75134 89.8569 7.63875 89.9166 7.51587C89.9444 7.38003 89.9444 7.23986 89.9166 7.10401C89.9354 6.97393 89.9354 6.84178 89.9166 6.7117C89.9505 6.58388 89.9637 6.45143 89.9554 6.31939Z" fill="white"/>
<path d="M98.4315 6.34129C97.7483 6.04397 97.0123 5.89062 96.2686 5.89062C95.5248 5.89062 94.7889 6.04397 94.1058 6.34129C93.4451 6.61875 92.8452 7.02536 92.3405 7.53777C91.8234 8.05111 91.4142 8.66499 91.1378 9.34237C90.8433 10.0364 90.6916 10.7839 90.6917 11.5392C90.6842 12.2952 90.8363 13.0441 91.1378 13.736C91.7064 15.0911 92.7693 16.1728 94.1058 16.7565C94.7906 17.057 95.5318 17.2043 96.2782 17.1881C96.9462 17.212 97.6106 17.0777 98.2181 16.7958C98.8136 16.5413 99.364 16.1902 99.8475 15.7562V15.9916C99.8442 16.269 99.9487 16.5366 100.138 16.737C100.224 16.8366 100.33 16.9168 100.449 16.9723C100.576 17.0018 100.709 17.0018 100.837 16.9723C100.971 17.0003 101.11 17.0003 101.244 16.9723C101.491 16.8541 101.69 16.6531 101.807 16.4035C101.825 16.2669 101.825 16.1283 101.807 15.9916V11.4803C101.79 10.7312 101.632 9.99228 101.341 9.30306C100.781 7.97639 99.7397 6.91668 98.4315 6.34129ZM99.5372 13.0102C99.3588 13.4346 99.102 13.8207 98.7806 14.1479C98.4561 14.4767 98.0748 14.7425 97.6555 14.9325C97.2183 15.1264 96.746 15.2265 96.2686 15.2265C95.7911 15.2265 95.3188 15.1264 94.8816 14.9325C94.4525 14.7502 94.0635 14.4835 93.7371 14.1479C93.4284 13.8104 93.1732 13.4266 92.9806 13.0102C92.7023 12.3538 92.6275 11.6273 92.7661 10.9269C92.9046 10.2265 93.25 9.58515 93.7566 9.08735C94.0765 8.75803 94.4593 8.49776 94.8816 8.32239C95.322 8.12757 95.7976 8.02744 96.2782 8.02816C97.2164 8.04071 98.1134 8.42036 98.7806 9.08735C99.2766 9.59184 99.6139 10.2333 99.7505 10.9311C99.8803 11.6304 99.8062 12.3528 99.5372 13.0102Z" fill="white"/>
<path d="M108.479 15.0698C108.353 15.0305 108.217 15.0305 108.091 15.0698C107.854 15.115 107.611 15.115 107.373 15.0698C107.148 14.9841 106.942 14.8503 106.772 14.6776C106.61 14.4984 106.479 14.2928 106.384 14.0695C106.335 13.8367 106.335 13.5961 106.384 13.3634V2.81082C106.423 2.683 106.423 2.54633 106.384 2.41851C106.348 2.28287 106.266 2.16462 106.151 2.08507C106.061 1.98462 105.95 1.9061 105.826 1.85516C105.701 1.80421 105.567 1.78219 105.434 1.79083C105.312 1.76243 105.186 1.76243 105.065 1.79083C104.946 1.84641 104.841 1.92658 104.755 2.0262C104.656 2.11646 104.582 2.23151 104.541 2.35964C104.512 2.4888 104.512 2.6229 104.541 2.75195V13.1083C104.542 13.6451 104.64 14.1771 104.832 14.6776C105.007 15.1367 105.278 15.5517 105.628 15.8936C105.96 16.2406 106.364 16.5086 106.811 16.6782C107.285 16.875 107.792 16.975 108.305 16.9725C108.432 17.0019 108.565 17.0019 108.692 16.9725C108.738 16.9 108.77 16.8205 108.79 16.7371C108.888 16.6541 108.962 16.5456 109.003 16.4232C109.03 16.2939 109.03 16.1603 109.003 16.0309C109.005 15.8964 108.98 15.7628 108.93 15.6381C108.88 15.5133 108.806 15.4001 108.712 15.3052C108.658 15.2057 108.577 15.124 108.479 15.0698Z" fill="white"/>
<path d="M115.615 4.26106C116.296 3.96538 117.028 3.81194 117.768 3.80988C118.493 3.81709 119.209 3.96991 119.876 4.25952C120.542 4.54912 121.144 4.96973 121.648 5.49675C121.74 5.59308 121.852 5.66687 121.978 5.71256C122.112 5.74056 122.251 5.74056 122.385 5.71256C122.646 5.70402 122.894 5.59936 123.083 5.41833C123.178 5.32334 123.252 5.21014 123.302 5.0854C123.352 4.96077 123.376 4.82709 123.374 4.69258C123.402 4.56332 123.402 4.42963 123.374 4.30027C123.329 4.18027 123.256 4.07283 123.161 3.98648C122.436 3.23624 121.564 2.64818 120.6 2.2604C119.698 1.87828 118.728 1.68475 117.748 1.69157C117.041 1.67392 116.334 1.76652 115.654 1.96617C115.007 2.15862 114.387 2.43556 113.811 2.79C112.684 3.4714 111.76 4.44703 111.134 5.61449C110.497 6.77917 110.163 8.08865 110.164 9.41964C110.158 10.0821 110.243 10.7422 110.417 11.3811C110.598 12.0199 110.858 12.6328 111.192 13.2052C111.664 14.0979 112.307 14.887 113.083 15.5267C113.858 16.1664 114.753 16.644 115.712 16.932C116.344 17.1072 116.996 17.1996 117.652 17.2066C118.643 17.2052 119.624 17.0122 120.542 16.6378C121.517 16.2781 122.404 15.7094 123.142 14.9705C123.239 14.8877 123.313 14.7791 123.355 14.6568C123.375 14.5268 123.375 14.3944 123.355 14.2644C123.373 14.1409 123.373 14.0153 123.355 13.8918C123.315 13.7528 123.234 13.6295 123.122 13.5387C123.034 13.4514 122.928 13.3844 122.811 13.3425C122.689 13.2908 122.557 13.2641 122.424 13.2641C122.291 13.2641 122.159 13.2908 122.036 13.3425C121.915 13.3843 121.807 13.459 121.726 13.5583C121.168 14.1033 120.509 14.5301 119.786 14.8136C119.112 15.0796 118.395 15.2128 117.671 15.2059C116.945 15.1951 116.229 15.0387 115.562 14.7458C114.897 14.4529 114.295 14.0293 113.792 13.4995C113.016 12.6887 112.494 11.6635 112.294 10.5532C112.094 9.443 112.223 8.29777 112.667 7.26204C113.225 5.91098 114.282 4.83398 115.615 4.26106Z" fill="white"/>
<path d="M132.611 6.34039C131.923 6.04616 131.185 5.89282 130.438 5.88921C129.665 5.87831 128.898 6.03206 128.188 6.34039C126.868 6.91815 125.824 7.99526 125.279 9.34138C124.99 10.0368 124.845 10.7842 124.852 11.5382C124.845 12.2942 124.996 13.0432 125.297 13.735C125.726 14.7558 126.442 15.627 127.356 16.2407C128.27 16.8542 129.342 17.1834 130.438 17.1872C131.185 17.1836 131.923 17.0302 132.611 16.736C133.276 16.4585 133.877 16.0445 134.376 15.5199C134.883 15.0096 135.285 14.4029 135.559 13.735C135.83 13.0357 135.962 12.2892 135.947 11.5382C135.948 10.7829 135.796 10.0355 135.501 9.34138C134.954 8.00349 133.919 6.92916 132.611 6.34039ZM133.678 13.0092C133.499 13.429 133.25 13.814 132.94 14.147C132.612 14.4716 132.232 14.7369 131.816 14.9315C131.375 15.1259 130.899 15.2262 130.419 15.2262C129.938 15.2262 129.463 15.1259 129.022 14.9315C128.602 14.744 128.22 14.4778 127.897 14.147C127.576 13.8198 127.319 13.4337 127.141 13.0092C126.95 12.5702 126.851 12.0962 126.85 11.6166C126.849 11.1306 126.948 10.6497 127.141 10.2044C127.323 9.78833 127.58 9.4095 127.897 9.08635C128.224 8.75703 128.613 8.49696 129.041 8.32139C129.475 8.12657 129.945 8.02633 130.419 8.02726C130.899 8.02644 131.375 8.12668 131.816 8.32139C132.235 8.5018 132.617 8.76145 132.94 9.08635C133.424 9.59732 133.753 10.2368 133.891 10.9302C134.021 11.6295 133.947 12.3518 133.678 13.0092Z" fill="white"/>
<path d="M147.972 2.08408C147.862 1.97694 147.729 1.89646 147.584 1.84871C147.456 1.81866 147.324 1.81866 147.196 1.84871C147.062 1.8202 146.923 1.8202 146.789 1.84871C146.67 1.90428 146.564 1.98445 146.478 2.08408C146.291 2.29371 146.187 2.56644 146.188 2.84904V7.12503C145.698 6.71944 145.148 6.39506 144.558 6.16391C143.938 5.92762 143.28 5.80793 142.618 5.81081C141.523 5.81338 140.454 6.1423 139.543 6.75629C138.632 7.37027 137.92 8.24217 137.497 9.26297C137.203 9.95713 137.051 10.7045 137.051 11.4598C137.051 12.2151 137.203 12.9625 137.497 13.6566C137.778 14.327 138.179 14.9388 138.68 15.4612C139.19 15.9732 139.789 16.3855 140.446 16.6772C141.132 16.975 141.871 17.1285 142.618 17.1284C143.352 17.1287 144.079 16.9751 144.752 16.6772C145.413 16.3999 146.013 15.9933 146.517 15.4808C147.025 14.9703 147.439 14.3726 147.739 13.7155C148.032 13.0276 148.184 12.287 148.186 11.5383V2.84904C148.214 2.71329 148.214 2.57302 148.186 2.43717C148.136 2.30709 148.064 2.1874 147.972 2.08408ZM146.032 12.9308C145.84 13.3473 145.585 13.7311 145.275 14.0686C144.949 14.4042 144.56 14.6709 144.131 14.8531C143.698 15.048 143.229 15.1482 142.754 15.1473C142.273 15.148 141.798 15.0479 141.357 14.8531C140.481 14.483 139.783 13.7782 139.417 12.8916C139.056 11.9924 139.056 10.9861 139.417 10.0868C139.606 9.7088 139.863 9.36959 140.174 9.08647C140.498 8.75766 140.88 8.49184 141.299 8.30186C141.744 8.12412 142.218 8.03098 142.696 8.02728C143.641 8.03057 144.548 8.41115 145.218 9.08647C145.53 9.42053 145.787 9.80502 145.974 10.2241C146.335 11.1234 146.335 12.1297 145.974 13.0289L146.032 12.9308Z" fill="white"/>
<path d="M160.973 9.30152C160.389 7.96384 159.319 6.90372 157.985 6.33975C157.299 6.04201 156.56 5.88857 155.813 5.88867C155.066 5.89227 154.327 6.04562 153.64 6.33975C152.98 6.6172 152.38 7.02382 151.875 7.53623C151.351 8.04411 150.942 8.65933 150.672 9.34083C150.378 10.0349 150.227 10.7824 150.227 11.5376C150.23 12.2925 150.382 13.0392 150.672 13.7345C150.947 14.4072 151.356 15.0149 151.875 15.5193C152.384 16.0314 152.983 16.4437 153.64 16.7354C154.326 17.0324 155.066 17.1795 155.813 17.167C156.212 17.2163 156.616 17.2163 157.016 17.167C157.36 17.0921 157.698 16.9872 158.024 16.8531C158.315 16.7419 158.59 16.59 158.839 16.402C159.069 16.2472 159.283 16.0699 159.479 15.8724C159.59 15.7878 159.683 15.681 159.75 15.5586C159.807 15.4406 159.846 15.3151 159.867 15.1859C159.89 14.9435 159.829 14.7005 159.693 14.4994C159.632 14.4119 159.56 14.3328 159.479 14.2641C159.419 14.1523 159.333 14.0577 159.227 13.9894C159.068 13.9408 158.9 13.9408 158.742 13.9894C158.546 14.0266 158.361 14.107 158.199 14.2247C157.92 14.5439 157.566 14.7867 157.171 14.9309C156.739 15.104 156.277 15.1906 155.813 15.1859C155.411 15.1796 155.013 15.1135 154.63 14.9897C153.914 14.728 153.306 14.2306 152.904 13.5775C152.689 13.2515 152.544 12.8842 152.477 12.4988H160.429C160.557 12.5288 160.69 12.5288 160.817 12.4988C160.942 12.4531 161.055 12.3793 161.148 12.2829C161.245 12.2001 161.319 12.0915 161.361 11.9692C161.398 11.8477 161.398 11.7178 161.361 11.5964C161.392 10.8124 161.261 10.0304 160.973 9.30152ZM152.418 10.753C152.495 10.3548 152.632 9.97098 152.825 9.61541C153.023 9.27775 153.28 8.97878 153.582 8.73271C153.89 8.48078 154.238 8.28205 154.61 8.14435C155.01 8.00449 155.429 7.93163 155.851 7.92854C156.28 7.93152 156.706 8.00439 157.113 8.14435C157.485 8.28689 157.837 8.4781 158.16 8.71316C158.462 8.96674 158.719 9.27219 158.916 9.61541C159.129 9.96202 159.268 10.3494 159.324 10.753H152.418Z" fill="white"/>
<path d="M164.848 13.7949C164.529 13.7949 164.219 13.8904 163.954 14.0693C163.689 14.2482 163.483 14.5025 163.361 14.7999C163.239 15.0974 163.207 15.4247 163.269 15.7405C163.332 16.0564 163.485 16.3464 163.709 16.5741C163.935 16.8018 164.222 16.9569 164.534 17.0196C164.846 17.0824 165.17 17.0502 165.464 16.927C165.759 16.8037 166.01 16.5951 166.187 16.3273C166.364 16.0597 166.458 15.7449 166.458 15.4229C166.458 14.9911 166.289 14.5771 165.987 14.2717C165.685 13.9665 165.275 13.7949 164.848 13.7949Z" fill="#F8991D"/>
<path d="M165.801 2.12288H164.715V1.71094H167.392V2.12288H166.286V5.37879H165.801V2.12288Z" fill="white"/>
<path d="M170.866 3.77044C170.866 3.2605 170.866 2.65238 170.866 2.18165C170.749 2.61317 170.595 3.06434 170.42 3.57429L169.78 5.35923H169.314L168.733 3.61349C168.568 3.14482 168.432 2.66668 168.325 2.18165C168.325 2.65238 168.325 3.2605 168.325 3.80965V5.37879H167.879L168.131 1.71094H168.733L169.353 3.49586C169.509 3.92738 169.625 4.33925 169.722 4.7119C169.822 4.30004 169.946 3.89414 170.09 3.49586L170.749 1.71094H171.332L171.564 5.37879H170.866V3.77044Z" fill="white"/>
<path d="M87.8559 38.3284C87.7485 38.295 87.6336 38.295 87.5263 38.3284C87.3251 38.3402 87.1236 38.3108 86.9339 38.2421C86.7442 38.1734 86.5701 38.0667 86.4221 37.9285C86.2769 37.7822 86.1645 37.6061 86.0925 37.4121C86.0116 37.2174 85.9778 37.0062 85.9935 36.7957V27.9159C86.0183 27.8062 86.0183 27.6924 85.9935 27.5827C85.9516 27.4733 85.8836 27.3761 85.7958 27.2995C85.7178 27.216 85.6231 27.1505 85.5178 27.1074C85.4126 27.0643 85.2994 27.0446 85.186 27.0496C85.0774 27.0251 84.9649 27.0251 84.8564 27.0496C84.7582 27.1011 84.669 27.1686 84.5927 27.2495C84.5138 27.3304 84.4521 27.4268 84.4114 27.5327C84.3941 27.6431 84.3941 27.7555 84.4114 27.8659V36.6624C84.3943 37.1197 84.4788 37.5751 84.6586 37.9951C84.8028 38.3832 85.0275 38.7354 85.3178 39.0281C85.609 39.3195 85.957 39.5465 86.3397 39.6944C86.7371 39.8595 87.1626 39.9444 87.5922 39.9444C87.701 39.9664 87.813 39.9664 87.9218 39.9444C88.1203 39.8555 88.2789 39.6951 88.3669 39.4945C88.3915 39.3849 88.3915 39.271 88.3669 39.1613C88.3688 39.0471 88.3478 38.9336 88.3054 38.8277C88.2629 38.7217 88.1997 38.6256 88.1196 38.545C88.0531 38.4496 87.9619 38.3746 87.8559 38.3284Z" fill="white"/>
<path d="M135.49 33.4282C134.994 32.2919 134.085 31.3914 132.952 30.9125C132.368 30.6595 131.74 30.5292 131.106 30.5293C130.471 30.5324 129.844 30.6626 129.26 30.9125C128.699 31.1481 128.189 31.4935 127.76 31.9288C127.315 32.3601 126.967 32.8827 126.738 33.4615C126.488 34.0511 126.359 34.6859 126.359 35.3274C126.362 35.9685 126.491 36.6028 126.738 37.1933C126.971 37.7647 127.319 38.281 127.76 38.7094C128.192 39.1443 128.701 39.4944 129.26 39.7422C129.843 39.9945 130.472 40.1194 131.106 40.1088C131.445 40.1506 131.789 40.1506 132.128 40.1088C132.421 40.0452 132.707 39.9561 132.984 39.8422C133.232 39.7477 133.465 39.6187 133.677 39.459C133.872 39.3276 134.054 39.1769 134.22 39.0092C134.315 38.9373 134.393 38.8466 134.451 38.7427C134.499 38.6424 134.532 38.5359 134.55 38.4262C134.57 38.2202 134.518 38.0138 134.402 37.843C134.351 37.7687 134.289 37.7015 134.22 37.6431C134.17 37.5482 134.096 37.4679 134.006 37.4099C133.872 37.3686 133.729 37.3686 133.595 37.4099C133.428 37.4415 133.27 37.5097 133.133 37.6098C132.896 37.8808 132.596 38.0871 132.26 38.2095C131.893 38.3566 131.501 38.4301 131.106 38.4262C130.764 38.4207 130.426 38.3646 130.101 38.2595C129.492 38.0373 128.976 37.6148 128.634 37.06C128.452 36.7831 128.328 36.4711 128.271 36.1437H135.028C135.136 36.1692 135.249 36.1692 135.358 36.1437C135.463 36.1049 135.56 36.0422 135.638 35.9604C135.721 35.8901 135.784 35.7978 135.819 35.6939C135.851 35.5908 135.851 35.4804 135.819 35.3774C135.846 34.7114 135.734 34.0471 135.49 33.4282ZM128.221 34.6609C128.287 34.3227 128.404 33.9968 128.567 33.6947C128.736 33.4079 128.954 33.1539 129.211 32.945C129.472 32.731 129.768 32.5622 130.084 32.4452C130.423 32.3264 130.78 32.2645 131.139 32.2619C131.504 32.2645 131.865 32.3264 132.21 32.4452C132.526 32.5663 132.825 32.7287 133.1 32.9283C133.357 33.1438 133.574 33.4032 133.743 33.6947C133.923 33.9891 134.041 34.3181 134.088 34.6609H128.221Z" fill="white"/>
<path d="M52.6115 40.1452C52.2758 40.1452 52.017 40.0543 51.8352 39.8724C51.6534 39.6906 51.5625 39.4319 51.5625 39.0962V26.4039C51.5625 26.0683 51.6534 25.8095 51.8352 25.6277C52.017 25.4459 52.2758 25.355 52.6115 25.355H60.3317C60.5975 25.355 60.8003 25.4249 60.9401 25.5648C61.094 25.6906 61.1709 25.8794 61.1709 26.1312C61.1709 26.3969 61.094 26.5997 60.9401 26.7396C60.8003 26.8794 60.5975 26.9494 60.3317 26.9494H53.4506V31.8375H59.8912C60.1569 31.8375 60.3597 31.9074 60.4996 32.0473C60.6394 32.1871 60.7094 32.3829 60.7094 32.6347C60.7094 32.9004 60.6394 33.1032 60.4996 33.2431C60.3597 33.3689 60.1569 33.4319 59.8912 33.4319H53.4506V38.5508H60.3317C60.5975 38.5508 60.8003 38.6207 60.9401 38.7606C61.094 38.8864 61.1709 39.0822 61.1709 39.348C61.1709 39.6137 61.094 39.8165 60.9401 39.9564C60.8003 40.0822 60.5975 40.1452 60.3317 40.1452H52.6115ZM63.8129 40.271C63.6032 40.271 63.4213 40.2081 63.2675 40.0822C63.1136 39.9564 63.0297 39.7885 63.0157 39.5787C63.0157 39.3689 63.1067 39.1452 63.2885 38.9074L66.9178 34.3969V35.341L63.5192 31.1452C63.3234 30.9074 63.2325 30.6836 63.2465 30.4738C63.2605 30.264 63.3374 30.0962 63.4773 29.9703C63.6311 29.8445 63.8199 29.7815 64.0437 29.7815C64.2815 29.7815 64.4773 29.8235 64.6311 29.9074C64.799 29.9913 64.9528 30.1242 65.0927 30.306L67.9878 33.9773H67.3164L70.2116 30.306C70.3514 30.1242 70.4983 29.9913 70.6521 29.9074C70.8199 29.8235 71.0157 29.7815 71.2395 29.7815C71.4633 29.7815 71.6451 29.8445 71.785 29.9703C71.9388 30.0962 72.0157 30.264 72.0157 30.4738C72.0297 30.6836 71.9458 30.9074 71.764 31.1452L68.3864 35.299V34.4599L71.9948 38.9074C72.1906 39.1312 72.2815 39.348 72.2675 39.5578C72.2535 39.7676 72.1696 39.9424 72.0157 40.0822C71.8759 40.2081 71.6941 40.271 71.4703 40.271C71.2325 40.271 71.0297 40.2291 70.8619 40.1452C70.7081 40.0613 70.5612 39.9284 70.4213 39.7466L67.2955 35.8235H67.9458L64.8619 39.7466C64.722 39.9144 64.5682 40.0473 64.4004 40.1452C64.2465 40.2291 64.0507 40.271 63.8129 40.271ZM78.9085 40.334C77.8735 40.334 76.9784 40.1172 76.2232 39.6836C75.4679 39.2361 74.8875 38.6137 74.4819 37.8165C74.0763 37.0053 73.8735 36.0543 73.8735 34.9634C73.8735 34.1522 73.9854 33.4249 74.2092 32.7815C74.447 32.1382 74.7826 31.5927 75.2162 31.1452C75.6498 30.6836 76.1742 30.334 76.7896 30.0962C77.419 29.8585 78.1253 29.7396 78.9085 29.7396C79.398 29.7396 79.9155 29.8165 80.4609 29.9703C81.0064 30.1242 81.5099 30.3759 81.9714 30.7256C82.1253 30.8375 82.2232 30.9703 82.2651 31.1242C82.3071 31.264 82.3071 31.4109 82.2651 31.5647C82.2372 31.7186 82.1672 31.8515 82.0554 31.9634C81.9575 32.0613 81.8246 32.1172 81.6567 32.1312C81.5029 32.1452 81.3351 32.0962 81.1532 31.9843C80.8176 31.7326 80.4609 31.5508 80.0833 31.4389C79.7197 31.327 79.37 31.271 79.0344 31.271C78.5169 31.271 78.0554 31.355 77.6498 31.5228C77.2581 31.6906 76.9225 31.9354 76.6428 32.2571C76.377 32.5647 76.1742 32.9494 76.0344 33.4109C75.8945 33.8585 75.8246 34.3829 75.8246 34.9843C75.8246 36.1731 76.1043 37.1102 76.6637 37.7955C77.2232 38.4668 78.0134 38.8025 79.0344 38.8025C79.37 38.8025 79.7197 38.7536 80.0833 38.6557C80.447 38.5438 80.8036 38.362 81.1532 38.1102C81.3351 37.9983 81.5029 37.9564 81.6567 37.9843C81.8106 37.9983 81.9365 38.0613 82.0344 38.1731C82.1463 38.271 82.2162 38.3969 82.2442 38.5508C82.2721 38.6906 82.2582 38.8375 82.2022 38.9913C82.1602 39.1452 82.0623 39.271 81.9085 39.3689C81.4609 39.7046 80.9714 39.9494 80.44 40.1032C79.9085 40.2571 79.398 40.334 78.9085 40.334ZM93.3544 40.334C92.5292 40.334 91.8369 40.1801 91.2775 39.8724C90.732 39.5648 90.3264 39.1102 90.0607 38.5088C89.795 37.9074 89.6621 37.1522 89.6621 36.2431V30.7466C89.6621 30.4249 89.739 30.1871 89.8929 30.0333C90.0607 29.8654 90.2985 29.7815 90.6061 29.7815C90.9138 29.7815 91.1516 29.8654 91.3194 30.0333C91.4873 30.1871 91.5712 30.4249 91.5712 30.7466V36.2431C91.5712 37.1102 91.746 37.7536 92.0957 38.1731C92.4453 38.5787 92.9977 38.7815 93.753 38.7815C94.5922 38.7815 95.2705 38.5018 95.788 37.9424C96.3194 37.3829 96.5852 36.6417 96.5852 35.7186V30.7466C96.5852 30.4249 96.6621 30.1871 96.8159 30.0333C96.9838 29.8654 97.2215 29.7815 97.5292 29.7815C97.8369 29.7815 98.0747 29.8654 98.2425 30.0333C98.4103 30.1871 98.4943 30.4249 98.4943 30.7466V39.306C98.4943 39.9634 98.1866 40.292 97.5712 40.292C97.2635 40.292 97.0257 40.2081 96.8579 40.0403C96.704 39.8724 96.6271 39.6277 96.6271 39.306V37.4808L96.8998 37.8375C96.6201 38.6487 96.1656 39.271 95.5362 39.7046C94.9208 40.1242 94.1936 40.334 93.3544 40.334ZM105.091 40.334C104.461 40.334 103.825 40.2641 103.182 40.1242C102.552 39.9703 101.958 39.7116 101.398 39.348C101.245 39.2501 101.133 39.1312 101.063 38.9913C101.007 38.8375 100.986 38.6906 101 38.5508C101.028 38.3969 101.091 38.2641 101.189 38.1522C101.286 38.0403 101.405 37.9773 101.545 37.9634C101.699 37.9354 101.86 37.9703 102.028 38.0682C102.573 38.3759 103.098 38.5927 103.601 38.7186C104.119 38.8445 104.629 38.9074 105.133 38.9074C105.902 38.9074 106.483 38.7675 106.874 38.4878C107.266 38.2081 107.462 37.8375 107.462 37.3759C107.462 36.9843 107.329 36.6836 107.063 36.4738C106.811 36.2501 106.413 36.0822 105.867 35.9703L103.916 35.5717C103.049 35.3759 102.391 35.0543 101.944 34.6067C101.51 34.1452 101.293 33.5578 101.293 32.8445C101.293 32.2151 101.461 31.6696 101.797 31.2081C102.147 30.7326 102.629 30.3689 103.245 30.1172C103.86 29.8654 104.566 29.7396 105.363 29.7396C105.979 29.7396 106.56 29.8235 107.105 29.9913C107.665 30.1452 108.168 30.3829 108.616 30.7046C108.783 30.8025 108.888 30.9284 108.93 31.0822C108.986 31.2221 108.993 31.3689 108.951 31.5228C108.923 31.6627 108.86 31.7815 108.762 31.8794C108.665 31.9773 108.539 32.0403 108.385 32.0682C108.231 32.0822 108.063 32.0403 107.881 31.9424C107.476 31.6627 107.056 31.4668 106.623 31.355C106.203 31.2291 105.783 31.1661 105.363 31.1661C104.608 31.1661 104.035 31.313 103.643 31.6067C103.266 31.9004 103.077 32.285 103.077 32.7606C103.077 33.1242 103.189 33.4249 103.412 33.6627C103.65 33.9004 104.021 34.0752 104.524 34.1871L106.476 34.5857C107.385 34.7815 108.07 35.0962 108.532 35.5298C108.993 35.9494 109.224 36.5228 109.224 37.2501C109.224 38.2011 108.846 38.9564 108.091 39.5158C107.35 40.0613 106.35 40.334 105.091 40.334ZM112.651 40.2501C112.358 40.2501 112.127 40.1592 111.959 39.9773C111.791 39.7955 111.707 39.5438 111.707 39.2221V30.8515C111.707 30.5158 111.791 30.264 111.959 30.0962C112.127 29.9144 112.358 29.8235 112.651 29.8235C112.959 29.8235 113.197 29.9144 113.365 30.0962C113.533 30.264 113.616 30.5158 113.616 30.8515V39.2221C113.616 39.5438 113.533 39.7955 113.365 39.9773C113.211 40.1592 112.973 40.2501 112.651 40.2501ZM112.651 27.5578C112.274 27.5578 111.973 27.4599 111.749 27.2641C111.54 27.0543 111.435 26.7815 111.435 26.4459C111.435 26.0822 111.54 25.8095 111.749 25.6277C111.973 25.4319 112.274 25.334 112.651 25.334C113.057 25.334 113.358 25.4319 113.554 25.6277C113.763 25.8095 113.868 26.0822 113.868 26.4459C113.868 26.7815 113.763 27.0543 113.554 27.2641C113.358 27.4599 113.057 27.5578 112.651 27.5578ZM120.567 40.292C120.301 40.292 120.07 40.2221 119.874 40.0822C119.679 39.9424 119.511 39.7186 119.371 39.4109L115.804 31.1032C115.707 30.8654 115.672 30.6487 115.7 30.4529C115.727 30.2571 115.818 30.0962 115.972 29.9703C116.14 29.8445 116.364 29.7815 116.644 29.7815C116.881 29.7815 117.07 29.8375 117.21 29.9494C117.35 30.0613 117.483 30.2571 117.609 30.5368L120.902 38.6557H120.315L123.693 30.5368C123.804 30.2571 123.93 30.0613 124.07 29.9494C124.224 29.8375 124.434 29.7815 124.7 29.7815C124.937 29.7815 125.119 29.8445 125.245 29.9703C125.385 30.0962 125.469 30.2571 125.497 30.4529C125.525 30.6487 125.483 30.8585 125.371 31.0822L121.783 39.4109C121.658 39.7186 121.49 39.9424 121.28 40.0822C121.084 40.2221 120.846 40.292 120.567 40.292Z" fill="white"/>
</svg>
