<svg width="20" height="20" viewBox="0 0 20 20" fill="none" xmlns="http://www.w3.org/2000/svg">
<g clip-path="url(#clip0_1208_10672)">
<path d="M13.2067 13.3333C12.9644 13.3333 12.7251 13.3861 12.5053 13.4879C12.2856 13.5898 12.0907 13.7384 11.9342 13.9233L11.7283 14.1667H8.27083L8.06583 13.9233C7.90926 13.7383 7.71421 13.5897 7.49429 13.4878C7.27437 13.3859 7.03488 13.3332 6.7925 13.3333H2.08333C1.5308 13.3333 1.0009 13.5528 0.610194 13.9435C0.219493 14.3342 0 14.8641 0 15.4167H0C0 15.9692 0.219493 16.4991 0.610194 16.8898C1.0009 17.2805 1.5308 17.5 2.08333 17.5H17.9167C18.1903 17.5 18.4612 17.4461 18.7139 17.3414C18.9667 17.2367 19.1964 17.0833 19.3898 16.8898C19.5833 16.6963 19.7367 16.4667 19.8414 16.2139C19.9461 15.9612 20 15.6902 20 15.4167C20 15.1431 19.9461 14.8722 19.8414 14.6194C19.7367 14.3666 19.5833 14.137 19.3898 13.9435C19.1964 13.7501 18.9667 13.5966 18.7139 13.4919C18.4612 13.3872 18.1903 13.3333 17.9167 13.3333H13.2067Z" fill="#F8991D"/>
<path d="M2.50033 11.6667H6.79283C7.60575 11.6655 8.39099 11.9619 9.00033 12.5H11.0003C11.6095 11.9627 12.3939 11.6664 13.2062 11.6667H17.5003C17.7805 11.6686 18.0598 11.6993 18.3337 11.7583V6.66667C18.3323 5.562 17.8929 4.50296 17.1118 3.72185C16.3307 2.94073 15.2717 2.50132 14.167 2.5H5.83366C4.729 2.50132 3.66996 2.94073 2.88884 3.72185C2.10773 4.50296 1.66832 5.562 1.66699 6.66667V11.7583C1.9409 11.6993 2.22014 11.6686 2.50033 11.6667Z" fill="#222057"/>
</g>
<defs>
<clipPath id="clip0_1208_10672">
<rect width="20" height="20" fill="white"/>
</clipPath>
</defs>
</svg>
