<svg width="140" height="29" viewBox="0 0 140 29" fill="none" xmlns="http://www.w3.org/2000/svg">
<g clip-path="url(#clip0_494_599)">
<path d="M14.1227 29.0173C21.9225 29.0173 28.2455 22.5215 28.2455 14.5086C28.2455 6.49574 21.9225 0 14.1227 0C6.32296 0 0 6.49574 0 14.5086C0 22.5215 6.32296 29.0173 14.1227 29.0173Z" fill="#232057"/>
<path d="M9.44922 19.413C9.44922 19.6685 9.49844 19.9215 9.59412 20.1573C9.6898 20.3931 9.83007 20.6072 10.0067 20.7871C10.1833 20.9669 10.3929 21.109 10.6233 21.2052C10.8537 21.3014 11.1003 21.3497 11.349 21.3475H13.3162V7.65064H11.7694C11.4663 7.64607 11.1653 7.70344 10.884 7.81944C10.6027 7.93544 10.3466 8.10774 10.1308 8.32633C9.91487 8.54491 9.7434 8.80542 9.6264 9.09272C9.50941 9.38 9.44922 9.6883 9.44922 9.99969V19.413Z" fill="white"/>
<path d="M16.812 7.65232H14.9121V15.6494H16.9633C17.4391 15.6494 17.8959 15.4576 18.2355 15.1152C18.5751 14.7729 18.7702 14.3072 18.7791 13.8185V9.60407C18.7816 9.34117 18.732 9.08044 18.6332 8.83792C18.5343 8.59538 18.3884 8.37607 18.2042 8.19341C18.0202 8.01075 17.8018 7.86856 17.5624 7.77553C17.323 7.68249 17.0677 7.64057 16.812 7.65232Z" fill="white"/>
<path d="M16.8456 21.3476C17.9135 21.3476 18.7791 20.4583 18.7791 19.3613C18.7791 18.2643 17.9135 17.375 16.8456 17.375C15.7778 17.375 14.9121 18.2643 14.9121 19.3613C14.9121 20.4583 15.7778 21.3476 16.8456 21.3476Z" fill="#F8991D"/>
<path d="M44.1327 10.6219C43.6936 10.1852 43.1809 9.83399 42.6196 9.58558C42.0229 9.33066 41.3826 9.20142 40.7366 9.20559H36.9873C36.8701 9.18928 36.7514 9.18928 36.6342 9.20559L36.3484 9.39563C36.262 9.48137 36.1983 9.58839 36.1635 9.70648C36.1382 9.82021 36.1382 9.93821 36.1635 10.0519V21.607C36.165 21.8453 36.2552 22.074 36.4156 22.2461C36.5008 22.3198 36.5975 22.3781 36.7014 22.4188C36.8619 22.4863 37.038 22.5044 37.2082 22.4706C37.3784 22.4368 37.5354 22.3528 37.6598 22.2289C37.7455 22.1494 37.8093 22.0481 37.8447 21.9352C37.8685 21.8272 37.8685 21.715 37.8447 21.607V18.9989H40.7029C41.3254 19.0003 41.9421 18.8771 42.5187 18.6362C43.1055 18.3925 43.6376 18.0281 44.0823 17.5653C44.5102 17.1232 44.8526 16.6015 45.091 16.0281C45.3469 15.4298 45.4731 14.7816 45.4609 14.1282C45.469 13.4825 45.3489 12.8419 45.1079 12.2455C44.8834 11.6469 44.5528 11.0965 44.1327 10.6219ZM43.5442 15.2508C43.3972 15.6153 43.1864 15.949 42.9222 16.2354C42.6432 16.5153 42.3189 16.7432 41.9638 16.909C41.5881 17.0805 41.1813 17.1689 40.7702 17.1681H37.8952V11.0019H40.7869C41.1928 11.001 41.594 11.0893 41.9638 11.261C42.3178 11.435 42.6371 11.6751 42.9054 11.9691C43.177 12.2494 43.3888 12.5847 43.5275 12.9537C43.681 13.3192 43.7611 13.7128 43.7629 14.1109C43.767 14.5023 43.6925 14.8903 43.5442 15.2508Z" fill="black"/>
<path d="M50.8083 20.8138C50.6988 20.7792 50.5816 20.7792 50.4721 20.8138C50.2669 20.8261 50.0613 20.7956 49.8678 20.7244C49.6742 20.6532 49.4967 20.5426 49.3456 20.3993C49.1976 20.2476 49.0829 20.065 49.0094 19.8639C48.927 19.6621 48.8924 19.4431 48.9085 19.2248V10.0188C48.9337 9.90504 48.9337 9.78696 48.9085 9.67332C48.8657 9.55994 48.7964 9.45908 48.7067 9.37969C48.6273 9.29314 48.5305 9.22527 48.4231 9.1805C48.3159 9.13582 48.2004 9.11543 48.0846 9.12059C47.974 9.09522 47.8591 9.09522 47.7484 9.12059C47.6482 9.17397 47.5574 9.24402 47.4794 9.32785C47.3989 9.41177 47.336 9.51164 47.2945 9.62148C47.2768 9.73594 47.2768 9.85248 47.2945 9.96694V19.0866C47.2771 19.5608 47.3632 20.0329 47.5467 20.4684C47.6937 20.8707 47.9231 21.2358 48.2192 21.5393C48.5161 21.8414 48.8711 22.0768 49.2615 22.2302C49.667 22.4012 50.1011 22.4893 50.5394 22.4892C50.6503 22.5121 50.7646 22.5121 50.8756 22.4892C51.0781 22.3972 51.2399 22.2309 51.3295 22.0229C51.3548 21.9092 51.3548 21.7911 51.3295 21.6775C51.3315 21.559 51.3102 21.4413 51.2668 21.3315C51.2235 21.2217 51.159 21.1221 51.0773 21.0384C51.0096 20.9395 50.9165 20.8618 50.8083 20.8138Z" fill="black"/>
<path d="M61.4513 13.1097C61.3706 13.0215 61.2734 12.951 61.1655 12.9024C61.0618 12.8573 60.9503 12.834 60.8376 12.834C60.725 12.834 60.6135 12.8573 60.5098 12.9024C60.3969 12.951 60.2942 13.0214 60.2071 13.1097C60.1179 13.186 60.0534 13.2884 60.0222 13.4033C59.997 13.5169 59.997 13.635 60.0222 13.7488V17.8422C60.0196 18.2411 59.9572 18.6373 59.8373 19.0168C59.7145 19.369 59.5323 19.6964 59.2993 19.984C59.0656 20.2594 58.7795 20.4827 58.4586 20.6403C58.1092 20.7996 57.7312 20.8819 57.349 20.8821C56.9449 20.9174 56.5381 20.8644 56.1553 20.7267C55.4781 20.4116 54.9431 19.8434 54.659 19.1377C54.5278 18.7666 54.4596 18.3752 54.4572 17.9804V13.8178C54.4824 13.7042 54.4824 13.5861 54.4572 13.4723C54.4054 13.3641 54.3374 13.2651 54.2555 13.1787C54.1799 13.0964 54.0883 13.0317 53.9864 12.9888C53.7643 12.9025 53.5192 12.9025 53.2971 12.9888C53.1975 13.0358 53.1065 13.1001 53.0281 13.1787C52.9569 13.27 52.895 13.3683 52.8431 13.4723C52.8179 13.5861 52.8179 13.7042 52.8431 13.8178V17.9459C52.828 19.2317 53.305 20.4722 54.1714 21.4003C54.6055 21.8353 55.1123 22.1864 55.6677 22.4366C56.2256 22.6818 56.8262 22.8082 57.433 22.8082C58.0399 22.8082 58.6404 22.6818 59.1983 22.4366C59.7249 22.1881 60.199 21.836 60.5938 21.4003C60.9891 20.9488 61.3023 20.4282 61.5185 19.863C61.733 19.26 61.8411 18.6225 61.838 17.9804V13.8178C61.8632 13.7042 61.8632 13.5861 61.838 13.4723C61.8064 13.3846 61.7547 13.306 61.6874 13.2429C61.6202 13.1797 61.5392 13.1341 61.4513 13.1097Z" fill="black"/>
<path d="M69.4207 13.1096C69.3249 13.0247 69.2172 12.9549 69.1013 12.9024H68.7483C68.0772 12.8998 67.4129 13.0409 66.798 13.3169C66.166 13.5638 65.5928 13.9465 65.1167 14.4396C64.6556 14.9114 64.2849 15.4681 64.0239 16.0805C63.7701 16.7224 63.6388 17.4084 63.6371 18.1013V21.6939C63.6131 21.8135 63.6131 21.937 63.6371 22.0567C63.6827 22.1685 63.7516 22.2687 63.8389 22.3503C63.9237 22.4332 64.0241 22.4975 64.134 22.5391C64.2439 22.5807 64.3609 22.5987 64.4778 22.5921C64.5829 22.6171 64.6922 22.6171 64.7973 22.5921C64.8969 22.5451 64.9878 22.4807 65.0663 22.4021C65.1489 22.3199 65.2121 22.2195 65.2512 22.1084C65.2835 21.9898 65.2835 21.8644 65.2512 21.7457V18.0495C65.2543 17.5922 65.3458 17.1402 65.5202 16.7195C65.6878 16.3201 65.9274 15.9568 66.2263 15.6487C66.5293 15.3374 66.8893 15.0908 67.2855 14.9232C67.6832 14.7441 68.1123 14.65 68.5465 14.6469C68.663 14.6716 68.7831 14.6716 68.8996 14.6469C69.0077 14.6067 69.1054 14.5417 69.1854 14.4569C69.2674 14.3706 69.3354 14.2715 69.3871 14.1632C69.4112 14.0436 69.4112 13.9202 69.3871 13.8006C69.4034 13.686 69.4034 13.5697 69.3871 13.4551C69.4165 13.3425 69.428 13.2259 69.4207 13.1096Z" fill="black"/>
<path d="M76.7671 13.1273C76.175 12.8655 75.5371 12.7305 74.8925 12.7305C74.2479 12.7305 73.61 12.8655 73.0179 13.1273C72.4453 13.3716 71.9254 13.7297 71.4879 14.1809C71.0397 14.633 70.6851 15.1735 70.4455 15.77C70.1903 16.3812 70.0587 17.0394 70.0588 17.7045C70.0523 18.3702 70.1842 19.0297 70.4455 19.639C70.9383 20.8323 71.8596 21.7848 73.0179 22.2988C73.6115 22.5635 74.2539 22.6931 74.9009 22.6788C75.4799 22.6999 76.0556 22.5817 76.5822 22.3335C77.0983 22.1093 77.5754 21.8001 77.9944 21.418V21.6252C77.9916 21.8695 78.0822 22.1052 78.2466 22.2816C78.3211 22.3693 78.4128 22.4399 78.5156 22.4889C78.6263 22.5148 78.7412 22.5148 78.8519 22.4889C78.9684 22.5135 79.0885 22.5135 79.2049 22.4889C79.4189 22.3848 79.5911 22.2078 79.6925 21.988C79.7085 21.8676 79.7085 21.7457 79.6925 21.6252V17.6527C79.6781 16.993 79.5411 16.3423 79.289 15.7354C78.8034 14.5672 77.9011 13.634 76.7671 13.1273ZM77.7255 18.9999C77.5709 19.3736 77.3483 19.7136 77.0697 20.0017C76.7885 20.2912 76.458 20.5253 76.0946 20.6926C75.7156 20.8633 75.3063 20.9515 74.8925 20.9515C74.4786 20.9515 74.0693 20.8633 73.6904 20.6926C73.3184 20.5321 72.9813 20.2972 72.6984 20.0017C72.4308 19.7045 72.2097 19.3666 72.0427 18.9999C71.8015 18.4218 71.7367 17.7821 71.8568 17.1654C71.9768 16.5486 72.2762 15.9838 72.7153 15.5455C72.9926 15.2555 73.3243 15.0263 73.6904 14.8718C74.0721 14.7003 74.4843 14.6121 74.9009 14.6127C75.714 14.6238 76.4914 14.9581 77.0697 15.5455C77.4996 15.9897 77.792 16.5546 77.9104 17.169C78.0229 17.7848 77.9587 18.421 77.7255 18.9999Z" fill="black"/>
<path d="M85.4768 20.8136C85.3672 20.779 85.2501 20.779 85.1406 20.8136C84.935 20.8534 84.724 20.8534 84.5185 20.8136C84.3227 20.7381 84.1449 20.6203 83.9973 20.4682C83.8566 20.3104 83.743 20.1294 83.661 19.9327C83.6188 19.7277 83.6188 19.5159 83.661 19.3109V10.0185C83.6947 9.90595 83.6947 9.7856 83.661 9.67304C83.63 9.5536 83.5585 9.44947 83.4593 9.37942C83.3812 9.29097 83.2847 9.22182 83.177 9.17696C83.0694 9.1321 82.9532 9.11271 82.8372 9.12032C82.7321 9.09531 82.6229 9.09531 82.5177 9.12032C82.4149 9.16926 82.3232 9.23986 82.2487 9.32758C82.163 9.40706 82.0992 9.50838 82.0638 9.62121C82.0386 9.73494 82.0386 9.85302 82.0638 9.96667V19.0864C82.0643 19.5591 82.1497 20.0275 82.316 20.4682C82.4671 20.8725 82.7023 21.238 83.0053 21.539C83.2931 21.8446 83.6434 22.0806 84.0309 22.23C84.4415 22.4032 84.8815 22.4913 85.3255 22.489C85.4362 22.515 85.5511 22.515 85.6618 22.489C85.7008 22.4252 85.7293 22.3552 85.7459 22.2818C85.8309 22.2087 85.8949 22.1131 85.9307 22.0054C85.9543 21.8916 85.9543 21.7738 85.9307 21.6599C85.9328 21.5415 85.9114 21.4238 85.868 21.314C85.8247 21.2042 85.7603 21.1045 85.6785 21.0209C85.6322 20.9333 85.5621 20.8613 85.4768 20.8136Z" fill="black"/>
<path d="M91.6617 11.2958C92.252 11.0354 92.8869 10.9003 93.5281 10.8985C94.1568 10.9048 94.7774 11.0394 95.3552 11.2944C95.9322 11.5494 96.4538 11.9198 96.8908 12.3839C96.971 12.4687 97.0682 12.5337 97.177 12.5739C97.2929 12.5986 97.4133 12.5986 97.5301 12.5739C97.7557 12.5664 97.9706 12.4743 98.1347 12.3148C98.2168 12.2312 98.281 12.1315 98.3247 12.0217C98.3675 11.9119 98.3889 11.7942 98.3871 11.6758C98.4111 11.5619 98.4111 11.4442 98.3871 11.3303C98.3478 11.2246 98.2845 11.13 98.2025 11.054C97.5738 10.3933 96.8185 9.8755 95.983 9.53402C95.201 9.19753 94.3601 9.02711 93.5111 9.03312C92.8976 9.01758 92.285 9.09911 91.6956 9.27492C91.1347 9.44439 90.5979 9.68826 90.0985 10.0004C89.1218 10.6004 88.3204 11.4595 87.7784 12.4876C87.226 13.5132 86.9368 14.6663 86.9377 15.8383C86.9327 16.4217 87.0062 17.003 87.1563 17.5656C87.3133 18.1281 87.5393 18.6678 87.8288 19.1719C88.238 19.958 88.7948 20.6528 89.4672 21.2161C90.1396 21.7795 90.9145 22.2 91.7464 22.4536C92.294 22.6079 92.8593 22.6892 93.4273 22.6954C94.2861 22.6942 95.1368 22.5242 95.9322 22.1945C96.7775 21.8778 97.5462 21.377 98.1855 20.7264C98.2703 20.6534 98.3345 20.5578 98.3701 20.4501C98.388 20.3356 98.388 20.2191 98.3701 20.1046C98.3862 19.9959 98.3862 19.8852 98.3701 19.7765C98.3362 19.654 98.2658 19.5455 98.1686 19.4655C98.0919 19.3887 98.0001 19.3297 97.8993 19.2928C97.7932 19.2472 97.679 19.2237 97.5631 19.2237C97.4481 19.2237 97.3339 19.2472 97.2269 19.2928C97.1226 19.3296 97.029 19.3954 96.9585 19.4828C96.4752 19.9627 95.9036 20.3385 95.2768 20.5882C94.6927 20.8225 94.0711 20.9397 93.4443 20.9336C92.8147 20.9241 92.1941 20.7864 91.6162 20.5285C91.0393 20.2705 90.5176 19.8975 90.0816 19.431C89.4092 18.7171 88.9571 17.8142 88.7835 16.8366C88.61 15.8589 88.7223 14.8504 89.1066 13.9384C89.5903 12.7487 90.5069 11.8003 91.6617 11.2958Z" fill="black"/>
<path d="M106.392 13.1263C105.795 12.8672 105.156 12.7322 104.508 12.729C103.838 12.7194 103.173 12.8548 102.558 13.1263C101.414 13.6351 100.509 14.5835 100.036 15.7689C99.7857 16.3813 99.66 17.0395 99.6662 17.7034C99.66 18.3691 99.7911 19.0287 100.052 19.6379C100.424 20.5368 101.045 21.3039 101.837 21.8443C102.629 22.3846 103.558 22.6745 104.508 22.6778C105.156 22.6746 105.795 22.5396 106.392 22.2805C106.968 22.0362 107.488 21.6716 107.921 21.2097C108.361 20.7603 108.709 20.226 108.946 19.6379C109.182 19.0221 109.296 18.3647 109.283 17.7034C109.283 17.0383 109.151 16.3802 108.896 15.7689C108.422 14.5908 107.525 13.6448 106.392 13.1263ZM107.316 18.9988C107.161 19.3685 106.945 19.7075 106.677 20.0007C106.392 20.2865 106.063 20.5201 105.702 20.6915C105.32 20.8627 104.908 20.951 104.491 20.951C104.075 20.951 103.663 20.8627 103.28 20.6915C102.917 20.5264 102.586 20.292 102.306 20.0007C102.028 19.7126 101.805 19.3725 101.65 18.9988C101.484 18.6122 101.399 18.1948 101.398 17.7725C101.397 17.3445 101.483 16.921 101.65 16.5289C101.808 16.1625 102.031 15.8289 102.306 15.5443C102.589 15.2543 102.926 15.0253 103.297 14.8707C103.674 14.6992 104.08 14.6109 104.491 14.6117C104.908 14.611 105.32 14.6993 105.702 14.8707C106.065 15.0296 106.397 15.2582 106.677 15.5443C107.096 15.9943 107.381 16.5574 107.501 17.168C107.613 17.7838 107.549 18.4199 107.316 18.9988Z" fill="black"/>
<path d="M119.708 9.37945C119.612 9.28511 119.497 9.21424 119.372 9.17219C119.261 9.14573 119.146 9.14573 119.035 9.17219C118.92 9.14709 118.799 9.14709 118.682 9.17219C118.58 9.22113 118.488 9.29172 118.413 9.37945C118.251 9.56405 118.161 9.80421 118.162 10.0531V13.8184C117.737 13.4613 117.26 13.1756 116.749 12.9721C116.211 12.764 115.642 12.6586 115.067 12.6612C114.118 12.6634 113.192 12.9531 112.402 13.4937C111.613 14.0344 110.996 14.8022 110.629 15.7011C110.374 16.3124 110.242 16.9705 110.242 17.6356C110.242 18.3007 110.374 18.9589 110.629 19.5701C110.873 20.1604 111.22 20.6991 111.655 21.1592C112.096 21.61 112.615 21.9731 113.185 22.23C113.78 22.4922 114.42 22.6274 115.067 22.6273C115.704 22.6276 116.334 22.4923 116.917 22.23C117.49 21.9858 118.01 21.6277 118.447 21.1764C118.887 20.7269 119.246 20.2005 119.506 19.6219C119.76 19.0161 119.891 18.364 119.893 17.7047V10.0531C119.917 9.93353 119.917 9.81001 119.893 9.69038C119.85 9.57583 119.788 9.47044 119.708 9.37945ZM118.027 18.931C117.86 19.2977 117.639 19.6357 117.371 19.9328C117.088 20.2284 116.751 20.4633 116.379 20.6237C116.004 20.7953 115.597 20.8836 115.185 20.8828C114.769 20.8834 114.357 20.7952 113.975 20.6237C113.215 20.2978 112.611 19.6772 112.293 18.8964C111.98 18.1046 111.98 17.2184 112.293 16.4265C112.457 16.0937 112.679 15.795 112.949 15.5457C113.23 15.2561 113.561 15.022 113.924 14.8547C114.31 14.6982 114.72 14.6162 115.135 14.613C115.955 14.6159 116.74 14.951 117.321 15.5457C117.592 15.8398 117.814 16.1784 117.976 16.5474C118.289 17.3393 118.289 18.2254 117.976 19.0173L118.027 18.931Z" fill="black"/>
<path d="M130.972 15.7358C130.467 14.5578 129.539 13.6243 128.383 13.1277C127.788 12.8655 127.148 12.7304 126.5 12.7305C125.853 12.7336 125.213 12.8687 124.617 13.1277C124.044 13.372 123.525 13.7301 123.087 14.1813C122.633 14.6285 122.278 15.1703 122.044 15.7704C121.789 16.3816 121.658 17.0398 121.658 17.7049C121.661 18.3696 121.793 19.0271 122.044 19.6394C122.282 20.2318 122.637 20.7669 123.087 21.2111C123.528 21.662 124.047 22.0251 124.617 22.282C125.212 22.5435 125.853 22.673 126.5 22.662C126.846 22.7054 127.196 22.7054 127.543 22.662C127.841 22.5961 128.134 22.5036 128.417 22.3856C128.669 22.2877 128.907 22.1539 129.123 21.9884C129.323 21.8521 129.508 21.6959 129.677 21.522C129.774 21.4475 129.854 21.3534 129.913 21.2457C129.962 21.1417 129.996 21.0313 130.014 20.9174C130.034 20.704 129.981 20.4901 129.863 20.313C129.81 20.2359 129.748 20.1663 129.677 20.1057C129.626 20.0073 129.551 19.924 129.459 19.8638C129.322 19.8211 129.175 19.8211 129.039 19.8638C128.869 19.8966 128.708 19.9674 128.568 20.0711C128.326 20.3521 128.02 20.5659 127.677 20.693C127.303 20.8454 126.902 20.9216 126.5 20.9174C126.152 20.9119 125.806 20.8537 125.475 20.7447C124.854 20.5142 124.327 20.0763 123.978 19.5012C123.792 19.2141 123.666 18.8906 123.608 18.5512H130.501C130.612 18.5777 130.727 18.5777 130.838 18.5512C130.945 18.511 131.044 18.446 131.124 18.3612C131.209 18.2882 131.273 18.1926 131.308 18.0849C131.341 17.9779 131.341 17.8636 131.308 17.7566C131.336 17.0662 131.222 16.3776 130.972 15.7358ZM123.558 17.014C123.624 16.6633 123.743 16.3253 123.911 16.0122C124.082 15.7148 124.305 15.4516 124.566 15.2349C124.834 15.013 125.135 14.838 125.458 14.7168C125.804 14.5936 126.168 14.5295 126.533 14.5267C126.905 14.5294 127.274 14.5935 127.626 14.7168C127.949 14.8423 128.254 15.0107 128.534 15.2177C128.796 15.441 129.018 15.7099 129.19 16.0122C129.374 16.3174 129.495 16.6585 129.543 17.014H123.558Z" fill="black"/>
<path d="M134.335 19.6895C134.058 19.6895 133.789 19.7736 133.56 19.9311C133.33 20.0886 133.152 20.3125 133.045 20.5744C132.94 20.8364 132.913 21.1246 132.966 21.4027C133.02 21.6808 133.153 21.9362 133.348 22.1368C133.543 22.3372 133.792 22.4738 134.063 22.5291C134.333 22.5844 134.614 22.556 134.869 22.4475C135.124 22.339 135.342 22.1553 135.495 21.9195C135.648 21.6837 135.73 21.4066 135.73 21.123C135.73 20.7428 135.583 20.3782 135.322 20.1093C135.06 19.8405 134.705 19.6895 134.335 19.6895Z" fill="#F8991D"/>
<path d="M135.158 9.41353H134.217V9.05078H136.537V9.41353H135.578V12.2806H135.158V9.41353Z" fill="black"/>
<path d="M139.546 10.8644C139.546 10.4153 139.546 9.8798 139.546 9.46528C139.445 9.84527 139.311 10.2426 139.16 10.6916L138.605 12.2634H138.201L137.697 10.7261C137.554 10.3134 137.437 9.8924 137.344 9.46528C137.344 9.8798 137.344 10.4153 137.344 10.8989V12.2806H136.957L137.175 9.05078H137.697L138.235 10.6226C138.37 11.0026 138.47 11.3652 138.554 11.6934C138.641 11.3307 138.748 10.9733 138.873 10.6226L139.445 9.05078H139.95L140.151 12.2806H139.546V10.8644Z" fill="black"/>
</g>
<defs>
<clipPath id="clip0_494_599">
<rect width="140" height="29" fill="white"/>
</clipPath>
</defs>
</svg>
