<svg width="582" height="98" viewBox="0 0 582 98" fill="none" xmlns="http://www.w3.org/2000/svg">
<path d="M153.013 37.2613C153.013 57.2189 136.823 73.3977 116.85 73.3977C96.8782 73.3977 80.6875 57.2189 80.6875 37.2613C80.6875 17.3038 96.8782 1.125 116.85 1.125C136.823 1.125 153.013 17.3038 153.013 37.2613ZM91.7643 37.2613C91.7643 51.1058 102.996 62.329 116.85 62.329C130.705 62.329 141.936 51.1058 141.936 37.2613C141.936 23.4169 130.705 12.1937 116.85 12.1937C102.996 12.1937 91.7643 23.4169 91.7643 37.2613Z" fill="#C4C4C4"/>
<path d="M72.853 37.2594C72.853 57.217 56.6623 73.3957 36.6902 73.3957C16.718 73.3957 0.527344 57.217 0.527344 37.2594C0.527344 17.3018 16.718 1.12305 36.6902 1.12305C56.6623 1.12305 72.853 17.3018 72.853 37.2594ZM11.6041 37.2594C11.6041 51.1039 22.8355 62.327 36.6902 62.327C50.5449 62.327 61.7762 51.1039 61.7762 37.2594C61.7762 23.4149 50.5449 12.1917 36.6902 12.1917C22.8355 12.1917 11.6041 23.4149 11.6041 37.2594Z" fill="#C4C4C4"/>
<path d="M52.9607 37.2595C52.9607 46.2403 45.675 53.5207 36.6874 53.5207C27.7 53.5207 20.4141 46.2403 20.4141 37.2595C20.4141 28.2785 27.7 20.998 36.6874 20.998C45.675 20.998 52.9607 28.2785 52.9607 37.2595ZM27.4473 37.2595C27.4473 42.3588 31.5843 46.4928 36.6874 46.4928C41.7907 46.4928 45.9275 42.3588 45.9275 37.2595C45.9275 32.1599 41.7907 28.0261 36.6874 28.0261C31.5843 28.0261 27.4473 32.1599 27.4473 37.2595Z" fill="#C4C4C4"/>
<path d="M91.801 77.6133C94.6495 77.6133 97.0242 79.9585 96.2936 82.7098C95.4016 86.0692 93.6351 89.1668 91.1331 91.6671C87.4032 95.3943 82.3441 97.4883 77.0691 97.4883C71.794 97.4883 66.7351 95.3943 63.005 91.6671C60.503 89.1668 58.7364 86.0692 57.8445 82.7098C57.1139 79.9585 59.4887 77.6133 62.3371 77.6133C64.2362 77.6133 65.7256 79.1861 66.2951 80.9965C66.8356 82.7151 67.7851 84.2958 69.0834 85.5932C71.2014 87.7095 74.0739 88.8985 77.0691 88.8985C80.0643 88.8985 82.9369 87.7095 85.0547 85.5932C86.3532 84.2958 87.3027 82.7151 87.8432 80.9965C88.4125 79.1861 89.9021 77.6133 91.801 77.6133Z" fill="#C4C4C4"/>
<path d="M116.851 53.5209C125.839 53.5209 133.125 46.2404 133.125 37.2595C133.125 28.2785 125.839 20.998 116.851 20.998C107.864 20.998 100.578 28.2785 100.578 37.2595C100.578 46.2404 107.864 53.5209 116.851 53.5209Z" fill="#C4C4C4"/>
<path d="M167.193 28.7581C167.716 28.7581 168.259 28.9079 168.82 29.207C169.42 29.4687 169.869 29.8241 170.168 30.2728L183.809 51.2535L181.002 51.1412L194.981 30.2728C195.692 29.2631 196.61 28.7581 197.732 28.7581C198.631 28.7581 199.435 29.0761 200.145 29.7119C200.858 30.3477 201.213 31.1704 201.213 32.1801V64.6608C201.213 65.6331 200.895 66.456 200.258 67.1291C199.623 67.7649 198.78 68.0828 197.732 68.0828C196.684 68.0828 195.824 67.7649 195.15 67.1291C194.513 66.456 194.195 65.6331 194.195 64.6608V38.2387L196.385 38.7437L184.933 56.1901C184.595 56.6014 184.165 56.9567 183.642 57.2559C183.155 57.555 182.65 57.686 182.126 57.6485C181.639 57.686 181.134 57.555 180.61 57.2559C180.123 56.9567 179.711 56.6014 179.375 56.1901L168.651 39.2485L170.111 36.2754V64.6608C170.111 65.6331 169.812 66.456 169.214 67.1291C168.615 67.7649 167.828 68.0828 166.856 68.0828C165.92 68.0828 165.153 67.7649 164.553 67.1291C163.955 66.456 163.656 65.6331 163.656 64.6608V32.1801C163.656 31.2452 163.992 30.4412 164.666 29.768C165.378 29.0949 166.219 28.7581 167.193 28.7581ZM232.276 37.5095C233.249 37.5095 234.054 37.8273 234.691 38.4632C235.326 39.0989 235.644 39.9216 235.644 40.9315V64.6608C235.644 65.6331 235.326 66.456 234.691 67.1291C234.054 67.7649 233.249 68.0828 232.276 68.0828C231.303 68.0828 230.499 67.7649 229.863 67.1291C229.226 66.456 228.908 65.6331 228.908 64.6608V61.912L230.143 62.417C230.143 62.9031 229.88 63.5014 229.358 64.212C228.834 64.8851 228.122 65.5584 227.224 66.2316C226.326 66.9047 225.258 67.4844 224.023 67.9705C222.826 68.4194 221.517 68.6438 220.094 68.6438C217.512 68.6438 215.173 67.9893 213.076 66.6803C210.982 65.334 209.316 63.5014 208.081 61.1828C206.883 58.8266 206.284 56.1339 206.284 53.1047C206.284 50.0379 206.883 47.3452 208.081 45.0266C209.316 42.6704 210.962 40.838 213.02 39.529C215.08 38.1827 217.363 37.5095 219.869 37.5095C221.478 37.5095 222.958 37.7526 224.305 38.2387C225.652 38.7249 226.813 39.342 227.786 40.09C228.795 40.838 229.564 41.6046 230.086 42.3899C230.649 43.1379 230.929 43.7737 230.929 44.2972L228.908 45.0266V40.9315C228.908 39.959 229.226 39.155 229.863 38.5192C230.499 37.8461 231.303 37.5095 232.276 37.5095ZM220.937 62.473C222.583 62.473 224.023 62.0616 225.258 61.2389C226.495 60.416 227.448 59.2941 228.122 57.873C228.834 56.4518 229.189 54.8624 229.189 53.1047C229.189 51.3095 228.834 49.7014 228.122 48.2802C227.448 46.859 226.495 45.7372 225.258 44.9143C224.023 44.0916 222.583 43.6802 220.937 43.6802C219.327 43.6802 217.904 44.0916 216.67 44.9143C215.435 45.7372 214.462 46.859 213.75 48.2802C213.076 49.7014 212.74 51.3095 212.74 53.1047C212.74 54.8624 213.076 56.4518 213.75 57.873C214.462 59.2941 215.435 60.416 216.67 61.2389C217.904 62.0616 219.327 62.473 220.937 62.473ZM244.903 68.0828C243.93 68.0828 243.127 67.7649 242.49 67.1291C241.853 66.456 241.535 65.6331 241.535 64.6608V41.4923C241.535 40.5201 241.853 39.716 242.49 39.0803C243.127 38.4069 243.93 38.0704 244.903 38.0704C245.877 38.0704 246.681 38.4069 247.318 39.0803C247.955 39.716 248.271 40.5201 248.271 41.4923V46.7655L247.879 43.007C248.291 42.1094 248.815 41.3241 249.451 40.651C250.125 39.9404 250.873 39.3608 251.696 38.9119C252.521 38.4257 253.4 38.0704 254.336 37.8461C255.271 37.6217 256.207 37.5095 257.141 37.5095C258.265 37.5095 259.201 37.8273 259.948 38.4632C260.734 39.0989 261.128 39.8469 261.128 40.7071C261.128 41.9412 260.81 42.8388 260.173 43.3996C259.537 43.9232 258.845 44.1851 258.096 44.1851C257.386 44.1851 256.73 44.0542 256.132 43.7924C255.57 43.5306 254.914 43.3996 254.167 43.3996C253.493 43.3996 252.8 43.568 252.09 43.9046C251.416 44.2037 250.779 44.69 250.181 45.3632C249.619 46.0363 249.151 46.8778 248.778 47.8876C248.44 48.8599 248.271 50.0193 248.271 51.3656V64.6608C248.271 65.6331 247.955 66.456 247.318 67.1291C246.681 67.7649 245.877 68.0828 244.903 68.0828ZM268.403 68.0828C267.431 68.0828 266.625 67.7649 265.989 67.1291C265.354 66.456 265.035 65.6331 265.035 64.6608V29.9923C265.035 29.02 265.354 28.2159 265.989 27.5802C266.625 26.907 267.431 26.5703 268.403 26.5703C269.376 26.5703 270.182 26.907 270.817 27.5802C271.453 28.2159 271.772 29.02 271.772 29.9923V64.6608C271.772 65.6331 271.453 66.456 270.817 67.1291C270.182 67.7649 269.376 68.0828 268.403 68.0828ZM286.256 38.0704C287.116 38.0704 287.865 38.4257 288.5 39.1363C289.137 39.8469 289.455 40.5387 289.455 41.2118C289.455 42.1094 289.007 42.9509 288.108 43.7364L271.21 59.2753L270.929 51.534L283.785 39.1363C284.497 38.4257 285.32 38.0704 286.256 38.0704ZM287.097 68.0267C286.124 68.0267 285.301 67.6527 284.627 66.9047L274.241 55.9096L279.35 51.1974L289.455 62.1925C290.166 62.9405 290.521 63.7819 290.521 64.7169C290.521 65.6892 290.129 66.4933 289.343 67.1291C288.595 67.7274 287.846 68.0267 287.097 68.0267ZM307.918 68.6438C304.737 68.6438 301.966 67.9893 299.61 66.6803C297.29 65.334 295.492 63.5202 294.22 61.2389C292.986 58.9575 292.367 56.3769 292.367 53.4973C292.367 50.1314 293.04 47.2705 294.388 44.9143C295.773 42.5209 297.569 40.6883 299.778 39.4168C301.986 38.1452 304.325 37.5095 306.794 37.5095C308.704 37.5095 310.5 37.9022 312.184 38.6875C313.906 39.4729 315.422 40.5575 316.732 41.9412C318.042 43.2875 319.071 44.8582 319.819 46.6534C320.605 48.4486 320.999 50.3559 320.999 52.3753C320.96 53.2729 320.605 54.0023 319.931 54.5631C319.258 55.1241 318.471 55.4046 317.574 55.4046H296.129L294.444 49.7949H315.047L313.812 50.9169V49.4022C313.738 48.3176 313.344 47.3452 312.634 46.485C311.96 45.6249 311.098 44.9517 310.052 44.4656C309.04 43.942 307.955 43.6802 306.794 43.6802C305.672 43.6802 304.624 43.8299 303.651 44.129C302.679 44.4282 301.836 44.9331 301.126 45.6437C300.413 46.3543 299.852 47.3079 299.441 48.5046C299.029 49.7014 298.823 51.216 298.823 53.0485C298.823 55.0681 299.235 56.7884 300.058 58.2095C300.92 59.5933 302.005 60.6592 303.314 61.4071C304.661 62.1176 306.084 62.473 307.581 62.473C308.967 62.473 310.069 62.3607 310.893 62.1364C311.717 61.912 312.372 61.6501 312.859 61.351C313.381 61.0144 313.849 60.7339 314.261 60.5095C314.934 60.1729 315.571 60.0047 316.171 60.0047C316.994 60.0047 317.668 60.2852 318.192 60.8462C318.753 61.4071 319.033 62.0616 319.033 62.8096C319.033 63.8193 318.51 64.7355 317.462 65.5584C316.489 66.3811 315.123 67.1103 313.364 67.7462C311.605 68.3445 309.79 68.6438 307.918 68.6438ZM325.817 38.6314H339.123C340.02 38.6314 340.769 38.9305 341.367 39.529C341.967 40.1274 342.266 40.8753 342.266 41.7728C342.266 42.633 341.967 43.3624 341.367 43.9607C340.769 44.5217 340.02 44.8022 339.123 44.8022H325.817C324.918 44.8022 324.171 44.503 323.571 43.9046C322.973 43.3063 322.674 42.5583 322.674 41.6607C322.674 40.8006 322.973 40.09 323.571 39.529C324.171 38.9305 324.918 38.6314 325.817 38.6314ZM331.824 31.6192C332.798 31.6192 333.583 31.9558 334.182 32.629C334.819 33.2647 335.136 34.0688 335.136 35.0412V60.0047C335.136 60.5283 335.231 60.9584 335.417 61.2949C335.642 61.6315 335.922 61.8746 336.259 62.0241C336.634 62.1737 337.026 62.2486 337.438 62.2486C337.886 62.2486 338.3 62.1737 338.673 62.0241C339.047 61.8371 339.478 61.7436 339.964 61.7436C340.488 61.7436 340.956 61.9867 341.367 62.473C341.817 62.9592 342.041 63.6323 342.041 64.4925C342.041 65.5396 341.462 66.3998 340.301 67.0729C339.179 67.7462 337.962 68.0828 336.652 68.0828C335.866 68.0828 334.986 68.0267 334.013 67.9144C333.078 67.7649 332.179 67.4469 331.319 66.9608C330.496 66.4372 329.803 65.6519 329.242 64.6048C328.681 63.5576 328.399 62.1176 328.399 60.2852V35.0412C328.399 34.0688 328.718 33.2647 329.354 32.629C330.028 31.9558 330.851 31.6192 331.824 31.6192ZM365.237 68.0828C364.302 68.0828 363.515 67.7649 362.879 67.1291C362.244 66.456 361.925 65.6331 361.925 64.6608V38.2948L363.104 38.5753L352.269 51.9827L351.988 51.2535H371.861C372.76 51.2535 373.507 51.5526 374.107 52.151C374.705 52.7493 375.006 53.4973 375.006 54.3949C375.006 55.2551 374.705 55.9843 374.107 56.5827C373.507 57.1437 372.76 57.4243 371.861 57.4243H347.329C346.543 57.4243 345.776 57.1063 345.026 56.4704C344.316 55.8347 343.96 55.0494 343.96 54.1144C343.96 53.2917 344.24 52.5437 344.803 51.8705L362.543 30.1606C362.842 29.7492 363.234 29.4314 363.721 29.207C364.208 28.9451 364.75 28.8144 365.35 28.8144C366.322 28.8144 367.109 29.1509 367.707 29.8241C368.343 30.4598 368.662 31.2639 368.662 32.2363V64.6608C368.662 65.6331 368.324 66.456 367.65 67.1291C367.015 67.7649 366.21 68.0828 365.237 68.0828Z" fill="#C4C4C4"/>
<path d="M415.361 48.4486C415.361 51.3282 414.894 54.0023 413.958 56.4704C413.022 58.9015 411.712 61.0331 410.029 62.8657C408.344 64.6983 406.342 66.1193 404.021 67.1291C401.701 68.1389 399.175 68.6438 396.442 68.6438C393.673 68.6438 391.128 68.1389 388.808 67.1291C386.525 66.1193 384.541 64.6983 382.856 62.8657C381.173 61.0331 379.863 58.9015 378.927 56.4704C377.991 54.0023 377.523 51.3282 377.523 48.4486C377.523 45.5314 377.991 42.8574 378.927 40.4266C379.863 37.9582 381.173 35.8265 382.856 34.0313C384.541 32.1989 386.525 30.7777 388.808 29.768C391.128 28.7581 393.673 28.2533 396.442 28.2533C399.175 28.2533 401.701 28.7581 404.021 29.768C406.342 30.7777 408.344 32.1989 410.029 34.0313C411.712 35.8265 413.022 37.9582 413.958 40.4266C414.894 42.8574 415.361 45.5314 415.361 48.4486ZM410.533 48.4486C410.533 45.3818 409.916 42.6704 408.681 40.3144C407.484 37.9582 405.836 36.107 403.741 34.7607C401.644 33.4142 399.212 32.7411 396.442 32.7411C393.673 32.7411 391.221 33.4142 389.088 34.7607C386.993 36.107 385.345 37.9582 384.147 40.3144C382.95 42.6704 382.351 45.3818 382.351 48.4486C382.351 51.4777 382.95 54.1891 384.147 56.5827C385.345 58.9388 386.993 60.79 389.088 62.1364C391.221 63.4827 393.673 64.1559 396.442 64.1559C399.212 64.1559 401.644 63.4827 403.741 62.1364C405.836 60.79 407.484 58.9388 408.681 56.5827C409.916 54.1891 410.533 51.4777 410.533 48.4486ZM434.936 38.6314C437.481 38.6314 439.764 39.2673 441.785 40.5387C443.805 41.8103 445.396 43.568 446.556 45.8119C447.754 48.0558 448.352 50.6364 448.352 53.5534C448.352 56.4332 447.754 59.0136 446.556 61.2949C445.396 63.5388 443.805 65.3153 441.785 66.6242C439.801 67.8958 437.555 68.5315 435.048 68.5315C433.662 68.5315 432.352 68.3259 431.117 67.9144C429.92 67.4657 428.817 66.9047 427.805 66.2316C426.833 65.521 426.01 64.7355 425.336 63.8754C424.662 62.9778 424.175 62.099 423.876 61.2389L425.111 60.4534V77.0022C425.111 77.6381 424.905 78.1803 424.493 78.6292C424.082 79.0779 423.538 79.3023 422.865 79.3023C422.23 79.3023 421.686 79.0779 421.238 78.6292C420.826 78.2178 420.62 77.6755 420.62 77.0022V41.1558C420.62 40.5201 420.826 39.9965 421.238 39.585C421.686 39.1363 422.23 38.9119 422.865 38.9119C423.538 38.9119 424.082 39.1363 424.493 39.585C424.905 39.9965 425.111 40.5201 425.111 41.1558V46.1485L424.268 45.6998C424.53 44.7647 424.981 43.8672 425.616 43.007C426.289 42.1469 427.095 41.3988 428.03 40.7631C429.003 40.09 430.069 39.5664 431.23 39.1924C432.428 38.8184 433.662 38.6314 434.936 38.6314ZM434.429 42.7826C432.559 42.7826 430.894 43.2501 429.434 44.1851C428.011 45.1201 426.889 46.3915 426.066 47.9997C425.28 49.6079 424.886 51.4591 424.886 53.5534C424.886 55.6103 425.28 57.4615 426.066 59.1071C426.889 60.7527 428.011 62.0429 429.434 62.9778C430.894 63.9128 432.559 64.3803 434.429 64.3803C436.301 64.3803 437.949 63.9128 439.37 62.9778C440.793 62.0429 441.915 60.7527 442.738 59.1071C443.561 57.4615 443.974 55.6103 443.974 53.5534C443.974 51.4591 443.561 49.6079 442.738 47.9997C441.915 46.3915 440.793 45.1201 439.37 44.1851C437.949 43.2501 436.301 42.7826 434.429 42.7826ZM452.577 39.2485H465.77C466.368 39.2485 466.856 39.4541 467.23 39.8655C467.642 40.277 467.848 40.7631 467.848 41.3241C467.848 41.9224 467.642 42.4274 467.23 42.8388C466.856 43.2128 466.368 43.3996 465.77 43.3996H452.577C452.016 43.3996 451.529 43.194 451.118 42.7826C450.706 42.3713 450.5 41.8663 450.5 41.2681C450.5 40.7071 450.706 40.2395 451.118 39.8655C451.529 39.4541 452.016 39.2485 452.577 39.2485ZM458.471 31.6192C459.108 31.6192 459.632 31.8435 460.044 32.2924C460.455 32.7037 460.661 33.2272 460.661 33.8631V60.9584C460.661 61.8559 460.793 62.5291 461.055 62.9778C461.317 63.4267 461.653 63.7444 462.065 63.9314C462.513 64.0812 462.944 64.1559 463.356 64.1559C463.73 64.1559 464.049 64.0998 464.311 63.9877C464.61 63.8379 464.947 63.7632 465.32 63.7632C465.695 63.7632 466.032 63.9502 466.331 64.3243C466.667 64.6608 466.836 65.1095 466.836 65.6705C466.836 66.3437 466.444 66.9233 465.658 67.4096C464.872 67.8584 463.992 68.0828 463.02 68.0828C462.495 68.0828 461.839 68.0454 461.055 67.9705C460.306 67.8958 459.557 67.6527 458.809 67.2413C458.06 66.8298 457.425 66.1567 456.901 65.2218C456.413 64.2494 456.171 62.9031 456.171 61.1828V33.8631C456.171 33.2272 456.394 32.7037 456.844 32.2924C457.293 31.8435 457.836 31.6192 458.471 31.6192ZM477.013 65.7827C477.013 66.4186 476.788 66.9608 476.34 67.4096C475.928 67.8584 475.404 68.0828 474.767 68.0828C474.094 68.0828 473.552 67.8584 473.14 67.4096C472.729 66.9608 472.523 66.4186 472.523 65.7827V40.8753C472.523 40.2395 472.729 39.716 473.14 39.3045C473.589 38.8558 474.132 38.6314 474.767 38.6314C475.404 38.6314 475.928 38.8558 476.34 39.3045C476.788 39.716 477.013 40.2395 477.013 40.8753V65.7827ZM474.767 34.8728C473.832 34.8728 473.14 34.6858 472.69 34.3118C472.242 33.9378 472.016 33.3582 472.016 32.5729V31.7874C472.016 31.0022 472.261 30.4224 472.746 30.0485C473.234 29.6745 473.926 29.4875 474.824 29.4875C475.722 29.4875 476.396 29.6745 476.844 30.0485C477.295 30.4224 477.518 31.0022 477.518 31.7874V32.5729C477.518 33.3582 477.275 33.9378 476.788 34.3118C476.34 34.6858 475.666 34.8728 474.767 34.8728ZM496.589 38.3509C498.497 38.3509 500.219 38.5567 501.755 38.968C503.289 39.3794 504.506 39.9404 505.403 40.651C506.301 41.3616 506.75 42.1656 506.75 43.0631C506.75 43.5494 506.583 44.0167 506.245 44.4656C505.909 44.9143 505.459 45.1387 504.898 45.1387C504.374 45.1387 503.943 45.0452 503.607 44.8582C503.308 44.6712 503.007 44.4282 502.708 44.129C502.446 43.8299 502.071 43.568 501.586 43.3436C501.137 43.0819 500.481 42.8761 499.621 42.7265C498.759 42.5769 497.899 42.5022 497.038 42.5022C494.98 42.5022 493.165 42.9884 491.592 43.9607C490.058 44.9331 488.841 46.242 487.944 47.8876C487.046 49.5332 486.597 51.403 486.597 53.4973C486.597 55.5916 487.026 57.4615 487.888 59.1071C488.748 60.7527 489.946 62.0616 491.481 63.034C493.015 64.0063 494.793 64.4925 496.814 64.4925C498.124 64.4925 499.171 64.3803 499.957 64.1559C500.743 63.9314 501.398 63.6697 501.922 63.3706C502.596 62.9966 503.102 62.6226 503.438 62.2486C503.813 61.8746 504.3 61.6876 504.898 61.6876C505.534 61.6876 506.02 61.8934 506.358 62.3046C506.732 62.7161 506.919 63.2209 506.919 63.8193C506.919 64.4925 506.451 65.203 505.515 65.951C504.58 66.6991 503.308 67.3348 501.698 67.8584C500.126 68.3819 498.33 68.6438 496.309 68.6438C493.464 68.6438 490.975 67.9893 488.841 66.6803C486.71 65.334 485.044 63.5202 483.846 61.2389C482.685 58.9201 482.105 56.3397 482.105 53.4973C482.105 50.655 482.705 48.0932 483.902 45.8119C485.137 43.5306 486.84 41.7168 489.01 40.3705C491.181 39.024 493.708 38.3509 496.589 38.3509ZM535.3 38.7997C535.937 38.7997 536.461 39.024 536.872 39.4729C537.321 39.8843 537.546 40.4079 537.546 41.0436V65.7827C537.546 66.4186 537.321 66.9608 536.872 67.4096C536.461 67.8584 535.937 68.0828 535.3 68.0828C534.626 68.0828 534.083 67.8584 533.671 67.4096C533.26 66.9608 533.054 66.4186 533.054 65.7827V60.4534L534.122 60.3413C534.122 61.164 533.84 62.0616 533.279 63.034C532.718 64.0063 531.951 64.9225 530.977 65.7827C530.004 66.6056 528.843 67.2973 527.496 67.8584C526.187 68.3819 524.765 68.6438 523.231 68.6438C520.686 68.6438 518.403 67.9893 516.382 66.6803C514.361 65.334 512.752 63.5202 511.554 61.2389C510.393 58.9575 509.813 56.3583 509.813 53.4413C509.813 50.4868 510.393 47.8876 511.554 45.6437C512.752 43.3624 514.361 41.5858 516.382 40.3144C518.403 39.0054 520.647 38.3509 523.118 38.3509C524.728 38.3509 526.224 38.6127 527.609 39.1363C528.995 39.6599 530.191 40.3705 531.202 41.2681C532.25 42.1656 533.054 43.1566 533.615 44.2412C534.215 45.3257 534.514 46.4103 534.514 47.4949L533.054 47.1583V41.0436C533.054 40.4079 533.26 39.8843 533.671 39.4729C534.083 39.024 534.626 38.7997 535.3 38.7997ZM523.736 64.4925C525.607 64.4925 527.253 64.0063 528.676 63.034C530.136 62.0616 531.258 60.7527 532.044 59.1071C532.868 57.4243 533.279 55.5356 533.279 53.4413C533.279 51.3842 532.868 49.5332 532.044 47.8876C531.258 46.2045 530.136 44.8957 528.676 43.9607C527.253 42.9884 525.607 42.5022 523.736 42.5022C521.901 42.5022 520.255 42.9696 518.795 43.9046C517.374 44.8396 516.25 46.1298 515.427 47.7754C514.604 49.4209 514.192 51.3095 514.192 53.4413C514.192 55.5356 514.584 57.4243 515.371 59.1071C516.194 60.7527 517.318 62.0616 518.739 63.034C520.199 64.0063 521.864 64.4925 523.736 64.4925ZM549.405 65.7827C549.405 66.4186 549.181 66.9608 548.731 67.4096C548.283 67.8584 547.741 68.0828 547.104 68.0828C546.467 68.0828 545.943 67.8584 545.532 67.4096C545.12 66.9608 544.914 66.4186 544.914 65.7827V28.8144C544.914 28.1785 545.12 27.6549 545.532 27.2436C545.98 26.7947 546.524 26.5703 547.16 26.5703C547.834 26.5703 548.376 26.7947 548.787 27.2436C549.199 27.6549 549.405 28.1785 549.405 28.8144V65.7827ZM555.085 63.4827C554.747 62.9966 554.598 62.4917 554.636 61.9681C554.673 61.4071 554.992 60.9209 555.59 60.5095C555.964 60.2478 556.395 60.1356 556.881 60.1729C557.405 60.2103 557.873 60.4534 558.284 60.9023C559.332 62.1364 560.53 63.1274 561.878 63.8754C563.225 64.586 564.871 64.9413 566.818 64.9413C567.715 64.9039 568.614 64.7543 569.513 64.4925C570.411 64.2307 571.159 63.7819 571.759 63.1462C572.394 62.473 572.712 61.5941 572.712 60.5095C572.712 59.4623 572.394 58.6396 571.759 58.0412C571.122 57.4055 570.299 56.9005 569.288 56.5267C568.278 56.1152 567.173 55.76 565.976 55.4607C564.741 55.1241 563.524 54.7501 562.326 54.3389C561.128 53.89 560.043 53.3478 559.07 52.7119C558.135 52.0387 557.368 51.216 556.768 50.2436C556.207 49.2339 555.927 48.0185 555.927 46.5973C555.927 44.9143 556.376 43.4559 557.275 42.2217C558.21 40.9876 559.445 40.0339 560.979 39.3608C562.551 38.6875 564.254 38.3509 566.088 38.3509C567.136 38.3509 568.222 38.4818 569.344 38.7437C570.505 38.968 571.627 39.3794 572.712 39.9777C573.797 40.5387 574.752 41.3241 575.575 42.3339C575.911 42.7079 576.1 43.1754 576.137 43.7364C576.174 44.2972 575.931 44.8022 575.407 45.2509C574.995 45.5502 574.527 45.681 574.003 45.6437C573.518 45.6062 573.106 45.4192 572.768 45.0827C571.982 44.1477 570.99 43.4371 569.792 42.9509C568.633 42.4274 567.342 42.1656 565.919 42.1656C565.021 42.1656 564.141 42.2964 563.281 42.5583C562.421 42.82 561.691 43.2689 561.091 43.9046C560.53 44.503 560.249 45.3444 560.249 46.429C560.288 47.4387 560.624 48.2616 561.26 48.8973C561.897 49.5332 562.757 50.0567 563.842 50.468C564.927 50.842 566.125 51.216 567.436 51.59C568.633 51.8892 569.775 52.2445 570.86 52.6558C571.982 53.0298 572.993 53.5348 573.891 54.1705C574.789 54.8062 575.5 55.6291 576.024 56.6388C576.548 57.6111 576.81 58.8453 576.81 60.3413C576.81 62.0616 576.325 63.5576 575.35 64.829C574.378 66.0632 573.087 67.0168 571.477 67.69C569.905 68.3259 568.202 68.6438 566.368 68.6438C564.31 68.6438 562.27 68.251 560.249 67.4657C558.267 66.6803 556.545 65.3526 555.085 63.4827Z" fill="#C4C4C4"/>
</svg>
