<svg width="362" height="61" viewBox="0 0 362 61" fill="none" xmlns="http://www.w3.org/2000/svg">
<path d="M95.1726 23.1927C95.1726 35.6153 85.1021 45.6858 72.6796 45.6858C60.257 45.6858 50.1865 35.6153 50.1865 23.1927C50.1865 10.7702 60.257 0.699707 72.6796 0.699707C85.1021 0.699707 95.1726 10.7702 95.1726 23.1927ZM57.0762 23.1927C57.0762 31.8102 64.0621 38.7961 72.6796 38.7961C81.297 38.7961 88.2829 31.8102 88.2829 23.1927C88.2829 14.5753 81.297 7.5894 72.6796 7.5894C64.0621 7.5894 57.0762 14.5753 57.0762 23.1927Z" fill="#271303"/>
<path d="M45.3132 23.1925C45.3132 35.6151 35.2427 45.6855 22.8202 45.6855C10.3976 45.6855 0.327148 35.6151 0.327148 23.1925C0.327148 10.7699 10.3976 0.699463 22.8202 0.699463C35.2427 0.699463 45.3132 10.7699 45.3132 23.1925ZM7.21684 23.1925C7.21684 31.81 14.2027 38.7958 22.8202 38.7958C31.4377 38.7958 38.4235 31.81 38.4235 23.1925C38.4235 14.575 31.4377 7.58916 22.8202 7.58916C14.2027 7.58916 7.21684 14.575 7.21684 23.1925Z" fill="#E16A16"/>
<path d="M32.942 23.1927C32.942 28.7828 28.4103 33.3145 22.8201 33.3145C17.23 33.3145 12.6982 28.7828 12.6982 23.1927C12.6982 17.6025 17.23 13.0708 22.8201 13.0708C28.4103 13.0708 32.942 17.6025 32.942 23.1927ZM17.0728 23.1927C17.0728 26.3668 19.646 28.94 22.8201 28.94C25.9943 28.94 28.5674 26.3668 28.5674 23.1927C28.5674 20.0185 25.9943 17.4454 22.8201 17.4454C19.646 17.4454 17.0728 20.0185 17.0728 23.1927Z" fill="#271303"/>
<path d="M57.1007 48.3098C58.8725 48.3098 60.3495 49.7696 59.8951 51.4821C59.3403 53.5732 58.2415 55.5013 56.6853 57.0576C54.3653 59.3776 51.2186 60.681 47.9376 60.681C44.6565 60.681 41.5099 59.3776 39.1898 57.0576C37.6336 55.5013 36.5348 53.5732 35.98 51.4821C35.5256 49.7696 37.0027 48.3098 38.7744 48.3098C39.9556 48.3098 40.882 49.2888 41.2362 50.4157C41.5724 51.4854 42.163 52.4693 42.9705 53.2769C44.2879 54.5942 46.0746 55.3343 47.9376 55.3343C49.8006 55.3343 51.5873 54.5942 52.9046 53.2769C53.7122 52.4693 54.3028 51.4854 54.639 50.4157C54.9931 49.2888 55.9196 48.3098 57.1007 48.3098Z" fill="#271303"/>
<circle cx="72.68" cy="23.1927" r="10.1219" fill="#E16A16"/>
<path d="M103.992 17.9006C104.317 17.9006 104.655 17.9938 105.004 18.18C105.377 18.3429 105.656 18.5641 105.842 18.8434L114.327 31.9028L112.581 31.8329L121.276 18.8434C121.718 18.2149 122.289 17.9006 122.987 17.9006C123.546 17.9006 124.046 18.0985 124.488 18.4943C124.931 18.89 125.152 19.4021 125.152 20.0306V40.2482C125.152 40.8534 124.954 41.3656 124.558 41.7846C124.163 42.1803 123.639 42.3782 122.987 42.3782C122.335 42.3782 121.8 42.1803 121.381 41.7846C120.985 41.3656 120.787 40.8534 120.787 40.2482V23.8018L122.149 24.1161L115.026 34.9756C114.816 35.2316 114.548 35.4528 114.223 35.639C113.92 35.8252 113.606 35.9067 113.28 35.8834C112.977 35.9067 112.663 35.8252 112.337 35.639C112.034 35.4528 111.778 35.2316 111.569 34.9756L104.899 24.4303L105.807 22.5797V40.2482C105.807 40.8534 105.621 41.3656 105.249 41.7846C104.876 42.1803 104.387 42.3782 103.782 42.3782C103.2 42.3782 102.723 42.1803 102.35 41.7846C101.978 41.3656 101.792 40.8534 101.792 40.2482V20.0306C101.792 19.4487 102.001 18.9482 102.42 18.5292C102.863 18.1102 103.386 17.9006 103.992 17.9006ZM144.473 23.3479C145.078 23.3479 145.579 23.5457 145.975 23.9415C146.37 24.3372 146.568 24.8493 146.568 25.4779V40.2482C146.568 40.8534 146.37 41.3656 145.975 41.7846C145.579 42.1803 145.078 42.3782 144.473 42.3782C143.868 42.3782 143.368 42.1803 142.972 41.7846C142.576 41.3656 142.378 40.8534 142.378 40.2482V38.5372L143.146 38.8515C143.146 39.1541 142.983 39.5265 142.658 39.9688C142.332 40.3878 141.889 40.8069 141.331 41.2259C140.772 41.6449 140.108 42.0057 139.34 42.3083C138.595 42.5877 137.781 42.7274 136.896 42.7274C135.29 42.7274 133.835 42.32 132.531 41.5052C131.228 40.6672 130.192 39.5265 129.424 38.0833C128.679 36.6167 128.306 34.9406 128.306 33.0551C128.306 31.1462 128.679 29.4701 129.424 28.0269C130.192 26.5603 131.216 25.4197 132.496 24.6049C133.777 23.7669 135.197 23.3479 136.756 23.3479C137.757 23.3479 138.677 23.4992 139.515 23.8018C140.353 24.1044 141.075 24.4885 141.68 24.9541C142.308 25.4197 142.786 25.8969 143.111 26.3857C143.461 26.8513 143.635 27.247 143.635 27.5729L142.378 28.0269V25.4779C142.378 24.8726 142.576 24.3721 142.972 23.9764C143.368 23.5574 143.868 23.3479 144.473 23.3479ZM137.42 38.8864C138.444 38.8864 139.34 38.6303 140.108 38.1182C140.877 37.606 141.47 36.9077 141.889 36.0231C142.332 35.1385 142.553 34.1492 142.553 33.0551C142.553 31.9377 142.332 30.9367 141.889 30.0521C141.47 29.1675 140.877 28.4692 140.108 27.957C139.34 27.4449 138.444 27.1888 137.42 27.1888C136.419 27.1888 135.534 27.4449 134.766 27.957C133.998 28.4692 133.393 29.1675 132.95 30.0521C132.531 30.9367 132.322 31.9377 132.322 33.0551C132.322 34.1492 132.531 35.1385 132.95 36.0231C133.393 36.9077 133.998 37.606 134.766 38.1182C135.534 38.6303 136.419 38.8864 137.42 38.8864ZM152.327 42.3782C151.722 42.3782 151.222 42.1803 150.826 41.7846C150.43 41.3656 150.232 40.8534 150.232 40.2482V25.827C150.232 25.2218 150.43 24.7213 150.826 24.3256C151.222 23.9065 151.722 23.697 152.327 23.697C152.933 23.697 153.433 23.9065 153.829 24.3256C154.225 24.7213 154.422 25.2218 154.422 25.827V29.1093L154.178 26.7698C154.434 26.2111 154.76 25.7223 155.156 25.3033C155.575 24.861 156.04 24.5002 156.552 24.2208C157.065 23.9182 157.612 23.697 158.194 23.5574C158.776 23.4177 159.358 23.3479 159.939 23.3479C160.638 23.3479 161.22 23.5457 161.685 23.9415C162.174 24.3372 162.419 24.8028 162.419 25.3382C162.419 26.1064 162.221 26.6651 161.825 27.0142C161.429 27.3401 160.999 27.5031 160.533 27.5031C160.091 27.5031 159.683 27.4216 159.311 27.2587C158.962 27.0957 158.554 27.0142 158.089 27.0142C157.67 27.0142 157.239 27.119 156.797 27.3285C156.378 27.5147 155.982 27.8174 155.61 28.2364C155.26 28.6554 154.969 29.1792 154.737 29.8077C154.527 30.4129 154.422 31.1346 154.422 31.9726V40.2482C154.422 40.8534 154.225 41.3656 153.829 41.7846C153.433 42.1803 152.933 42.3782 152.327 42.3782ZM166.944 42.3782C166.339 42.3782 165.838 42.1803 165.442 41.7846C165.047 41.3656 164.849 40.8534 164.849 40.2482V18.6688C164.849 18.0636 165.047 17.5631 165.442 17.1674C165.838 16.7484 166.339 16.5388 166.944 16.5388C167.549 16.5388 168.05 16.7484 168.445 17.1674C168.841 17.5631 169.039 18.0636 169.039 18.6688V40.2482C169.039 40.8534 168.841 41.3656 168.445 41.7846C168.05 42.1803 167.549 42.3782 166.944 42.3782ZM178.048 23.697C178.583 23.697 179.049 23.9182 179.444 24.3605C179.84 24.8028 180.038 25.2334 180.038 25.6524C180.038 26.2111 179.759 26.7349 179.2 27.2238L168.69 36.896L168.515 32.0774L176.511 24.3605C176.954 23.9182 177.466 23.697 178.048 23.697ZM178.571 42.3433C177.966 42.3433 177.454 42.1105 177.035 41.6449L170.575 34.801L173.753 31.8679L180.038 38.7118C180.48 39.1774 180.701 39.7011 180.701 40.2831C180.701 40.8883 180.457 41.3888 179.968 41.7846C179.503 42.157 179.037 42.3433 178.571 42.3433ZM191.522 42.7274C189.543 42.7274 187.82 42.32 186.354 41.5052C184.911 40.6672 183.793 39.5382 183.002 38.1182C182.234 36.6982 181.849 35.0919 181.849 33.2995C181.849 31.2044 182.268 29.4236 183.106 27.957C183.968 26.4672 185.085 25.3265 186.459 24.5351C187.832 23.7436 189.287 23.3479 190.823 23.3479C192.011 23.3479 193.128 23.5923 194.175 24.0811C195.246 24.57 196.189 25.2451 197.004 26.1064C197.819 26.9444 198.459 27.9221 198.924 29.0395C199.413 30.1569 199.658 31.3441 199.658 32.6011C199.634 33.1598 199.413 33.6138 198.994 33.9629C198.575 34.3121 198.086 34.4867 197.528 34.4867H184.189L183.141 30.9949H195.956L195.188 31.6933V30.7505C195.142 30.0754 194.897 29.4701 194.455 28.9347C194.036 28.3993 193.5 27.9803 192.849 27.6777C192.22 27.3518 191.545 27.1888 190.823 27.1888C190.125 27.1888 189.473 27.282 188.868 27.4682C188.263 27.6544 187.739 27.9687 187.297 28.411C186.854 28.8533 186.505 29.4469 186.249 30.1918C185.993 30.9367 185.865 31.8795 185.865 33.0201C185.865 34.2772 186.121 35.348 186.633 36.2326C187.169 37.0939 187.844 37.7574 188.658 38.2229C189.496 38.6652 190.381 38.8864 191.312 38.8864C192.174 38.8864 192.86 38.8165 193.372 38.6769C193.885 38.5372 194.292 38.3742 194.595 38.188C194.92 37.9785 195.211 37.8039 195.467 37.6642C195.886 37.4547 196.282 37.35 196.655 37.35C197.167 37.35 197.586 37.5246 197.912 37.8738C198.261 38.2229 198.435 38.6303 198.435 39.0959C198.435 39.7244 198.11 40.2947 197.458 40.8069C196.853 41.319 196.003 41.7729 194.909 42.1687C193.815 42.5411 192.686 42.7274 191.522 42.7274ZM202.655 24.0462H210.931C211.489 24.0462 211.955 24.2324 212.327 24.6049C212.7 24.9774 212.886 25.4429 212.886 26.0016C212.886 26.537 212.7 26.991 212.327 27.3634C211.955 27.7126 211.489 27.8872 210.931 27.8872H202.655C202.096 27.8872 201.631 27.701 201.258 27.3285C200.886 26.9561 200.7 26.4905 200.7 25.9318C200.7 25.3964 200.886 24.9541 201.258 24.6049C201.631 24.2324 202.096 24.0462 202.655 24.0462ZM206.391 19.6815C206.997 19.6815 207.485 19.891 207.858 20.31C208.254 20.7057 208.451 21.2062 208.451 21.8115V37.35C208.451 37.6759 208.51 37.9436 208.626 38.1531C208.766 38.3626 208.94 38.5139 209.15 38.607C209.383 38.7001 209.627 38.7467 209.883 38.7467C210.162 38.7467 210.419 38.7001 210.651 38.607C210.884 38.4906 211.152 38.4324 211.454 38.4324C211.78 38.4324 212.071 38.5837 212.327 38.8864C212.607 39.189 212.746 39.608 212.746 40.1434C212.746 40.7952 212.386 41.3306 211.664 41.7496C210.966 42.1687 210.209 42.3782 209.394 42.3782C208.905 42.3782 208.358 42.3433 207.753 42.2734C207.171 42.1803 206.612 41.9824 206.077 41.6798C205.565 41.3539 205.134 40.8651 204.785 40.2133C204.436 39.5615 204.261 38.6652 204.261 37.5246V21.8115C204.261 21.2062 204.459 20.7057 204.855 20.31C205.274 19.891 205.786 19.6815 206.391 19.6815ZM227.174 42.3782C226.592 42.3782 226.103 42.1803 225.707 41.7846C225.312 41.3656 225.114 40.8534 225.114 40.2482V23.8367L225.847 24.0113L219.108 32.3567L218.933 31.9028H231.294C231.853 31.9028 232.318 32.089 232.691 32.4615C233.063 32.8339 233.25 33.2995 233.25 33.8582C233.25 34.3936 233.063 34.8475 232.691 35.22C232.318 35.5692 231.853 35.7438 231.294 35.7438H216.035C215.546 35.7438 215.069 35.5459 214.603 35.1501C214.161 34.7544 213.94 34.2656 213.94 33.6836C213.94 33.1715 214.114 32.7059 214.464 32.2869L225.498 18.7736C225.684 18.5175 225.928 18.3197 226.231 18.18C226.534 18.017 226.871 17.9356 227.244 17.9356C227.849 17.9356 228.338 18.1451 228.71 18.5641C229.106 18.9598 229.304 19.4603 229.304 20.0656V40.2482C229.304 40.8534 229.094 41.3656 228.675 41.7846C228.28 42.1803 227.779 42.3782 227.174 42.3782Z" fill="#E16A16"/>
<path d="M258.352 30.1569C258.352 31.9493 258.061 33.6138 257.479 35.1501C256.897 36.6633 256.082 37.9901 255.035 39.1308C253.987 40.2715 252.742 41.156 251.298 41.7846C249.855 42.4131 248.284 42.7274 246.584 42.7274C244.862 42.7274 243.279 42.4131 241.836 41.7846C240.416 41.156 239.182 40.2715 238.134 39.1308C237.087 37.9901 236.272 36.6633 235.69 35.1501C235.108 33.6138 234.817 31.9493 234.817 30.1569C234.817 28.3411 235.108 26.6767 235.69 25.1636C236.272 23.6272 237.087 22.3003 238.134 21.1829C239.182 20.0423 240.416 19.1577 241.836 18.5292C243.279 17.9006 244.862 17.5864 246.584 17.5864C248.284 17.5864 249.855 17.9006 251.298 18.5292C252.742 19.1577 253.987 20.0423 255.035 21.1829C256.082 22.3003 256.897 23.6272 257.479 25.1636C258.061 26.6767 258.352 28.3411 258.352 30.1569ZM255.349 30.1569C255.349 28.248 254.965 26.5603 254.197 25.0938C253.452 23.6272 252.427 22.4749 251.124 21.6369C249.82 20.7988 248.307 20.3798 246.584 20.3798C244.862 20.3798 243.337 20.7988 242.01 21.6369C240.707 22.4749 239.682 23.6272 238.937 25.0938C238.192 26.5603 237.82 28.248 237.82 30.1569C237.82 32.0424 238.192 33.7301 238.937 35.22C239.682 36.6865 240.707 37.8388 242.01 38.6769C243.337 39.5149 244.862 39.9339 246.584 39.9339C248.307 39.9339 249.82 39.5149 251.124 38.6769C252.427 37.8388 253.452 36.6865 254.197 35.22C254.965 33.7301 255.349 32.0424 255.349 30.1569ZM270.527 24.0462C272.11 24.0462 273.53 24.442 274.787 25.2334C276.044 26.0249 277.033 27.119 277.755 28.5157C278.5 29.9124 278.872 31.5187 278.872 33.3344C278.872 35.1269 278.5 36.7331 277.755 38.1531C277.033 39.5498 276.044 40.6556 274.787 41.4703C273.553 42.2618 272.156 42.6575 270.597 42.6575C269.735 42.6575 268.92 42.5295 268.152 42.2734C267.407 41.9941 266.721 41.6449 266.092 41.2259C265.487 40.7836 264.975 40.2947 264.556 39.7593C264.137 39.2006 263.834 38.6536 263.648 38.1182L264.416 37.6293V47.9301C264.416 48.3259 264.288 48.6634 264.032 48.9428C263.776 49.2221 263.438 49.3618 263.019 49.3618C262.624 49.3618 262.286 49.2221 262.007 48.9428C261.751 48.6867 261.623 48.3492 261.623 47.9301V25.6175C261.623 25.2218 261.751 24.8959 262.007 24.6398C262.286 24.3605 262.624 24.2208 263.019 24.2208C263.438 24.2208 263.776 24.3605 264.032 24.6398C264.288 24.8959 264.416 25.2218 264.416 25.6175V28.7252L263.892 28.4459C264.055 27.8639 264.335 27.3052 264.73 26.7698C265.149 26.2344 265.65 25.7688 266.232 25.3731C266.837 24.9541 267.5 24.6282 268.222 24.3954C268.967 24.1626 269.735 24.0462 270.527 24.0462ZM270.212 26.6301C269.049 26.6301 268.013 26.9211 267.105 27.5031C266.22 28.0851 265.522 28.8765 265.01 29.8775C264.521 30.8785 264.276 32.0308 264.276 33.3344C264.276 34.6147 264.521 35.767 265.01 36.7913C265.522 37.8156 266.22 38.6187 267.105 39.2006C268.013 39.7826 269.049 40.0736 270.212 40.0736C271.376 40.0736 272.401 39.7826 273.285 39.2006C274.17 38.6187 274.868 37.8156 275.38 36.7913C275.892 35.767 276.149 34.6147 276.149 33.3344C276.149 32.0308 275.892 30.8785 275.38 29.8775C274.868 28.8765 274.17 28.0851 273.285 27.5031C272.401 26.9211 271.376 26.6301 270.212 26.6301ZM281.5 24.4303H289.706C290.078 24.4303 290.381 24.5583 290.614 24.8144C290.87 25.0705 290.998 25.3731 290.998 25.7223C290.998 26.0947 290.87 26.409 290.614 26.6651C290.381 26.8979 290.078 27.0142 289.706 27.0142H281.5C281.151 27.0142 280.848 26.8862 280.592 26.6301C280.336 26.3741 280.208 26.0598 280.208 25.6874C280.208 25.3382 280.336 25.0472 280.592 24.8144C280.848 24.5583 281.151 24.4303 281.5 24.4303ZM285.166 19.6815C285.562 19.6815 285.888 19.8211 286.144 20.1005C286.4 20.3565 286.528 20.6824 286.528 21.0782V37.9436C286.528 38.5023 286.61 38.9213 286.773 39.2006C286.936 39.48 287.145 39.6778 287.401 39.7942C287.68 39.8874 287.948 39.9339 288.204 39.9339C288.437 39.9339 288.635 39.899 288.798 39.8292C288.984 39.736 289.194 39.6895 289.426 39.6895C289.659 39.6895 289.869 39.8059 290.055 40.0387C290.264 40.2482 290.369 40.5275 290.369 40.8767C290.369 41.2957 290.125 41.6565 289.636 41.9592C289.147 42.2385 288.6 42.3782 287.995 42.3782C287.669 42.3782 287.261 42.3549 286.773 42.3083C286.307 42.2618 285.841 42.1105 285.376 41.8544C284.91 41.5983 284.515 41.1793 284.189 40.5974C283.886 39.9921 283.735 39.1541 283.735 38.0833V21.0782C283.735 20.6824 283.874 20.3565 284.154 20.1005C284.433 19.8211 284.771 19.6815 285.166 19.6815ZM296.699 40.9465C296.699 41.3423 296.559 41.6798 296.28 41.9592C296.024 42.2385 295.698 42.3782 295.302 42.3782C294.883 42.3782 294.546 42.2385 294.29 41.9592C294.034 41.6798 293.906 41.3423 293.906 40.9465V25.4429C293.906 25.0472 294.034 24.7213 294.29 24.4652C294.569 24.1859 294.907 24.0462 295.302 24.0462C295.698 24.0462 296.024 24.1859 296.28 24.4652C296.559 24.7213 296.699 25.0472 296.699 25.4429V40.9465ZM295.302 21.7067C294.72 21.7067 294.29 21.5903 294.01 21.3575C293.731 21.1247 293.591 20.7639 293.591 20.2751V19.7862C293.591 19.2974 293.743 18.9365 294.045 18.7038C294.348 18.471 294.779 18.3546 295.337 18.3546C295.896 18.3546 296.315 18.471 296.594 18.7038C296.874 18.9365 297.013 19.2974 297.013 19.7862V20.2751C297.013 20.7639 296.862 21.1247 296.559 21.3575C296.28 21.5903 295.861 21.7067 295.302 21.7067ZM308.875 23.8716C310.062 23.8716 311.133 23.9997 312.088 24.2557C313.042 24.5118 313.799 24.861 314.357 25.3033C314.916 25.7456 315.195 26.2461 315.195 26.8047C315.195 27.1074 315.091 27.3983 314.881 27.6777C314.672 27.957 314.392 28.0967 314.043 28.0967C313.717 28.0967 313.449 28.0385 313.24 27.9221C313.054 27.8057 312.867 27.6544 312.681 27.4682C312.518 27.282 312.285 27.119 311.983 26.9793C311.704 26.8164 311.296 26.6883 310.761 26.5952C310.225 26.5021 309.69 26.4556 309.154 26.4556C307.874 26.4556 306.745 26.7582 305.767 27.3634C304.813 27.9687 304.056 28.7834 303.498 29.8077C302.939 30.832 302.66 31.9959 302.66 33.2995C302.66 34.6031 302.927 35.767 303.463 36.7913C303.998 37.8156 304.743 38.6303 305.698 39.2356C306.652 39.8408 307.758 40.1434 309.015 40.1434C309.83 40.1434 310.481 40.0736 310.97 39.9339C311.459 39.7942 311.866 39.6313 312.192 39.4451C312.611 39.2123 312.926 38.9795 313.135 38.7467C313.368 38.5139 313.671 38.3975 314.043 38.3975C314.439 38.3975 314.741 38.5256 314.951 38.7816C315.184 39.0377 315.3 39.3519 315.3 39.7244C315.3 40.1434 315.009 40.5857 314.427 41.0513C313.845 41.5169 313.054 41.9126 312.053 42.2385C311.075 42.5644 309.958 42.7274 308.701 42.7274C306.931 42.7274 305.383 42.32 304.056 41.5052C302.73 40.6672 301.694 39.5382 300.949 38.1182C300.227 36.6749 299.866 35.0687 299.866 33.2995C299.866 31.5303 300.239 29.9357 300.984 28.5157C301.752 27.0957 302.811 25.9667 304.161 25.1287C305.511 24.2906 307.083 23.8716 308.875 23.8716ZM332.953 24.151C333.349 24.151 333.675 24.2906 333.931 24.57C334.21 24.8261 334.35 25.152 334.35 25.5477V40.9465C334.35 41.3423 334.21 41.6798 333.931 41.9592C333.675 42.2385 333.349 42.3782 332.953 42.3782C332.534 42.3782 332.196 42.2385 331.94 41.9592C331.684 41.6798 331.556 41.3423 331.556 40.9465V37.6293L332.22 37.5595C332.22 38.0716 332.045 38.6303 331.696 39.2356C331.347 39.8408 330.87 40.4111 330.264 40.9465C329.659 41.4587 328.937 41.8893 328.099 42.2385C327.285 42.5644 326.4 42.7274 325.446 42.7274C323.863 42.7274 322.443 42.32 321.186 41.5052C319.929 40.6672 318.928 39.5382 318.183 38.1182C317.461 36.6982 317.1 35.0803 317.1 33.2646C317.1 31.4256 317.461 29.8077 318.183 28.411C318.928 26.991 319.929 25.8852 321.186 25.0938C322.443 24.279 323.839 23.8716 325.376 23.8716C326.377 23.8716 327.308 24.0346 328.169 24.3605C329.031 24.6864 329.775 25.1287 330.404 25.6874C331.056 26.2461 331.556 26.8629 331.905 27.538C332.278 28.2131 332.464 28.8882 332.464 29.5633L331.556 29.3538V25.5477C331.556 25.152 331.684 24.8261 331.94 24.57C332.196 24.2906 332.534 24.151 332.953 24.151ZM325.76 40.1434C326.924 40.1434 327.948 39.8408 328.833 39.2356C329.741 38.6303 330.439 37.8156 330.928 36.7913C331.44 35.7438 331.696 34.5682 331.696 33.2646C331.696 31.9842 331.44 30.832 330.928 29.8077C330.439 28.7601 329.741 27.9454 328.833 27.3634C327.948 26.7582 326.924 26.4556 325.76 26.4556C324.619 26.4556 323.595 26.7465 322.687 27.3285C321.803 27.9105 321.104 28.7136 320.592 29.7379C320.08 30.7621 319.824 31.9377 319.824 33.2646C319.824 34.5682 320.068 35.7438 320.557 36.7913C321.069 37.8156 321.768 38.6303 322.652 39.2356C323.56 39.8408 324.596 40.1434 325.76 40.1434ZM341.726 40.9465C341.726 41.3423 341.587 41.6798 341.307 41.9592C341.028 42.2385 340.691 42.3782 340.295 42.3782C339.899 42.3782 339.573 42.2385 339.317 41.9592C339.061 41.6798 338.933 41.3423 338.933 40.9465V17.9356C338.933 17.5398 339.061 17.2139 339.317 16.9579C339.596 16.6785 339.934 16.5388 340.33 16.5388C340.749 16.5388 341.086 16.6785 341.342 16.9579C341.598 17.2139 341.726 17.5398 341.726 17.9356V40.9465ZM345.259 39.5149C345.049 39.2123 344.956 38.898 344.98 38.5721C345.003 38.2229 345.201 37.9203 345.573 37.6642C345.806 37.5013 346.074 37.4315 346.376 37.4547C346.702 37.478 346.993 37.6293 347.249 37.9087C347.901 38.6769 348.646 39.2937 349.484 39.7593C350.322 40.2016 351.346 40.4228 352.557 40.4228C353.115 40.3995 353.674 40.3064 354.233 40.1434C354.792 39.9805 355.257 39.7011 355.63 39.3054C356.025 38.8864 356.223 38.3393 356.223 37.6642C356.223 37.0124 356.025 36.5003 355.63 36.1278C355.234 35.7321 354.722 35.4178 354.093 35.1851C353.465 34.929 352.778 34.7079 352.033 34.5216C351.265 34.3121 350.508 34.0793 349.763 33.8233C349.018 33.5439 348.343 33.2064 347.738 32.8106C347.156 32.3916 346.679 31.8795 346.306 31.2742C345.957 30.6457 345.783 29.8892 345.783 29.0046C345.783 27.957 346.062 27.0492 346.621 26.281C347.203 25.5128 347.971 24.9192 348.925 24.5002C349.903 24.0811 350.962 23.8716 352.103 23.8716C352.755 23.8716 353.43 23.9531 354.128 24.1161C354.85 24.2557 355.548 24.5118 356.223 24.8842C356.898 25.2334 357.492 25.7223 358.004 26.3508C358.213 26.5836 358.33 26.8746 358.353 27.2238C358.376 27.5729 358.225 27.8872 357.899 28.1665C357.643 28.3528 357.352 28.4342 357.026 28.411C356.724 28.3877 356.468 28.2713 356.258 28.0618C355.769 27.4798 355.152 27.0375 354.407 26.7349C353.686 26.409 352.883 26.2461 351.998 26.2461C351.439 26.2461 350.892 26.3275 350.357 26.4905C349.822 26.6534 349.368 26.9328 348.995 27.3285C348.646 27.701 348.471 28.2247 348.471 28.8998C348.495 29.5283 348.704 30.0405 349.1 30.4362C349.496 30.832 350.031 31.1579 350.706 31.4139C351.381 31.6467 352.126 31.8795 352.941 32.1123C353.686 32.2985 354.396 32.5197 355.071 32.7757C355.769 33.0085 356.398 33.3228 356.956 33.7185C357.515 34.1142 357.957 34.6264 358.283 35.2549C358.609 35.8601 358.772 36.6283 358.772 37.5595C358.772 38.6303 358.47 39.5615 357.864 40.3529C357.259 41.1211 356.456 41.7147 355.455 42.1337C354.477 42.5295 353.418 42.7274 352.277 42.7274C350.997 42.7274 349.728 42.4829 348.471 41.9941C347.238 41.5052 346.167 40.6788 345.259 39.5149Z" fill="#271303"/>
</svg>
