<svg width="721" height="555" viewBox="0 0 721 555" fill="none" xmlns="http://www.w3.org/2000/svg">
<path d="M715.577 55.8939C714.44 55.4568 714.538 54.9172 716.177 52.6113C718.388 49.4975 718.561 49.9585 711.791 40.8981C706.576 33.9194 704.945 32.8253 701.175 33.7738C694.678 35.4082 695.122 40.7961 702.03 44.1601C704.258 45.2452 706.081 46.538 706.081 47.0331C706.081 48.5022 702.816 49.8812 701.785 48.8475C700.256 47.3142 674.695 41.3441 673.744 42.2978C672.799 43.2449 677.143 44.713 678.465 43.8935C679.561 43.2147 681.563 45.8783 680.84 47.0521C680.508 47.5889 679.836 47.7796 679.346 47.4758C678.856 47.172 675.564 47.412 672.032 48.0093C667.038 48.8536 665.313 48.8475 664.272 47.9819C662.406 46.4294 657.402 47.5306 650.974 50.9081C646.589 53.2115 645.332 53.5162 643.738 52.6608C642.676 52.0915 641.907 51.1202 642.029 50.5023C642.151 49.8772 641.073 49.2445 639.597 49.0755C636.831 48.7589 636.857 48.6251 638.759 53.284C639.261 54.5157 638.818 54.7382 632.758 56.2946C629.927 57.0219 628.923 57.6951 629.28 58.6275C630.042 60.6185 626.769 61.9881 623.88 60.8871C620.263 59.5083 618.933 59.847 621.814 61.4136C624.928 63.1074 624.949 63.4622 621.997 64.5872C618.924 65.7582 612.969 62.8201 611.11 59.2159C610.38 57.8004 608.655 56.1276 607.278 55.4983C605.423 54.6513 605.041 54.0857 605.805 53.3193C606.57 52.5529 608.215 52.5795 612.145 53.4217C615.063 54.0473 619.014 54.7849 620.924 55.0607C625.095 55.6629 629.944 53.9174 629.236 52.0683C628.532 50.2284 611.628 44.9766 608.457 45.6123C606.684 45.9676 604.832 45.4654 602.485 43.9932C597.807 41.0594 592.138 39.9075 583.469 40.1298C578.507 40.2571 574.63 40.9344 571.529 42.2157C569.003 43.2593 564.973 44.8144 562.574 45.6714C560.175 46.5285 558.211 47.6401 558.211 48.1416C558.211 48.6431 556.517 50.5767 554.445 52.4384C552.373 54.3003 550.139 56.8672 549.48 58.1429C547.997 61.0106 539.297 67.1226 535.007 68.3097C530.733 69.4927 526.62 73.3599 527.444 75.422C527.789 76.2889 528.165 78.1816 528.277 79.6276C528.502 82.5374 531.876 85.6936 534.791 85.7201C535.801 85.7295 538.062 84.8611 539.815 83.7901L543 81.8429L545.514 84.8603C546.896 86.5199 548.275 89.0119 548.578 90.3979C548.883 91.7846 549.969 93.678 550.992 94.6064C552.8 96.2472 552.949 96.2394 556.221 94.346C558.542 93.0029 560.031 91.2163 561.009 88.598C561.79 86.509 563.444 84.1035 564.683 83.2538C568.713 80.4897 569.271 78.8076 566.453 77.9111C565.429 77.5853 563.955 76.3462 563.179 75.1573C561.913 73.2211 561.911 72.7138 563.16 70.2932C563.927 68.807 565.78 67.0819 567.277 66.4599C568.776 65.8379 571.843 63.2938 574.094 60.8064C578.355 56.099 580.186 55.3647 582.052 57.6171C583.311 59.1382 582.502 61.1065 578.081 67.2831C574.646 72.0818 575.237 74.7301 580.244 76.9938C583.469 78.4513 584.573 78.5277 588.779 77.5838C593.523 76.5197 599.122 76.9544 600.049 78.4591C601.109 80.1771 595.03 82.0869 590.152 81.5693C587.487 81.2864 584.697 81.4664 583.952 81.97C582.804 82.7464 582.936 83.2452 584.819 85.2548C586.775 87.3422 586.879 87.7842 585.684 88.9815C584.557 90.1118 583.827 90.1492 581.332 89.2052C577.665 87.8177 576.272 89.2559 577.033 93.6452C577.545 96.6073 576.402 98.2209 572.27 100.361C570.815 101.114 569.655 101.129 568.089 100.414C566.386 99.6357 564.87 99.8235 561.023 101.289C556.632 102.961 555.861 103.018 553.577 101.834C551.554 100.785 550.412 100.728 548.036 101.559C545.26 102.528 544.889 102.412 542.942 99.9646C541.787 98.5124 541.053 97.1124 541.311 96.8544C541.568 96.5964 542.119 96.9347 542.533 97.6074C543.085 98.5038 543.462 98.5459 543.942 97.7664C544.409 97.0103 544.938 96.9854 545.772 97.6791C547.283 98.9357 549.471 96.5185 548.684 94.4622C548.225 93.2625 547.798 93.2157 546.056 94.1753C544.912 94.8051 543.248 95.4428 542.358 95.5916C540.955 95.827 540.821 95.3625 541.345 92.0746L541.949 88.2862L539.595 89.8327C538.3 90.6832 537 92.0083 536.706 92.7777C536.084 94.4014 537.017 98.8593 538.133 99.599C539.929 100.79 536.104 103.926 532.299 104.381C529.229 104.748 527.351 105.797 523.77 109.14C521.244 111.498 518.269 113.66 517.16 113.943C516.049 114.227 514.495 115.447 513.707 116.654C512.074 119.152 507.158 121.992 505.859 121.188C505.383 120.893 503.885 121.38 502.532 122.269C501.178 123.158 498.618 123.901 496.844 123.918C492.187 123.965 492.288 125.729 497.051 127.552C500.29 128.792 501.375 129.772 502.164 132.169C503.374 135.844 502.479 142.398 500.497 144.386C499.054 145.832 492.898 145.742 482.374 144.122C477.818 143.42 475.093 145.47 475.963 148.946C476.262 150.141 475.895 153.768 475.146 157.003C473.395 164.573 473.791 169.885 476.132 170.248C480.588 170.94 481.86 171.493 484.068 173.707C486.422 176.067 486.452 176.071 487.459 174.186C488.227 172.747 489.375 172.285 492.177 172.285C494.212 172.285 496.781 171.819 497.884 171.251C501.35 169.467 504.941 165.572 504.945 163.596C504.949 161.53 508.155 155.713 509.291 155.712C509.677 155.711 511.194 154.675 512.662 153.41C514.129 152.145 515.894 151.11 516.583 151.11C517.448 151.11 517.663 150.423 517.278 148.883C516.539 145.936 519.454 144.317 524.085 145.101C527.572 145.691 530.905 144.67 535.351 141.649C538.301 139.643 540.385 140.344 542.256 143.973C544.008 147.369 550.696 153.871 552.436 153.871C557.185 153.871 562.911 160.125 562.149 164.478L561.669 167.221L563.779 165.188C565.595 163.439 565.743 162.835 564.84 160.849C563.555 158.02 564.578 157.192 568.337 158.019C572.552 158.947 571.604 157.851 565.537 154.781C559.815 151.886 548.109 141.072 548.109 138.681C548.109 137.957 548.911 136.934 549.891 136.408C551.298 135.654 551.93 135.819 552.891 137.195C553.561 138.153 555.597 139.561 557.418 140.323C559.238 141.085 561.305 142.535 562.011 143.546C562.717 144.556 565.052 145.911 567.201 146.557C571.334 147.798 574.744 151.862 574.744 155.548C574.744 160.272 577.778 163.277 583.469 164.189C585.963 164.589 585.797 166.23 583.226 166.596C581.189 166.886 581.178 166.946 582.718 169.559C584.927 173.308 586.381 173.541 587.945 170.399C589.193 167.891 589.131 167.376 587.131 163.604C585.284 160.122 585.157 159.362 586.272 158.435C586.991 157.837 588.204 157.589 588.967 157.883C589.732 158.176 590.357 158.03 590.357 157.558C590.357 155.949 593.757 154.843 596.439 155.577C597.893 155.975 600.92 155.921 603.165 155.457L607.25 154.613L605.023 152.93C602.878 151.308 602.84 151.085 603.98 146.805C606.407 137.687 614.754 128.44 617.384 131.955C617.926 132.679 619.14 133.561 620.081 133.915C621.44 134.428 621.569 134.828 620.707 135.868C619.84 136.917 620.079 137.475 621.91 138.678C624.051 140.084 624.419 140.062 627.712 138.32C630.424 136.885 630.781 136.451 629.274 136.42C628.199 136.397 626.816 135.771 626.2 135.026C625.259 133.891 625.889 133.314 630.129 131.435C637.433 128.197 638.914 127.812 638.703 129.207C638.605 129.861 638.184 130.941 637.769 131.607C637.353 132.274 637.245 133.052 637.528 133.335C637.811 133.618 637.464 134.972 636.756 136.344L635.47 138.837L642.336 142.753C646.111 144.906 649.835 147.638 650.61 148.824C651.883 150.77 651.875 151.202 650.534 153.252C647.957 157.194 641.555 157.407 634.346 153.79C629 151.108 622.109 150.551 619.074 152.556C617.676 153.479 615.048 154.313 613.233 154.41C611.055 154.526 609.111 155.411 607.512 157.013C605.813 158.716 604.468 159.293 603.005 158.948C601.857 158.678 600.299 158.863 599.542 159.361C598.369 160.13 598.471 160.481 600.231 161.723C601.367 162.526 602.297 163.968 602.297 164.928C602.297 167.431 604.007 170.841 605.837 171.987C608.383 173.581 613.08 174.337 613.744 173.259C614.638 171.809 617.737 172.077 620.757 173.865C623.086 175.245 623.809 175.29 626.41 174.221C631.891 171.966 634.182 171.917 635.311 174.033C635.988 175.3 636.018 175.967 635.4 175.967C634.881 175.967 634.433 177.52 634.405 179.419C634.319 185.262 634.008 187.935 633.415 187.935C633.101 187.935 632.611 189.389 632.323 191.167C631.456 196.518 628.206 198.048 621.86 196.093C619.917 195.495 617.783 195.503 615.564 196.118C610.95 197.394 597.935 194.937 591.072 191.493C584.773 188.331 580.738 188.07 579.317 190.732C578.766 191.763 578.549 193.345 578.834 194.246C579.16 195.274 578.53 196.659 577.142 197.966C575.076 199.911 574.756 199.957 572.28 198.674C570.821 197.917 568.089 197.01 566.207 196.656C563.787 196.201 562.322 195.228 561.206 193.333C559.682 190.747 557.583 189.788 550.201 188.309C548.629 187.994 546.261 186.603 544.938 185.219C542.847 183.031 542.659 182.369 543.504 180.143C544.176 178.372 544.181 177.23 543.52 176.432C542.996 175.798 542.812 174.637 543.112 173.853C544.113 171.241 540.419 170.227 536.147 171.94C533.246 173.104 530.552 173.343 524.567 172.969C515.493 172.401 510.593 173.463 502.662 177.714C498.053 180.185 496.573 180.56 493.478 180.039C491.448 179.698 488.972 178.849 487.976 178.153C485.437 176.379 485.128 176.495 482.948 180.03C481.882 181.759 478.992 184.471 476.527 186.057C471.937 189.009 469.123 193.714 469.123 198.434C469.123 200.524 462.864 207.268 460.924 207.268C459.171 207.268 452.695 214.919 449.79 220.422C448.129 223.567 445.79 227.445 444.591 229.04C441.409 233.272 440.451 237.343 441.942 240.291C445.066 246.465 444.165 256.264 440.056 260.816C438.71 262.306 438.747 262.702 440.509 265.694C441.76 267.821 442.038 268.957 441.308 268.965C440.605 268.975 440.702 269.31 441.569 269.872C442.746 270.635 442.713 270.767 441.339 270.778C439.094 270.799 439.325 272.7 441.647 273.308C443.109 273.691 443.271 273.998 442.336 274.603C441.405 275.205 441.592 275.529 443.112 275.946C445.503 276.604 452.529 285.735 453.659 289.653C455.118 294.716 465.382 303.989 471.355 305.642C474.218 306.434 476.139 306.278 481.437 304.82C486.565 303.41 488.676 303.222 491.181 303.95C493.826 304.72 495.651 304.461 501.727 302.454C505.768 301.119 509.901 299.69 510.911 299.277C515.36 297.461 516.91 297.468 520.533 299.321C523.321 300.747 524.431 301.954 524.84 304.007C525.375 306.683 525.519 306.754 529.298 306.186C539.003 304.728 542.976 312.123 539.299 324.804C537.493 331.033 538.249 333.287 544.071 339.011C547.096 341.987 548.571 344.406 549.63 348.126C550.422 350.911 551.866 354.506 552.838 356.116C553.996 358.031 554.405 359.843 554.024 361.365C553.698 362.665 554.118 365.726 554.975 368.313L556.507 372.937L553.78 378.254C549.68 386.246 547.885 392.843 548.603 397.275C548.94 399.359 550.8 403.967 552.737 407.516C556.677 414.735 559.608 424.694 560.501 433.896C561.007 439.112 561.637 440.758 564.705 444.88C566.69 447.547 568.314 450.18 568.314 450.73C568.314 451.28 569.33 453.228 570.57 455.059C572.317 457.636 572.707 459.122 572.298 461.649C571.863 464.335 572.188 465.332 574.133 467.281C576.928 470.083 576.163 470.008 583.379 468.191C587.835 467.068 589.98 466.952 592.638 467.688C595.652 468.522 596.701 468.339 600.804 466.265C605.721 463.779 616.543 453.291 620.308 447.365C621.5 445.488 623.282 443.519 624.268 442.99C625.696 442.224 625.956 441.384 625.547 438.858C624.767 434.037 625.802 431.363 628.957 430.052C636.441 426.945 638.539 422.5 635.417 416.365C634.376 414.318 633.524 412.228 633.524 411.718C633.524 411.208 635.384 408.692 637.657 406.127C639.93 403.561 641.79 401.068 641.79 400.588C641.79 400.107 643.959 398.623 646.612 397.291C652.682 394.242 654.41 392.708 656.581 388.444C658.086 385.488 658.185 384.401 657.315 380.337C656.763 377.756 656.564 374.633 656.874 373.396C657.246 371.909 656.633 369.557 655.062 366.45C648.878 354.216 650.146 345.089 659.469 334.712C662.665 331.156 666.177 326.981 667.275 325.436C668.373 323.891 672.49 320.078 676.425 316.965C683.415 311.433 683.744 310.986 690.774 297.471C697.312 284.9 697.913 283.306 697.355 279.994L696.741 276.35L694.153 277.691C692.73 278.429 687.615 279.891 682.787 280.939C674.692 282.697 673.79 282.733 671.229 281.406C669.548 280.534 668.223 278.972 667.873 277.451C666.942 273.4 663.188 268.539 657.396 263.882C653.585 260.818 651.812 258.688 651.378 256.65C651.04 255.061 649.428 252.104 647.797 250.078C643.741 245.043 642.708 242.877 642.708 239.408C642.708 237.729 641.779 235.207 640.565 233.594C639.386 232.027 636.771 227.431 634.755 223.38C632.737 219.329 629.347 213.151 627.22 209.65C622.725 202.253 623.329 199.499 628.117 205.558L631.223 209.491L631.685 206.821C632.335 203.06 633.743 203.886 635.409 209.007C636.665 212.87 639.161 216.57 647.59 227.063C648.81 228.581 650.48 232.152 651.3 234.997C652.322 238.541 653.953 241.369 656.475 243.975C658.501 246.067 660.158 248.178 660.158 248.666C660.158 249.154 661.347 250.914 662.801 252.578C664.69 254.741 665.636 257.044 666.124 260.666C666.499 263.45 667.6 267.299 668.57 269.216C670.246 272.528 670.502 272.672 673.664 272.078C676.622 271.521 687.132 267.093 695.862 262.725C697.567 261.871 699.591 260.209 700.361 259.031C701.987 256.545 706.07 254.221 708.815 254.221C711.19 254.221 718.203 247.302 720.623 242.571M718.939 43.8552C716.275 42.4743 714.347 39.944 714.347 37.8292C714.347 37.1082 715.346 36.9285 717.332 37.292M716.643 215.82C713.905 212.679 713.863 212.666 709.754 213.775C705.862 214.828 705.297 214.728 700.054 212.075C695.524 209.783 694.167 208.547 692.768 205.438C690.984 201.472 687.021 198.599 684.612 199.526C683.853 199.819 682.966 201.268 682.642 202.75C682.176 204.875 682.651 206.257 684.904 209.327C686.471 211.464 688.18 214.797 688.7 216.732C689.817 220.891 692.023 222.128 693.851 219.621C694.954 218.109 695.252 218.056 696 219.241C696.476 219.998 696.734 221.033 696.571 221.538C696.06 223.13 701.361 225.749 703.833 225.126C705.083 224.812 707.754 222.679 709.767 220.386C712.94 216.772 714.048 216.528 713.506 219.562C713.14 221.605 714.744 223.999 717.397 225.374M286.562 553.069C281.896 551.319 280.591 549.605 281.699 546.683C282.213 545.329 283.199 544.223 283.891 544.223C284.583 544.223 287.612 545.817 290.621 547.768C293.631 549.718 297.312 551.756 298.8 552.298L301.506 553.283L298.177 553.356C296.346 553.396 293.659 553.601 292.207 553.812C290.755 554.023 288.214 553.689 286.562 553.069ZM275.973 544.085C275.094 543.593 273.63 543.427 272.718 543.717C271.57 544.081 270.683 543.538 269.834 541.946C269.159 540.684 267.951 539.423 267.147 539.147C265.304 538.511 261.442 532.238 259.293 526.389C258.206 523.435 256.747 521.394 255.012 520.405C251.937 518.651 251.716 517.855 254.097 517.099C256.821 516.232 257.328 511.418 255.035 508.19C253.941 506.65 253.365 504.842 253.694 503.98C254.084 502.964 253.01 501.18 250.41 498.525C247.128 495.173 246.521 493.955 246.374 490.423C246.28 488.136 245.724 485.689 245.14 484.983C244.405 484.095 244.255 480.907 244.652 474.604C245.082 467.774 244.832 463.558 243.646 457.682C241.885 448.956 240.985 432.698 241.443 417.865C241.541 414.7 241.132 410.355 240.534 408.209C239.078 402.984 232.381 396.388 224.104 392.029C218.184 388.91 217.351 388.111 215.036 383.321C213.635 380.42 210.956 376.085 209.084 373.687C207.212 371.289 205.177 367.768 204.561 365.862C202.607 359.812 199.162 353.734 196.814 352.191C195.564 351.37 194.139 349.236 193.647 347.449C192.85 344.556 193.06 343.748 195.554 340.114C198.258 336.175 198.29 336.014 196.463 335.535C191.972 334.358 193.861 328.342 201.921 318.145C207.279 311.369 208.848 306.206 207.364 300.242C206.798 297.969 206.292 295.592 206.238 294.959C206.185 294.326 205.783 293.808 205.344 293.808C204.905 293.808 204.989 292.978 205.531 291.963C206.366 290.4 206.155 289.953 204.149 289.036C201.225 287.701 196.809 289.022 196.792 291.237C196.771 293.893 195.606 294.088 191.764 292.081C189.706 291.005 187.568 290.126 187.014 290.126C186.459 290.126 184.302 288.655 182.22 286.858C180.139 285.06 177.918 283.179 177.287 282.678C176.655 282.178 176.139 280.813 176.139 279.645C176.139 278.477 175.328 276.787 174.337 275.887C173.345 274.988 172.06 272.814 171.482 271.057C170.721 268.747 170.152 268.14 169.427 268.866C167.914 270.383 165.674 270.095 160.236 267.685C157.393 266.425 154.432 264.273 153.249 262.608C152.12 261.017 149.962 259.078 148.455 258.296C145.967 257.006 145.345 257.016 141.721 258.404L137.728 259.932L125.477 253.982C117.941 250.321 112.092 246.83 110.28 244.909C107.472 241.932 107.381 241.609 108.315 237.918C109.171 234.536 109.026 233.49 107.164 229.634C105.992 227.207 103.431 223.479 101.473 221.349C99.5148 219.219 98.1345 217.116 98.4067 216.676C98.6788 216.235 97.2993 213.263 95.3412 210.072C93.1172 206.447 91.5479 202.564 91.1583 199.722C90.6583 196.079 90.0759 194.965 88.2321 194.123C86.2779 193.23 85.7312 193.344 84.6122 194.877C83.0359 197.034 83.4838 199.313 86.9692 206.861C88.3853 209.929 89.8488 214.477 90.2213 216.967C90.5938 219.457 91.6941 223.058 92.6669 224.969C94.9703 229.495 93.4827 229.415 89.8503 224.818C87.708 222.107 87.1294 220.619 87.5555 218.919C88.0097 217.104 87.5625 216.229 85.3362 214.579C81.9589 212.076 81.2442 210.462 82.4846 208.139C83.2078 206.784 82.8765 205.298 81.0389 201.664C79.1734 197.974 78.7838 196.186 79.2457 193.445C80 188.966 77.9953 184.912 74.2574 183.359C72.0993 182.463 71.3554 181.461 70.9156 178.856C70.6045 177.014 70.0086 174.163 69.5915 172.521C69.1576 170.814 69.1892 169.316 69.6653 169.022C70.123 168.738 69.8235 167.474 68.9997 166.215C67.7866 164.359 67.7034 163.48 68.5624 161.59C69.1456 160.307 69.3658 158.841 69.0516 158.331C68.7374 157.821 69.5204 156.299 70.7914 154.948C72.0625 153.596 73.7547 150.901 74.5518 148.958C75.3491 147.016 77.8057 143.414 80.0109 140.956C82.2163 138.497 85.0127 134.19 86.2242 131.384C87.9062 127.49 88.8923 126.28 90.3923 126.268C91.4725 126.26 92.2991 126.77 92.2291 127.403C91.9367 130.041 94.0169 129.228 96.3537 125.792C97.7317 123.766 98.4751 121.971 98.0054 121.803C97.5365 121.634 97.1531 120.872 97.1531 120.109C97.1531 119.347 95.2518 116.87 92.9274 114.607C89.0735 110.852 88.8254 110.354 90.107 108.934C91.1459 107.784 91.268 106.94 90.5751 105.7C89.3581 103.52 91.2789 98.6387 93.3606 98.6192C94.2207 98.6106 94.4664 98.3175 93.9384 97.9286C92.7533 97.0563 92.2167 95.0748 92.3831 92.1884C92.649 87.5784 91.6428 85.6507 88.2235 84.2188C86.3797 83.4463 83.5655 81.8164 81.9698 80.5965C80.3748 79.3766 78.3507 78.3788 77.4725 78.3788C76.5941 78.3788 72.6011 77.5411 68.5993 76.5169C62.1653 74.8702 61.0313 74.8052 58.8025 75.955C54.1838 78.3375 49.2903 79.3088 47.2953 78.2385C45.799 77.436 44.1659 77.9318 38.4716 80.9177C34.6285 82.9326 30.0375 84.8939 28.2695 85.2758C26.5016 85.6585 23.118 86.9494 20.7505 88.1451C14.0353 91.5367 4.41574 94.9564 1.75491 94.8971C0.0376568 94.8581 1.19866 94.1036 5.76765 92.2874C13.5327 89.2006 21.5115 85.1807 22.2496 83.9842C23.1586 82.5094 21.1855 81.9809 18.8152 83.0636C17.0702 83.8602 15.9947 83.7854 13.981 82.7284L11.3911 81.3682L14.2083 79.9074C17.393 78.2565 18.3949 76.389 17.6632 73.4666C16.9545 70.6364 20.8618 68.5567 29.2793 67.2842C33.802 66.6005 37.2403 65.4624 39.5552 63.8828C43.6371 61.0974 42.9359 58.9922 38.5347 60.8196C36.4512 61.6846 34.9336 61.6941 31.8481 60.8613C28.0984 59.8492 27.9648 59.7047 29.642 58.4753C32.4484 56.4183 38.2527 55.181 42.0663 55.8269C44.4795 56.2355 46.4562 55.9494 48.4849 54.8979L51.4163 53.3784L49.4866 51.3193C48.4252 50.1869 47.5568 49.0169 47.5568 48.7192C47.5568 47.8651 53.0859 46.1567 55.8505 46.1567C57.2305 46.1567 61.0133 45.1554 64.2569 43.9316C67.5005 42.7078 74.984 41.037 80.8865 40.2188C90.4608 38.8916 92.4881 38.8754 99.6672 40.0686C104.094 40.8043 110.195 41.6817 113.225 42.0185C116.257 42.3552 121.621 43.4241 125.147 44.3937C133.336 46.6458 138.67 46.6183 147.818 44.277C151.857 43.2431 155.94 42.6446 156.891 42.947C157.841 43.2494 159.457 43.047 160.482 42.4972C161.894 41.7397 162.989 41.8314 165.004 42.8757C166.825 43.8192 169.071 44.0885 172.13 43.7298C175.358 43.3513 178.184 43.7433 182.31 45.1416C185.451 46.2063 188.939 47.0774 190.062 47.0774C192.051 47.0774 192.057 47.1112 190.321 48.3926C188.617 49.6491 188.612 49.7368 190.212 50.3581C191.133 50.7157 194.329 50.7523 197.314 50.4395C202.706 49.8746 202.753 49.8905 204.257 52.805L205.77 55.7391L207.735 53.2691C208.864 51.8496 211.548 50.2416 214.043 49.4886C217.817 48.3505 218.961 48.3544 222.75 49.5174C225.425 50.3385 228.626 50.6376 231.023 50.2905C234.076 49.8485 235.494 50.1238 237.485 51.5455C240 53.3403 240.069 53.3412 242.3 51.6086C243.545 50.6417 246.106 49.4197 247.991 48.893C252.506 47.6322 254.037 44.9456 251.326 43.0422C249.409 41.6962 249.493 41.5934 254.532 39.1159C258.291 37.2682 259.983 36.8486 260.716 37.5829C261.448 38.3172 261.441 39.125 260.688 40.5341C259.406 42.9358 261.003 46.566 263.003 45.7968C263.721 45.5202 264.914 45.5264 265.653 45.8106C266.813 46.2568 266.794 46.6353 265.516 48.5909C261.985 53.9931 269.902 52.4625 275.261 46.7067C277.44 44.3665 280.817 43.657 283.981 44.8743C286.025 45.6603 285.833 46.3039 282.449 50.0236C278.415 54.4565 276.352 55.3631 270.295 55.3631C267.367 55.3631 263.91 55.9989 262.3 56.8337C260.07 57.9893 258.983 58.0854 257.225 57.2823C253.947 55.7852 252.805 57.0313 255.157 59.5403L257.164 61.682L253.16 62.8212C250.957 63.4479 247.295 64.0211 245.022 64.0952C241.726 64.2025 240.888 64.5612 240.883 65.8674C240.878 66.9851 239.275 68.1615 235.831 69.5723C224.674 74.1439 215.21 82.387 218.636 84.5478C219.278 84.9523 220.297 86.4115 220.901 87.7905C221.597 89.3775 222.936 90.4844 224.556 90.8094C225.962 91.0916 229.592 92.5469 232.623 94.0428C235.654 95.5394 239.374 97.0337 240.889 97.365C245.061 98.2762 245.098 98.3729 243.155 103.314C241.492 107.541 241.459 108.145 242.747 110.642C243.519 112.139 244.657 113.349 245.276 113.331C248.285 113.243 251.106 110.46 252.86 105.847C254.531 101.453 255.292 100.633 260.09 98.0642C267.168 94.2743 270.112 90.5413 269.328 86.35C268.817 83.6194 269.082 82.9786 271.414 81.3152C272.882 80.266 274.827 77.7565 275.736 75.7376C277.766 71.2249 281.028 69.6605 286.529 70.562C291.407 71.3614 297.177 74.4661 297.873 76.6669C298.16 77.5703 297.922 79.1926 297.345 80.2722C296.473 81.9076 296.638 82.5982 298.333 84.4075L300.369 86.5791L303.693 84.8525C305.521 83.9023 308.452 82.0495 310.205 80.7345L313.393 78.343L314.141 80.3728C314.553 81.4882 314.67 82.9763 314.401 83.6794C314.132 84.3817 314.341 85.7607 314.866 86.7436C315.456 87.8489 315.502 89.1 314.987 90.0237C314.405 91.0651 314.794 92.6475 316.271 95.2557C318.39 98.9934 318.39 98.9957 316.53 100.301C314.083 102.02 315.653 103.842 318.338 102.401C321.006 100.97 324.059 101.156 325.943 102.864C328.726 105.39 326.412 108.41 319.023 111.895C310.986 115.685 307.404 116.436 296.915 116.529C289.169 116.597 288.143 116.845 280.612 120.464C276.192 122.588 272.575 124.69 272.575 125.135C272.575 127.035 273.968 126.87 279.312 124.336C282.46 122.843 286.518 121.65 288.451 121.65C291.753 121.649 291.873 121.751 290.842 123.682C290.245 124.801 288.957 126.365 287.979 127.158C286.444 128.404 286.353 128.931 287.315 131.046C288.757 134.219 292.523 135.746 297.028 134.983L300.588 134.382L297.851 136.274C296.345 137.316 293.865 138.437 292.34 138.768C290.815 139.098 287.68 140.321 285.374 141.486C283.033 142.668 280.681 143.294 280.049 142.902C278.596 142.001 280.13 140.65 284.853 138.673C289.053 136.913 288.381 135.045 283.855 135.896C282.092 136.227 276.375 138.386 271.151 140.693C262.996 144.294 261.573 145.244 261.098 147.411C260.515 150.074 258.524 151.333 251.525 153.468C249.292 154.149 246.399 155.794 245.095 157.125C243.793 158.456 241.297 160.447 239.551 161.552C237.804 162.655 236.131 164.59 235.834 165.85C235.344 167.927 235.231 167.976 234.617 166.376C233.468 163.379 231.736 166.309 231.637 171.421C231.535 176.658 228.886 180.231 223.078 182.966C217.123 185.771 208.649 192.399 206.932 195.594C205.416 198.416 205.353 199.515 206.287 206.766C207.158 213.531 207.106 215.229 205.959 217.452C205.103 219.112 204.104 219.905 203.273 219.585C201.303 218.827 198.892 210.698 199.568 207.089C200.037 204.581 199.726 203.631 197.862 201.876C196.359 200.462 194.973 199.924 193.795 200.299C192.81 200.611 190.028 200.018 187.609 198.978C183.903 197.386 182.72 197.253 180.074 198.128C178.28 198.721 176.497 200.129 175.914 201.413C175.045 203.323 174.47 203.569 172.071 203.052C170.52 202.718 168.135 201.872 166.77 201.173C163.411 199.453 161.53 199.573 157.756 201.748C155.995 202.763 152.404 204.704 149.774 206.063C146.751 207.624 144.676 209.401 144.132 210.893C143.658 212.191 141.964 217.25 140.368 222.136L137.466 231.019L138.948 236.753C141.672 247.288 145.461 250.442 153.356 248.745C159.307 247.465 162.882 244.873 164.195 240.882C165.03 238.348 165.93 237.51 168.625 236.76C172.679 235.631 174.373 235.59 175.93 236.58C177.215 237.398 176.764 238.743 171.009 251.232C167.061 259.801 167.345 260.567 174.11 259.589C180.273 258.698 185.906 259.382 186.564 261.101C186.821 261.771 186.404 266.293 185.637 271.149C184.265 279.838 184.276 280.032 186.25 283.234C187.353 285.024 189.422 287.092 190.847 287.831C193.123 289.011 193.837 289.008 196.699 287.809C201.248 285.904 203.718 286.105 206.878 288.639C209.404 290.666 209.761 290.722 211.746 289.418C212.925 288.644 214.533 286.727 215.319 285.156C217.093 281.615 220.08 279.126 222.59 279.099C223.639 279.088 225.467 278.042 226.654 276.777C229.063 274.206 233.305 273.369 231.232 275.873C229.491 277.975 228.497 284.735 229.618 286.836C230.552 288.585 230.627 288.575 232.326 286.471C233.536 284.973 233.781 284.013 233.119 283.35C231.542 281.768 232.016 280.454 234.952 278.279C237.999 276.02 240.357 276.253 242.987 279.069C244.915 281.135 255.211 283.926 258.161 283.184C262.654 282.054 274.795 289.453 279.357 296.103C281.529 299.269 288.469 302.455 291.519 301.687C297.796 300.108 306.402 306.411 308.413 314.063C309.013 316.341 309.917 318.464 310.421 318.779C311.762 319.616 309.754 322.922 305.367 327.106C302.563 329.779 301.894 330.93 302.682 331.721C303.471 332.511 304.767 331.818 307.88 328.942C312.408 324.759 313.918 324.334 316.187 326.608C317.566 327.991 317.524 328.272 315.633 330.29C314.507 331.492 312.934 332.502 312.138 332.534C311.299 332.567 311.638 332.971 312.945 333.494C314.739 334.212 315.675 334.01 317.537 332.502C322.386 328.575 323.526 328.386 327.833 330.799C330.634 332.366 331.756 333.56 331.614 334.823C331.221 338.334 332.047 339.111 334.476 337.516C336.406 336.249 337.73 336.189 344.187 337.075C351.055 338.017 351.955 338.393 355.25 341.697C357.696 344.149 360.448 345.762 363.905 346.769C368.546 348.121 369.05 348.534 369.893 351.667C371.113 356.211 369.683 361.253 365.815 366.042C364.164 368.087 362.139 371.091 361.315 372.716C360.492 374.34 358.743 376.749 357.427 378.069C355.199 380.301 355.075 380.86 355.631 386.161C356.716 396.519 351.661 415.844 346.786 419.976C345.199 421.321 343.84 421.638 341.324 421.247C339.254 420.925 337.723 421.133 337.319 421.789C336.959 422.373 334.953 423.604 332.862 424.526C330.77 425.448 327.658 427.403 325.944 428.87C322.977 431.41 322.877 431.692 323.876 434.724C325.027 438.22 324.252 442.359 321.785 445.889C320.987 447.031 320.335 448.973 320.335 450.205C320.335 451.437 319.377 453.727 318.205 455.294C317.034 456.861 314.774 460.447 313.184 463.264C309.273 470.194 306.92 471.395 301.248 469.357C296.325 467.588 293.7 467.377 293.7 468.75C293.7 469.267 294.681 470.138 295.88 470.686C297.079 471.234 298.949 473.464 300.034 475.641C301.65 478.885 301.821 480.01 300.978 481.863C299.674 484.733 294.686 487.143 290.049 487.143C285.942 487.143 284.923 488.15 286.342 490.806C287.217 492.446 286.629 495.085 284.935 497.108C284.798 497.271 283.36 496.718 281.74 495.878C277.872 493.873 276.502 495.15 278.457 498.94C279.252 500.481 280.765 502.016 281.817 502.351C283.626 502.927 283.646 503.054 282.175 504.684C281.318 505.633 280.873 507.073 281.186 507.889C281.521 508.765 280.773 510.658 279.353 512.524C277.045 515.557 277.012 515.767 278.492 518.031C279.338 519.326 280.657 520.626 281.425 520.921C284.191 521.985 284.649 525.62 282.54 529.764C280.427 533.915 280.103 538.078 281.738 540.053C283.225 541.849 278.223 545.347 275.973 544.085ZM208.284 145.348C210.738 140.208 215.305 136.379 218.982 136.379C221.629 136.379 221.66 136.81 219.237 139.898L217.331 142.327L219.286 143.914C220.862 145.192 221.674 145.303 223.471 144.483C224.696 143.923 225.953 142.665 226.263 141.685C226.685 140.354 227.371 140.042 228.987 140.449C230.484 140.826 231.421 140.504 232.037 139.401C233.903 136.058 229.154 131.783 225.658 133.658C223.157 135.001 219.889 132.331 220.586 129.514C220.845 128.471 220.313 126.654 219.392 125.436C217.494 122.925 214.606 122.66 208.284 124.419C206.011 125.052 203.419 125.541 202.524 125.506C201.629 125.471 201.137 125.832 201.43 126.308C201.724 126.784 201.629 127.182 201.221 127.193C200.812 127.205 199.45 128.006 198.192 128.974L195.907 130.734L198.474 131.713C200.48 132.477 201.663 132.368 203.891 131.213C206.51 129.855 206.996 129.856 209.854 131.222C211.576 132.045 213.927 132.468 215.117 132.169C216.3 131.871 217.522 132.038 217.832 132.54C218.149 133.054 216.855 133.715 214.877 134.05C209.502 134.96 206.71 137.204 202.811 143.744C199.555 149.208 199.367 149.866 200.666 151.311C201.939 152.728 202.291 152.75 204.038 151.525C205.111 150.773 207.021 147.993 208.284 145.348ZM224.971 151.031C228.241 149.359 228.555 148.939 227.402 147.783C226.251 146.629 225.523 146.704 221.774 148.366C217.373 150.318 215.977 152.951 219.342 152.951C220.373 152.951 222.905 152.087 224.971 151.031ZM241.256 144.074C243.169 142.731 243.24 142.467 241.891 141.71C239.904 140.597 234.001 142.516 234.001 144.277C234.001 146.09 238.566 145.963 241.256 144.074ZM310.232 541.645C310.232 541.239 310.728 540.411 311.333 539.803C311.94 539.196 312.089 538.698 311.665 538.698C311.24 538.698 310.398 539.378 309.792 540.208C308.923 541.4 308.322 541.503 306.935 540.696C305.944 540.12 305.704 539.663 306.382 539.647C307.044 539.631 307.329 539.205 307.017 538.698C306.417 537.726 307.994 537.461 312.528 537.771C316.575 538.048 316.981 538.641 314.481 540.613C312.15 542.45 310.232 542.916 310.232 541.645ZM695.105 173.642C697.476 172.412 697.815 171.736 697.815 168.23C697.815 165.717 697.279 163.778 696.377 163.027C695.586 162.369 694.304 160.601 693.528 159.098C692.246 156.611 692.251 156.416 693.589 156.931C695.356 157.61 697.815 156.793 697.815 155.526C697.815 155.026 696.961 153.413 695.916 151.943C694.343 149.728 693.713 149.434 692.242 150.223C691.053 150.86 690.467 150.866 690.467 150.24C690.467 149.726 688.828 148.467 686.824 147.443C682.39 145.175 680.812 142.663 682.196 140.073C683.242 138.112 686.981 136.739 688.578 137.728C690.731 139.062 691.366 137.096 689.59 134.595C685.281 128.531 679.283 128.93 671.845 135.776C667.045 140.194 666.628 141.367 669.343 142.824C670.353 143.366 671.18 144.425 671.18 145.178C671.18 145.931 672.814 148.324 674.811 150.495C679.409 155.497 680.252 157.781 679.683 163.7L679.225 168.465L685.535 171.71C689.006 173.495 691.969 174.976 692.12 175.001C692.272 175.026 693.615 174.414 695.105 173.642ZM669.803 430.805C667.209 429.33 666.841 428.552 666.163 423.118C665.622 418.775 665.848 417.831 668.439 413.61C671.073 409.319 671.263 408.492 670.682 403.832C669.843 397.102 671.271 393.566 675.173 392.708C678.849 391.899 686.803 384.86 688.709 380.728L690.166 377.571L691.178 379.798C693.725 385.402 693.466 387.864 689.034 400.154C686.663 406.73 684.12 414.597 683.382 417.634C681.02 427.358 679.679 429.702 675.81 430.864C671.691 432.101 672.09 432.105 669.803 430.805ZM712.51 413.491C712.51 412.985 712.923 412.571 713.429 412.571C713.933 412.571 714.347 412.985 714.347 413.491C714.347 413.998 713.933 414.412 713.429 414.412C712.923 414.412 712.51 413.998 712.51 413.491ZM718.939 410.323C718.939 410.1 719.353 409.662 719.857 409.349C720.363 409.036 720.776 409.218 720.776 409.754C720.776 410.291 720.363 410.73 719.857 410.73C719.353 410.73 718.939 410.547 718.939 410.323ZM670.721 379.428C670.408 378.921 670.591 378.508 671.126 378.508C671.661 378.508 672.098 378.921 672.098 379.428C672.098 379.934 671.916 380.349 671.694 380.349C671.471 380.349 671.033 379.934 670.721 379.428ZM716.184 348.126C716.184 347.62 716.597 347.205 717.102 347.205C717.608 347.205 718.021 347.62 718.021 348.126C718.021 348.633 717.608 349.047 717.102 349.047C716.597 349.047 716.184 348.633 716.184 348.126ZM529.74 322.863C529.74 322.64 530.153 322.201 530.658 321.888C531.163 321.575 531.576 321.758 531.576 322.294C531.576 322.831 531.163 323.269 530.658 323.269C530.153 323.269 529.74 323.086 529.74 322.863ZM535.251 311.816C535.251 311.592 535.663 311.153 536.169 310.84C536.674 310.527 537.087 310.71 537.087 311.247C537.087 311.783 536.674 312.221 536.169 312.221C535.663 312.221 535.251 312.039 535.251 311.816ZM266.944 283.366C267.507 282.687 267.696 281.859 267.363 281.525C267.031 281.192 267.616 280.92 268.663 280.92C270.114 280.92 270.452 281.357 270.086 282.761C269.808 283.83 268.833 284.602 267.763 284.602C266.327 284.602 266.147 284.331 266.944 283.366ZM241.961 273.861C241.624 273.524 241.349 272.82 241.349 272.296C241.349 271.719 241.776 271.774 242.435 272.435C243.033 273.033 243.308 273.738 243.048 273.999C242.786 274.261 242.297 274.199 241.961 273.861ZM236.756 272.634C236.756 272.128 236.939 271.713 237.161 271.713C237.384 271.713 237.822 272.128 238.134 272.634C238.446 273.14 238.264 273.555 237.729 273.555C237.194 273.555 236.756 273.14 236.756 272.634ZM279.923 270.792C279.923 270.286 280.105 269.872 280.328 269.872C280.551 269.872 280.989 270.286 281.3 270.792C281.613 271.299 281.431 271.713 280.896 271.713C280.361 271.713 279.923 271.299 279.923 270.792ZM274.412 264.863C274.412 264.64 274.826 264.201 275.33 263.888C275.836 263.575 276.25 263.757 276.25 264.294C276.25 264.83 275.836 265.269 275.33 265.269C274.826 265.269 274.412 265.086 274.412 264.863ZM418.608 261.587C418.608 261.08 419.021 260.666 419.527 260.666C420.031 260.666 420.445 261.08 420.445 261.587C420.445 262.092 420.031 262.507 419.527 262.507C419.021 262.507 418.608 262.092 418.608 261.587ZM271.657 258.013C271.657 257.506 272.071 256.835 272.575 256.523C273.081 256.21 273.494 256.368 273.494 256.874C273.494 257.38 273.081 258.051 272.575 258.364C272.071 258.677 271.657 258.518 271.657 258.013ZM263.856 254.232C263.535 253.71 263.904 253.555 264.721 253.87C266.312 254.482 266.603 255.142 265.282 255.142C264.807 255.142 264.165 254.732 263.856 254.232ZM409.882 254.221C409.571 253.714 409.753 253.3 410.288 253.3C410.823 253.3 411.26 253.714 411.26 254.221C411.26 254.728 411.078 255.142 410.855 255.142C410.633 255.142 410.195 254.728 409.882 254.221ZM267.524 252.38C267.212 251.873 267.394 251.459 267.929 251.459C268.464 251.459 268.902 251.873 268.902 252.38C268.902 252.886 268.72 253.3 268.497 253.3C268.274 253.3 267.836 252.886 267.524 252.38ZM271.657 252.38C271.657 251.873 271.84 251.459 272.062 251.459C272.284 251.459 272.722 251.873 273.035 252.38C273.347 252.886 273.165 253.3 272.63 253.3C272.095 253.3 271.657 252.886 271.657 252.38ZM208.514 249.928C207.882 249.674 207.366 249.085 207.366 248.62C207.366 247.293 211.42 247.635 213.39 249.129C215.084 250.412 215.035 250.478 212.417 250.437C210.902 250.412 209.145 250.184 208.514 249.928ZM231.755 249.407C230.931 248.945 229.111 248.818 227.71 249.127C226.31 249.435 224.156 249.283 222.924 248.79C220.943 247.994 221.118 247.901 224.44 247.979C229.323 248.093 230.627 247.296 229.379 244.959C228.493 243.3 228.759 243.173 233.141 243.173C237.38 243.173 243.494 245.122 244.53 246.803C245.219 247.92 233.4 250.329 231.755 249.407ZM249.372 249.988C248.284 248.898 249.637 247.777 252.041 247.777C253.485 247.777 254.217 248.21 253.981 248.928C253.558 250.216 250.339 250.957 249.372 249.988ZM256.962 248.335C256.962 248.136 257.582 247.735 258.34 247.443C259.097 247.152 259.717 247.315 259.717 247.806C259.717 248.296 259.097 248.698 258.34 248.698C257.582 248.698 256.962 248.535 256.962 248.335ZM217.26 241.736C216.976 241.452 215.037 241.196 212.951 241.167C210.073 241.127 209.382 240.843 210.088 239.991C210.771 239.167 209.791 238.069 206.415 235.876C199.794 231.576 196.098 230.736 191.65 232.52C187.479 234.193 187.161 234.24 187.161 233.186C187.161 231.26 194.47 229.14 199.733 229.541C204.767 229.925 207.585 230.998 217.469 236.299C225.593 240.656 225.601 240.663 222.979 241.413C220.002 242.264 217.904 242.382 217.26 241.736ZM223.898 233.967C225.678 232.814 226.654 232.814 226.654 233.967C226.654 234.473 225.724 234.881 224.587 234.873C222.915 234.862 222.784 234.689 223.898 233.967ZM229.928 231.107C230.541 230.113 234.001 230.001 234 230.975C234 231.355 232.97 231.725 231.711 231.798C230.451 231.871 229.649 231.56 229.928 231.107ZM211.767 222.235C210.298 220.545 210.511 218.316 212.142 218.316C212.664 218.316 212.88 219.125 212.622 220.114C212.365 221.102 212.626 222.081 213.204 222.289C213.781 222.497 214.011 222.934 213.713 223.26C213.415 223.585 212.539 223.124 211.767 222.235ZM217.102 215.002C216.774 214.148 216.714 213.242 216.967 212.989C217.219 212.736 217.693 213.227 218.02 214.081C218.347 214.935 218.408 215.841 218.155 216.094C217.902 216.347 217.428 215.856 217.102 215.002ZM211.346 214.173C211.346 213.414 212.133 212.792 213.095 212.792C214.65 212.792 214.692 212.946 213.467 214.173C212.709 214.933 211.922 215.554 211.718 215.554C211.513 215.554 211.346 214.933 211.346 214.173ZM268.902 188.45C268.902 188.227 269.315 187.788 269.82 187.475C270.326 187.162 270.739 187.344 270.739 187.881C270.739 188.417 270.326 188.856 269.82 188.856C269.315 188.856 268.902 188.673 268.902 188.45ZM623.053 180.815C621.957 179.716 622.54 178.729 624.285 178.729C625.266 178.729 626.323 178.315 626.635 177.808C627.489 176.424 628.945 176.701 628.393 178.144C627.827 179.623 623.85 181.614 623.053 180.815ZM591.735 179.222L588.979 177.958L592.653 177.895C597.229 177.818 600.599 178.678 599.936 179.754C599.197 180.953 594.897 180.673 591.735 179.222ZM554.632 170.039C550.957 168.152 550.784 167.917 552.703 167.413C555.001 166.812 560.087 167.561 559.984 168.487C559.948 168.803 559.638 169.748 559.295 170.586C558.731 171.964 558.283 171.912 554.632 170.039ZM536.223 160.078C535.429 157.792 535.492 156.918 536.524 155.882C538.391 154.011 539.843 155.326 539.843 158.89C539.843 163.101 537.538 163.857 536.223 160.078ZM514.687 160.843C515.338 159.141 518.133 158.853 517.571 160.546C517.36 161.179 516.501 161.831 515.66 161.994C514.595 162.201 514.3 161.853 514.687 160.843ZM537.699 151.417C536.634 150.349 537.036 148.565 538.465 148.015C539.46 147.632 539.843 148.116 539.843 149.757C539.843 151.967 538.944 152.663 537.699 151.417ZM316.661 130.395C316.661 129.635 317.061 129.014 317.551 129.014C318.04 129.014 318.202 129.635 317.911 130.395C317.621 131.155 317.22 131.776 317.022 131.776C316.824 131.776 316.661 131.155 316.661 130.395ZM311.861 127.425L308.44 127.064L314.879 120.674C318.42 117.159 321.78 114.284 322.346 114.284C322.943 114.284 322.764 114.961 321.919 115.896C320.007 118.014 321.311 120.393 324.805 121.162C326.331 121.498 327.851 122.67 328.438 123.962C329.382 126.037 329.222 126.248 326.04 127.134C322.702 128.064 318.716 128.145 311.861 127.425ZM88.0657 120.819C84.8844 117.841 84.529 116.585 86.6387 115.774C88.5283 115.047 92.0153 117.416 93.3372 120.324C94.7246 123.376 94.6997 123.491 92.6576 123.491C91.7011 123.491 89.6342 122.289 88.0657 120.819ZM492.543 116.142C493.553 115.643 495.541 114.814 496.961 114.3C500.088 113.169 499.57 111.964 495.614 111.171C492.901 110.627 492.805 110.489 494.357 109.351C495.282 108.673 495.768 107.682 495.439 107.148C495.104 106.603 496.048 105.756 497.595 105.215C499.11 104.686 500.35 103.844 500.35 103.344C500.35 101.218 498.435 97.6409 497.371 97.7797C494.919 98.1001 493.784 97.6667 494.179 96.5613C494.405 95.9284 494.219 94.6859 493.764 93.7996C492.582 91.4954 495.299 86.7303 497.824 86.6789C498.202 86.6719 498.409 87.1731 498.283 87.7936C498.157 88.4148 499.024 89.0704 500.209 89.2505L502.364 89.5778L500.305 91.776L498.245 93.9734L500.567 94.8581C503.06 95.8083 505.461 98.9021 507.907 104.314C509.079 106.907 509.85 107.584 511.218 107.226C514.024 106.49 514.357 108.396 511.724 110.126C509.94 111.298 509.602 111.958 510.383 112.741C511.164 113.525 509.624 114.05 504.281 114.823C500.351 115.392 495.688 116.125 493.92 116.453C491.461 116.91 491.138 116.837 492.543 116.142ZM477.054 111.056C476.74 110.236 477.098 108.371 477.851 106.913C478.714 105.239 478.881 104.052 478.304 103.694C476.712 102.708 477.309 101.45 479.647 100.862C480.889 100.549 482.386 99.7128 482.974 99.0035C484.197 97.5256 489.855 97.2535 490.704 98.6317C491.016 99.1368 490.628 100.472 489.841 101.598C489.054 102.725 488.41 104.748 488.41 106.094C488.41 108.147 487.78 108.761 484.507 109.9C482.36 110.647 479.933 111.549 479.115 111.903C478.154 112.32 477.422 112.019 477.054 111.056ZM493.92 101.909C493.92 101.687 494.334 101.248 494.839 100.935C495.344 100.622 495.758 100.804 495.758 101.34C495.758 101.877 495.344 102.316 494.839 102.316C494.334 102.316 493.92 102.133 493.92 101.909ZM86.3152 97.4741C85.4155 96.3875 85.4722 95.8808 86.6014 94.9415C88.4677 93.3888 89.3939 94.4419 88.3075 96.8825C87.5586 98.5654 87.2857 98.6465 86.3152 97.4741ZM84.8789 90.5499C84.5686 90.0471 84.9302 89.1234 85.6822 88.4975C87.1753 87.2557 87.4871 88.2293 86.232 90.2155C85.7522 90.9739 85.2211 91.1057 84.8789 90.5499ZM25.5142 89.9629C25.5142 89.3151 28.2991 88.1825 32.2498 87.223C33.7475 86.8597 34.633 86.947 34.3355 87.4296C34.0511 87.891 32.6732 88.4998 31.2735 88.7828C29.8739 89.0665 28.0054 89.5786 27.1214 89.9208C26.2375 90.2638 25.5142 90.2825 25.5142 89.9629ZM571.299 79.6104C569.605 78.9253 569.904 77.8689 571.835 77.7231C572.761 77.6532 573.519 78.1863 573.519 78.9081C573.519 80.2792 573.201 80.3798 571.299 79.6104ZM369.471 74.9052C363.659 71.7281 360.881 66.847 362.565 62.7716C363.362 60.8428 363.386 59.6299 362.656 58.2612C361.135 55.4126 363.119 52.0743 368.193 48.9444C370.604 47.4579 373.01 45.4278 373.541 44.4333C375.012 41.6777 373.702 36.9557 371.142 35.7863C369.846 35.1945 369.141 34.2587 369.428 33.5108C370.079 31.8077 367.022 25.9908 363.976 23.1408C361.734 21.0431 360.77 20.8342 353.095 20.7839C342.643 20.7153 340.696 20.1328 340.869 17.1267C340.941 15.8781 341.217 14.8561 341.483 14.8557C341.748 14.8554 345.469 14.4232 349.749 13.8954C355.214 13.2215 360.115 11.8318 366.207 9.22772C375.638 5.19596 376.357 5.11717 398.862 5.6474C405.968 5.81484 412.505 5.28765 420.904 3.86991C428.725 2.54963 434.481 2.05193 437.588 2.42706C440.228 2.74579 444.051 2.53556 446.21 1.95298C451.218 0.601027 464.232 2.2273 469.351 4.8448C472.376 6.39225 473.978 6.59658 479.083 6.08703C484.599 5.53662 485.016 5.60903 483.358 6.82949C482.348 7.57327 479.248 8.48182 476.47 8.84849C470.441 9.6442 464.902 13.9514 466.37 16.7015C467.003 17.8878 466.549 18.9004 464.501 20.8669C463.014 22.2959 461.578 24.1528 461.312 24.9935C460.672 27.013 452.553 30.7716 448.527 30.9118C444.056 31.0674 443.588 32.0203 447.046 33.9295C448.679 34.8315 451.064 36.3682 452.345 37.3446L454.674 39.1198L452.568 39.9006C450.954 40.4991 449.645 40.1132 446.959 38.2475C443.315 35.7156 439.393 35.7029 441.485 38.2297C442.301 39.2152 442.105 39.5979 440.577 39.9982C437.164 40.8929 439.579 42.662 443.343 42.0246C445.738 41.6188 447.086 41.8326 447.835 42.7375C448.726 43.8141 447.564 44.3126 440.874 45.7219C436.457 46.6526 430.571 47.448 427.792 47.4896C422.631 47.5669 418.912 49.0522 413.44 53.2206C411.656 54.5799 407.865 55.927 403.428 56.7779C394.155 58.5564 391.021 60.6132 385.434 68.5885C380.946 74.9942 378.24 77.3817 375.441 77.4043C374.684 77.4106 371.997 76.2858 369.471 74.9052ZM304.35 68.7478C302.377 67.533 299.96 65.2674 298.978 63.713C297.061 60.6786 295.294 60.293 290.12 61.7806C288.368 62.2842 286.402 62.3327 285.616 61.8918C282.897 60.3661 287.809 58.8656 293.281 59.5509C297.442 60.072 298.366 59.9235 298.851 58.656C299.826 56.1093 304.288 54.2842 306.769 55.4174C308.296 56.1149 309.685 56.0954 311.635 55.3492C314.26 54.3451 314.296 54.2544 312.582 52.9927C311.601 52.271 310.482 51.6805 310.095 51.6805C309.707 51.6805 308.309 49.8311 306.988 47.5707C305.666 45.3102 303.189 42.5962 301.484 41.5394C298.585 39.7435 298.202 39.7119 295.608 41.056C293.341 42.231 292.032 42.3133 288.445 41.506C286.032 40.9626 282.66 40.7797 280.955 41.0994C277.996 41.6539 272.575 40.2026 272.575 38.8559C272.575 36.382 280.354 30.8298 284.975 30.0057L288.648 29.3504L286.022 32.1549C282.4 36.0236 283.762 37.8041 287.696 34.342C289.364 32.8734 292.248 31.3862 294.104 31.0372C296.94 30.5039 298.156 30.8517 301.716 33.2161C306.455 36.3621 306.82 36.4465 309.492 35.013C311.102 34.1498 311.698 34.3868 313.446 36.5835C314.654 38.103 317.353 39.7575 319.985 40.5923C324.181 41.9228 324.468 42.2123 324.468 45.1124C324.468 47.2873 325.093 48.6596 326.567 49.7157C332.73 54.1342 332.596 53.9517 331.262 56.0924C329.433 59.0275 327.99 59.2402 323.942 57.1705C321.126 55.7307 319.897 55.5333 318.479 56.2937C316.745 57.2241 316.726 57.4228 318.122 60.1292C319.268 62.3503 319.373 63.4718 318.594 65.1848C317.635 67.2957 317.482 67.3283 314.876 65.9779C309.755 63.323 306.306 65.07 311.084 67.899C312.581 68.7854 313.597 69.8488 313.342 70.2623C312.452 71.705 307.908 70.9397 304.35 68.7478ZM493.002 69.9399C493.002 69.5179 493.622 69.1727 494.38 69.1727C495.137 69.1727 495.758 69.5179 495.758 69.9399C495.758 70.3619 495.137 70.7071 494.38 70.7071C493.622 70.7071 493.002 70.3619 493.002 69.9399ZM269.72 64.9888C267.909 64.0345 266.503 63.9528 263.967 64.6547C259.656 65.8479 258.149 64.9747 260.336 62.5515C263.136 59.4495 265.036 58.8394 268.414 59.9569C272.216 61.2146 273.904 63.0841 272.878 64.9021C272.224 66.0611 271.777 66.0734 269.72 64.9888ZM452.131 64.5695C450.616 63.5707 448.686 62.972 447.845 63.239C446.685 63.6068 446.427 63.2876 446.784 61.9229C447.33 59.8284 455.4 56.8053 458.128 57.6731C459.079 57.9757 461.51 57.7269 463.529 57.1203C466.7 56.1679 467.541 56.24 469.685 57.648L472.168 59.2787L469.956 61.0063C468.089 62.4645 464.627 63.7297 456.265 66.0099C455.506 66.2165 453.646 65.5683 452.131 64.5695ZM202.774 47.3835C201.511 47.1834 198.435 46.1006 195.938 44.9771L191.397 42.9345L197.775 42.4742C201.282 42.221 204.151 41.5996 204.151 41.0932C204.151 40.5869 201.671 39.9506 198.641 39.6791C194.639 39.3208 193.885 39.0687 195.886 38.7585C199.236 38.2391 199.477 36.7847 196.344 35.9918C194.089 35.4208 194.106 35.3859 197.278 34.0156C202.777 31.6408 208.634 31.1858 213.823 32.7305C218.083 33.9987 218.749 33.9933 220.758 32.6741C222.178 31.7411 223.021 31.5849 223.094 32.2413C223.157 32.8059 223.261 33.7512 223.324 34.3419C223.537 36.3364 225.369 36.0783 227.555 33.7458C229.579 31.5865 233.087 30.5521 233.079 32.117C233.077 32.4968 232.26 34.1482 231.263 35.7869L229.451 38.7663L232.415 40.3162L235.379 41.8662L230.512 44.0926C226.121 46.1016 225.22 46.2166 221.284 45.2701C217.467 44.3524 216.372 44.4573 212.527 46.1096C208.184 47.9758 207.268 48.0955 202.774 47.3835ZM239.609 46.7349C238.779 45.7329 239.122 45.2399 241.266 44.3497C242.758 43.7302 244.898 43.5236 246.045 43.8886C248.035 44.5214 247.989 44.6209 244.965 46.2351C241.107 48.2946 240.915 48.3125 239.609 46.7349ZM493.002 42.4742C494.782 41.3207 495.758 41.3207 495.758 42.4742C495.758 42.9805 494.828 43.3884 493.691 43.3807C492.019 43.3693 491.888 43.1958 493.002 42.4742ZM661.536 39.92C656.841 38.0608 656.937 38.1625 658.304 36.5123C658.942 35.7405 659.105 35.0959 658.664 35.0798C658.223 35.0637 658.689 34.4244 659.7 33.6592C660.71 32.894 661.543 31.975 661.552 31.6171C661.584 30.2554 665.323 26.6644 667.966 25.4576C669.481 24.7655 673.407 23.9855 676.691 23.7242C679.974 23.4629 684.372 22.9842 686.464 22.6604C688.691 22.3157 690.505 22.4567 690.84 23.0002C691.491 24.0564 690.248 24.5053 683.12 25.7891C676.046 27.0629 671.794 29.048 668.994 32.3841C666.043 35.8985 665.945 38.1175 668.654 40.012L670.721 41.457L667.966 41.4158C666.45 41.3932 663.557 40.72 661.536 39.92ZM180.506 37.2507C179.025 35.7659 179.362 35.4427 186.468 31.5431C194.795 26.974 198.979 26.3675 206.447 28.6468L210.581 29.9081L205.07 31.0034C200.563 31.8992 191.012 35.1006 183.47 38.2436C182.701 38.5643 181.373 38.1194 180.506 37.2507ZM246.859 36.0591C246.859 35.5689 245.723 34.514 244.333 33.7148L241.807 32.2615L245.189 32.7946C247.592 33.1735 248.789 32.9478 249.322 32.0151C249.957 30.906 255.802 28.6865 258.134 28.6697C258.526 28.6666 258.205 29.9061 257.423 31.4234C255.579 34.9971 246.859 38.8238 246.859 36.0591ZM261.159 33.371C259.843 31.2368 268.829 27.9332 272.648 29.1478C275.429 30.033 273.57 31.554 268.717 32.3626C266.546 32.7245 264.087 33.3116 263.255 33.6673C262.422 34.023 261.478 33.8897 261.159 33.371ZM290.485 26.5917C284.423 26.1084 279.351 25.6078 279.212 25.4792C278.391 24.7154 280.44 22.2291 282.644 21.3138C284.811 20.4139 285.81 20.5333 288.777 22.047C291.669 23.5226 293.534 23.7679 298.907 23.3797C302.528 23.1181 306.661 23.2008 308.091 23.5636L310.691 24.2232L307.476 25.945C305.708 26.892 303.642 27.6226 302.884 27.5686C302.126 27.5146 296.547 27.075 290.485 26.5917ZM554.793 22.8291C550.281 20.5139 549.846 19.4639 553.39 19.4442C554.779 19.4364 556.535 18.983 557.293 18.4367C558.484 17.5779 558.468 17.5077 557.175 17.9185C556.352 18.1798 555.199 17.9114 554.611 17.3225C553.799 16.508 553.376 16.5225 552.845 17.3827C552.354 18.1791 551.346 18.2734 549.439 17.7011C544.596 16.2472 543.516 15.6018 543.516 14.1603C543.516 12.9394 544.731 12.8275 552.242 13.3568C557.962 13.7598 560.967 13.6481 560.967 13.0324C560.967 11.22 563.515 12.1149 564.191 14.1645L564.874 16.236L565.281 14.1645C565.504 13.0253 566.278 12.0931 567.001 12.0931C567.723 12.0931 568.314 11.596 568.314 10.9883C568.314 10.129 568.559 10.129 569.417 10.9883C570.058 11.631 573.131 12.0931 576.764 12.0931C583.33 12.0931 584.872 13.2699 580.493 14.9389C578.217 15.8062 574.259 15.5609 569.921 14.2836C569.037 14.0232 568.317 14.1489 568.32 14.5628C568.327 15.4125 573.487 18.5376 574.884 18.5376C575.384 18.5376 576.373 19.1188 577.081 19.8291C578.187 20.9374 578.178 21.1945 577.016 21.6415C576.271 21.9279 575.662 21.7149 575.662 21.1682C575.662 20.5253 574.494 20.3936 572.357 20.7954C570.043 21.2306 569.24 21.1112 569.68 20.3972C570.026 19.8364 569.81 18.7743 569.199 18.0369C568.022 16.6144 564.641 16.1789 564.641 17.4497C564.641 17.864 563.298 19.6917 561.656 21.5111L558.671 24.8191L554.793 22.8291ZM311.15 20.8038C309.558 19.8669 307.305 19.5955 303.803 19.9186C300.528 20.2205 298.011 19.9602 296.648 19.1787C294.768 18.1014 295.228 17.9786 300.964 18.0252C308.137 18.0834 311.287 16.5442 307.403 14.8794C305.557 14.0886 305.826 14.0167 308.99 14.456C313.119 15.0294 314.724 13.9204 312.474 12.0486C310.075 10.0526 312.713 9.43296 321.25 9.98734C326.532 10.3304 329.852 10.138 331.209 9.41004C333.809 8.01553 332.788 6.24034 329.817 6.98787C327.763 7.5045 313.512 6.65674 314.114 6.05373C314.544 5.62279 334.734 3.74835 347.992 2.90858C354.869 2.473 362.515 1.86538 364.983 1.55831L369.471 1L362.063 4.56729C355.116 7.91187 343.82 11.1725 339.179 11.1725C338.049 11.1725 334.802 12.4153 331.962 13.9344C329.122 15.4535 326.229 16.6963 325.533 16.6963C324.836 16.6963 321.832 17.9339 318.856 19.4466C315.881 20.9592 313.446 22.1874 313.446 22.1758C313.446 22.1643 312.413 21.5469 311.15 20.8038ZM293.24 12.3927C288.789 11.4055 288.626 11.034 291.897 9.33467C296.665 6.85761 301.177 6.22273 303.228 7.74024C304.852 8.94172 304.758 9.1274 301.569 11.0139C298.244 12.98 296.895 13.2033 293.24 12.3927Z" stroke="#232057" stroke-width="2" stroke-dasharray="2 2"/>
<g filter="url(#filter0_i_629_9667)">
<path d="M536.621 299.566C545.545 299.566 552.78 292.232 552.78 283.187C552.78 274.141 545.545 266.808 536.621 266.808C527.696 266.808 520.461 274.141 520.461 283.187C520.461 292.232 527.696 299.566 536.621 299.566Z" fill="#232057"/>
<path d="M531.271 288.724C531.271 289.013 531.328 289.298 531.438 289.565C531.547 289.83 531.708 290.072 531.91 290.276C532.111 290.478 532.352 290.639 532.615 290.747C532.879 290.856 533.161 290.911 533.446 290.908H535.696V275.446H533.926C533.58 275.44 533.235 275.505 532.913 275.636C532.592 275.767 532.299 275.962 532.051 276.208C531.804 276.455 531.608 276.749 531.474 277.073C531.341 277.397 531.271 277.746 531.271 278.097V288.724Z" fill="white"/>
<path d="M539.699 275.446H537.524V284.474H539.872C540.416 284.474 540.939 284.257 541.328 283.87C541.716 283.484 541.939 282.958 541.949 282.406V277.648C541.952 277.351 541.896 277.058 541.783 276.784C541.669 276.51 541.502 276.262 541.291 276.056C541.081 275.85 540.831 275.69 540.557 275.584C540.283 275.479 539.991 275.432 539.699 275.446Z" fill="white"/>
<path d="M539.737 290.908C540.959 290.908 541.949 289.905 541.949 288.666C541.949 287.428 540.959 286.424 539.737 286.424C538.515 286.424 537.524 287.428 537.524 288.666C537.524 289.905 538.515 290.908 539.737 290.908Z" fill="#F8991D"/>
</g>
<defs>
<filter id="filter0_i_629_9667" x="520.461" y="266.808" width="32.3193" height="36.7578" filterUnits="userSpaceOnUse" color-interpolation-filters="sRGB">
<feFlood flood-opacity="0" result="BackgroundImageFix"/>
<feBlend mode="normal" in="SourceGraphic" in2="BackgroundImageFix" result="shape"/>
<feColorMatrix in="SourceAlpha" type="matrix" values="0 0 0 0 0 0 0 0 0 0 0 0 0 0 0 0 0 0 127 0" result="hardAlpha"/>
<feOffset dy="4"/>
<feGaussianBlur stdDeviation="2"/>
<feComposite in2="hardAlpha" operator="arithmetic" k2="-1" k3="1"/>
<feColorMatrix type="matrix" values="0 0 0 0 0 0 0 0 0 0 0 0 0 0 0 0 0 0 0.36 0"/>
<feBlend mode="normal" in2="shape" result="effect1_innerShadow_629_9667"/>
</filter>
</defs>
</svg>
