<svg width="20" height="20" viewBox="0 0 20 20" fill="none" xmlns="http://www.w3.org/2000/svg">
<g clip-path="url(#clip0_1208_10697)">
<path d="M18.7371 9.14583L9.99959 14.3892L1.26209 9.14583C1.07257 9.03212 0.845645 8.99835 0.631228 9.05195C0.416811 9.10556 0.232471 9.24214 0.118759 9.43166C0.00504782 9.62118 -0.0287202 9.84811 0.024884 10.0625C0.0784881 10.2769 0.215073 10.4613 0.404593 10.575L9.57126 16.075C9.70087 16.1529 9.84923 16.194 10.0004 16.194C10.1516 16.194 10.3 16.1529 10.4296 16.075L19.5963 10.575C19.7858 10.4613 19.9224 10.2769 19.976 10.0625C20.0296 9.84811 19.9958 9.62118 19.8821 9.43166C19.7684 9.24214 19.584 9.10556 19.3696 9.05195C19.1552 8.99835 18.9283 9.03212 18.7388 9.14583H18.7371Z" fill="#F8991D"/>
<path d="M18.7371 12.9525L9.99959 18.195L1.26209 12.9525C1.16825 12.8962 1.06424 12.8589 0.955994 12.8428C0.84775 12.8267 0.737394 12.8321 0.631226 12.8586C0.525057 12.8852 0.425156 12.9324 0.337227 12.9975C0.249297 13.0627 0.175061 13.1445 0.118757 13.2383C0.0624527 13.3322 0.025183 13.4362 0.00907579 13.5444C-0.00703138 13.6527 -0.0016606 13.763 0.0248815 13.8692C0.0784856 14.0836 0.215071 14.268 0.40459 14.3817L9.57126 19.8817C9.70087 19.9595 9.84922 20.0007 10.0004 20.0007C10.1516 20.0007 10.3 19.9595 10.4296 19.8817L19.5963 14.3817C19.7858 14.268 19.9224 14.0836 19.976 13.8692C20.0296 13.6548 19.9958 13.4279 19.8821 13.2383C19.7684 13.0488 19.584 12.9122 19.3696 12.8586C19.1552 12.805 18.9283 12.8388 18.7388 12.9525H18.7371Z" fill="#F8991D"/>
<path d="M0.403903 6.96417L8.7239 11.9567C9.10912 12.1884 9.55019 12.3109 9.99974 12.3109C10.4493 12.3109 10.8904 12.1884 11.2756 11.9567L19.5956 6.96417C19.7188 6.89009 19.8207 6.78538 19.8915 6.66024C19.9623 6.5351 19.9995 6.39378 19.9995 6.25001C19.9995 6.10624 19.9623 5.96491 19.8915 5.83977C19.8207 5.71463 19.7188 5.60993 19.5956 5.53584L11.2756 0.543339C10.8903 0.311863 10.4492 0.189575 9.99974 0.189575C9.55024 0.189575 9.10921 0.311863 8.7239 0.543339L0.403903 5.53584C0.280693 5.60993 0.178745 5.71463 0.10797 5.83977C0.0371952 5.96491 0 6.10624 0 6.25001C0 6.39378 0.0371952 6.5351 0.10797 6.66024C0.178745 6.78538 0.280693 6.89009 0.403903 6.96417Z" fill="#222057"/>
</g>
<defs>
<clipPath id="clip0_1208_10697">
<rect width="20" height="20" fill="white"/>
</clipPath>
</defs>
</svg>
