<svg width="1565" height="712" viewBox="0 0 1565 712" fill="none" xmlns="http://www.w3.org/2000/svg">
  <g id="worldmap">
    <rect width="1563.11" height="709.275" fill="black" fill-opacity="0" transform="translate(1 1)"></rect>
    <g id="map">
      <rect width="1563.11" height="709.275" fill="black" fill-opacity="0" transform="translate(1 1)"></rect>
      <path id="path2830" d="M368.218 709.24C362.218 706.995 360.54 704.796 361.965 701.048C362.625 699.311 363.894 697.891 364.783 697.891C365.673 697.891 369.568 699.937 373.438 702.439C377.309 704.941 382.042 707.556 383.956 708.251L387.436 709.515L383.155 709.608C380.8 709.659 377.345 709.923 375.478 710.193C373.61 710.464 370.343 710.035 368.218 709.24V709.24ZM354.601 697.715C353.471 697.083 351.588 696.87 350.415 697.242C348.939 697.71 347.799 697.013 346.707 694.971C345.839 693.351 344.285 691.734 343.252 691.379C340.882 690.564 335.915 682.516 333.151 675.013C331.754 671.223 329.877 668.604 327.647 667.336C323.692 665.086 323.408 664.065 326.47 663.094C329.973 661.982 330.625 655.807 327.676 651.666C326.269 649.69 325.528 647.37 325.952 646.265C326.453 644.961 325.072 642.673 321.728 639.266C317.508 634.966 316.728 633.403 316.539 628.872C316.417 625.939 315.702 622.799 314.952 621.894C314.006 620.755 313.813 616.665 314.324 608.579C314.877 599.816 314.555 594.408 313.03 586.87C310.766 575.675 309.609 554.818 310.197 535.789C310.323 531.729 309.797 526.155 309.028 523.402C307.156 516.699 298.544 508.237 287.9 502.644C280.287 498.643 279.216 497.618 276.24 491.473C274.438 487.752 270.993 482.19 268.586 479.114C266.178 476.038 263.561 471.52 262.769 469.075C260.256 461.314 255.826 453.516 252.807 451.537C251.2 450.484 249.367 447.746 248.734 445.453C247.709 441.742 247.979 440.706 251.186 436.044C254.664 430.99 254.705 430.784 252.355 430.169C246.58 428.659 249.009 420.941 259.374 407.86C266.264 399.167 268.282 392.544 266.373 384.893C265.646 381.977 264.995 378.927 264.926 378.115C264.858 377.303 264.34 376.639 263.776 376.639C263.211 376.639 263.32 375.574 264.017 374.272C265.09 372.266 264.819 371.693 262.239 370.517C258.479 368.804 252.801 370.498 252.779 373.34C252.752 376.747 251.254 376.998 246.313 374.423C243.666 373.043 240.917 371.915 240.204 371.915C239.491 371.915 236.717 370.028 234.04 367.722C231.363 365.416 228.508 363.003 227.696 362.36C226.884 361.718 226.22 359.967 226.22 358.469C226.22 356.971 225.177 354.802 223.902 353.648C222.627 352.495 220.975 349.706 220.231 347.451C219.253 344.488 218.521 343.709 217.589 344.641C215.643 346.587 212.762 346.218 205.77 343.125C202.114 341.509 198.306 338.748 196.785 336.612C195.333 334.572 192.558 332.084 190.62 331.081C187.42 329.426 186.62 329.439 181.96 331.219L176.825 333.18L161.071 325.546C151.38 320.85 143.859 316.371 141.529 313.907C137.917 310.087 137.8 309.673 139.002 304.938C140.103 300.6 139.916 299.258 137.522 294.311C136.014 291.197 132.721 286.414 130.203 283.682C127.685 280.95 125.91 278.252 126.26 277.687C126.61 277.121 124.836 273.309 122.318 269.215C119.458 264.565 117.44 259.583 116.939 255.937C116.296 251.264 115.547 249.834 113.176 248.754C110.663 247.609 109.96 247.755 108.521 249.721C106.494 252.489 107.07 255.412 111.552 265.096C113.373 269.032 115.255 274.866 115.734 278.061C116.213 281.255 117.628 285.875 118.879 288.326C121.841 294.132 119.928 294.03 115.257 288.132C112.502 284.654 111.758 282.746 112.306 280.565C112.89 278.236 112.315 277.114 109.452 274.997C105.109 271.786 104.19 269.715 105.785 266.735C106.715 264.997 106.289 263.09 103.926 258.429C101.527 253.694 101.026 251.401 101.62 247.885C102.59 242.138 100.012 236.937 95.2053 234.945C92.4301 233.796 91.4734 232.51 90.9079 229.169C90.5078 226.805 89.7416 223.148 89.2052 221.042C88.6472 218.851 88.6878 216.93 89.3001 216.552C89.8887 216.188 89.5035 214.567 88.4442 212.951C86.8841 210.57 86.7772 209.443 87.8818 207.018C88.6318 205.372 88.9149 203.491 88.5109 202.837C88.1069 202.183 89.1137 200.23 90.7482 198.497C92.3827 196.763 94.5588 193.306 95.5839 190.813C96.6091 188.321 99.7682 183.701 102.604 180.547C105.44 177.393 109.036 171.867 110.594 168.268C112.757 163.272 114.025 161.72 115.954 161.704C117.343 161.694 118.406 162.348 118.316 163.16C117.94 166.544 120.615 165.502 123.62 161.094C125.392 158.495 126.348 156.192 125.744 155.976C125.141 155.759 124.648 154.782 124.648 153.803C124.648 152.825 122.203 149.648 119.214 146.744C114.258 141.927 113.939 141.288 115.587 139.467C116.923 137.992 117.08 136.909 116.189 135.318C114.624 132.521 117.094 126.259 119.771 126.234C120.877 126.223 121.193 125.847 120.514 125.348C118.99 124.229 118.3 121.687 118.514 117.984C118.856 112.07 117.562 109.597 113.165 107.76C110.794 106.769 107.175 104.678 105.123 103.113C103.072 101.548 100.469 100.268 99.3398 100.268C98.2102 100.268 93.0754 99.1933 87.9292 97.8793C79.6554 95.7668 78.1972 95.6834 75.3311 97.1585C69.3916 100.215 63.0989 101.461 60.5334 100.088C58.6092 99.0585 56.5092 99.6945 49.1866 103.525C44.2445 106.11 38.3408 108.626 36.0672 109.116C33.7937 109.607 29.4426 111.263 26.3982 112.797C17.7627 117.148 5.39247 121.535 1.97077 121.459C-0.237526 121.409 1.25547 120.441 7.13096 118.111C17.1164 114.151 27.3768 108.994 28.3259 107.459C29.4948 105.567 26.9575 104.889 23.9095 106.278C21.6654 107.3 20.2824 107.204 17.6929 105.848L14.3624 104.103L17.9852 102.229C22.0806 100.111 23.3689 97.7153 22.428 93.9662C21.5167 90.3353 26.5413 87.6674 37.3657 86.0349C43.1817 85.1578 47.6032 83.6977 50.58 81.6713C55.8292 78.0979 54.9274 75.3972 49.2677 77.7415C46.5885 78.8513 44.6369 78.8634 40.6691 77.795C35.8471 76.4966 35.6753 76.3112 37.8321 74.7341C41.4411 72.0952 48.9051 70.5079 53.8092 71.3365C56.9124 71.8607 59.4543 71.4937 62.0631 70.1447L65.8328 68.1953L63.3513 65.5538C61.9864 64.101 60.8697 62.6 60.8697 62.2182C60.8697 61.1224 67.9798 58.9308 71.535 58.9308C73.3095 58.9308 78.1741 57.6462 82.3452 56.0762C86.5163 54.5062 96.1397 52.3628 103.73 51.3131C116.042 49.6105 118.649 49.5897 127.881 51.1205C133.573 52.0643 141.419 53.1899 145.316 53.6219C149.214 54.0539 156.112 55.4251 160.647 56.6691C171.177 59.5582 178.036 59.5229 189.8 56.5193C194.995 55.1929 200.245 54.4251 201.468 54.8131C202.69 55.201 204.768 54.9414 206.086 54.2361C207.902 53.2643 209.31 53.3819 211.901 54.7216C214.242 55.932 217.131 56.2775 221.065 55.8173C225.215 55.3318 228.849 55.8346 234.155 57.6285C238.194 58.9944 242.68 60.1119 244.124 60.1119C246.682 60.1119 246.69 60.1553 244.457 61.7991C242.266 63.4111 242.26 63.5236 244.317 64.3206C245.501 64.7794 249.611 64.8264 253.45 64.4251C260.384 63.7004 260.444 63.7208 262.378 67.4597L264.324 71.2239L266.851 68.0551C268.303 66.2341 271.754 64.1712 274.963 63.2052C279.815 61.7452 281.287 61.7501 286.159 63.2422C289.599 64.2955 293.715 64.6792 296.798 64.2339C300.724 63.6669 302.547 64.0201 305.108 65.8439C308.342 68.1465 308.431 68.1477 311.299 65.9249C312.9 64.6845 316.194 63.1168 318.618 62.4411C324.424 60.8237 326.393 57.3771 322.906 54.9352C320.441 53.2084 320.549 53.0766 327.029 49.8983C331.863 47.5278 334.039 46.9895 334.981 47.9316C335.923 48.8736 335.914 49.9099 334.946 51.7176C333.297 54.7987 335.35 59.4559 337.922 58.469C338.846 58.1142 340.38 58.1221 341.33 58.4867C342.822 59.0592 342.798 59.5447 341.154 62.0535C336.613 68.984 346.794 67.0203 353.686 59.6363C356.488 56.6342 360.83 55.724 364.899 57.2856C367.527 58.294 367.281 59.1196 362.929 63.8916C357.742 69.5784 355.088 70.7415 347.299 70.7415C343.534 70.7415 339.089 71.5571 337.018 72.6281C334.151 74.1106 332.753 74.2339 330.492 73.2036C326.277 71.283 324.809 72.8816 327.833 76.1004L330.414 78.8479L325.265 80.3094C322.432 81.1133 317.723 81.8487 314.8 81.9437C310.561 82.0814 309.484 82.5416 309.477 84.2173C309.471 85.6512 307.409 87.1603 302.981 88.9703C288.634 94.8351 276.463 105.41 280.869 108.182C281.695 108.701 283.005 110.573 283.782 112.342C284.676 114.378 286.399 115.798 288.481 116.215C290.29 116.577 294.958 118.444 298.856 120.363C302.753 122.283 307.537 124.2 309.485 124.625C314.85 125.794 314.897 125.918 312.399 132.257C310.261 137.68 310.218 138.454 311.874 141.658C312.867 143.578 314.33 145.13 315.126 145.107C318.996 144.995 322.624 141.424 324.879 135.507C327.028 129.869 328.007 128.817 334.176 125.522C343.279 120.66 347.064 115.871 346.056 110.494C345.399 106.991 345.74 106.169 348.738 104.035C350.627 102.689 353.128 99.4696 354.296 96.8796C356.907 91.0903 361.102 89.0834 368.176 90.2399C374.449 91.2655 381.868 95.2484 382.764 98.0718C383.132 99.2308 382.827 101.312 382.085 102.697C380.963 104.795 381.175 105.681 383.355 108.002L385.973 110.788L390.248 108.573C392.599 107.354 396.367 104.977 398.622 103.29L402.721 100.222L403.684 102.826C404.213 104.257 404.364 106.166 404.018 107.068C403.672 107.969 403.941 109.738 404.616 110.999C405.375 112.417 405.434 114.022 404.771 115.207C404.023 116.543 404.523 118.573 406.423 121.919C409.147 126.714 409.147 126.717 406.755 128.392C403.609 130.597 405.628 132.934 409.081 131.086C412.512 129.25 416.438 129.489 418.86 131.68C422.439 134.92 419.463 138.795 409.961 143.265C399.626 148.128 395.02 149.091 381.531 149.21C371.57 149.298 370.251 149.616 360.567 154.258C354.883 156.983 350.232 159.68 350.232 160.251C350.232 162.688 352.023 162.476 358.895 159.226C362.943 157.31 368.162 155.78 370.647 155.78C374.893 155.779 375.048 155.91 373.722 158.387C372.954 159.822 371.298 161.828 370.041 162.846C368.066 164.445 367.95 165.12 369.187 167.834C371.041 171.904 375.884 173.863 381.677 172.885L386.255 172.113L382.735 174.541C380.799 175.877 377.61 177.316 375.648 177.74C373.687 178.164 369.656 179.733 366.69 181.227C363.68 182.743 360.656 183.546 359.843 183.044C357.974 181.888 359.947 180.155 366.02 177.618C371.421 175.361 370.557 172.964 364.737 174.056C362.47 174.481 355.118 177.25 348.4 180.21C337.913 184.829 336.084 186.048 335.473 188.828C334.723 192.244 332.163 193.86 323.162 196.599C320.291 197.472 316.57 199.583 314.894 201.29C313.219 202.997 310.01 205.552 307.764 206.969C305.518 208.385 303.367 210.867 302.985 212.483C302.355 215.148 302.209 215.211 301.42 213.158C299.942 209.313 297.715 213.072 297.587 219.63C297.456 226.349 294.05 230.932 286.581 234.441C278.923 238.039 268.026 246.542 265.818 250.641C263.869 254.261 263.787 255.671 264.988 264.974C266.109 273.653 266.042 275.831 264.567 278.682C263.466 280.812 262.182 281.829 261.113 281.419C258.579 280.447 255.479 270.018 256.348 265.388C256.951 262.171 256.551 260.952 254.154 258.7C252.222 256.886 250.439 256.196 248.924 256.677C247.658 257.078 244.081 256.317 240.97 254.983C236.204 252.94 234.683 252.769 231.28 253.892C228.973 254.653 226.68 256.459 225.93 258.106C224.813 260.557 224.073 260.872 220.989 260.209C218.994 259.78 215.927 258.695 214.172 257.799C209.852 255.592 207.433 255.746 202.58 258.536C200.316 259.838 195.698 262.329 192.316 264.072C188.429 266.075 185.76 268.354 185.06 270.268C184.451 271.933 182.273 278.424 180.22 284.691L176.488 296.088L178.394 303.444C181.897 316.959 186.769 321.005 196.922 318.828C204.575 317.186 209.172 313.86 210.861 308.741C211.934 305.49 213.092 304.415 216.557 303.453C221.771 302.004 223.949 301.951 225.951 303.222C227.604 304.271 227.023 305.997 219.623 322.018C214.546 333.011 214.911 333.994 223.61 332.739C231.536 331.596 238.78 332.474 239.626 334.679C239.956 335.539 239.42 341.34 238.434 347.57C236.67 358.716 236.683 358.966 239.222 363.073C240.641 365.369 243.301 368.023 245.134 368.971C248.06 370.484 248.978 370.48 252.659 368.942C258.509 366.498 261.685 366.757 265.748 370.007C268.997 372.607 269.456 372.68 272.009 371.007C273.525 370.014 275.592 367.554 276.603 365.539C278.884 360.996 282.726 357.803 285.953 357.768C287.302 357.754 289.653 356.413 291.179 354.789C294.277 351.491 299.733 350.417 297.066 353.63C294.828 356.326 293.549 364.999 294.991 367.694C296.192 369.938 296.289 369.925 298.474 367.226C300.03 365.304 300.344 364.072 299.493 363.222C297.465 361.193 298.075 359.507 301.85 356.717C305.769 353.819 308.801 354.117 312.183 357.73C314.662 360.38 327.902 363.961 331.696 363.009C337.474 361.559 353.087 371.052 358.953 379.582C361.746 383.644 370.67 387.731 374.593 386.746C382.665 384.721 393.731 392.807 396.318 402.623C397.089 405.546 398.251 408.269 398.9 408.673C400.624 409.747 398.042 413.988 392.4 419.356C388.795 422.785 387.934 424.262 388.948 425.276C389.962 426.29 391.629 425.401 395.632 421.711C401.455 416.345 403.397 415.8 406.314 418.717C408.088 420.491 408.034 420.852 405.602 423.441C404.154 424.983 402.131 426.278 401.108 426.319C400.029 426.362 400.465 426.88 402.145 427.551C404.452 428.472 405.656 428.213 408.05 426.278C414.286 421.24 415.752 420.998 421.291 424.093C424.893 426.104 426.335 427.636 426.153 429.256C425.648 433.76 426.71 434.757 429.833 432.711C432.315 431.085 434.017 431.008 442.321 432.145C451.153 433.354 452.31 433.836 456.547 438.074C459.693 441.22 463.232 443.289 467.677 444.581C473.646 446.316 474.294 446.845 475.377 450.865C476.946 456.694 475.108 463.162 470.134 469.306C468.01 471.93 465.406 475.783 464.347 477.868C463.289 479.952 461.039 483.042 459.347 484.735C456.482 487.599 456.323 488.316 457.037 495.117C458.432 508.405 451.932 533.196 445.663 538.497C443.622 540.223 441.875 540.629 438.639 540.128C435.978 539.715 434.009 539.981 433.489 540.823C433.026 541.572 430.447 543.152 427.758 544.334C425.068 545.517 421.065 548.025 418.861 549.907C415.046 553.166 414.918 553.527 416.202 557.417C417.682 561.902 416.685 567.212 413.513 571.741C412.487 573.206 411.648 575.697 411.648 577.277C411.648 578.858 410.416 581.796 408.91 583.806C407.404 585.816 404.498 590.417 402.453 594.031C397.423 602.921 394.398 604.462 387.103 601.847C380.773 599.578 377.397 599.307 377.397 601.068C377.397 601.732 378.659 602.849 380.201 603.552C381.743 604.255 384.147 607.116 385.542 609.909C387.62 614.07 387.84 615.514 386.757 617.891C385.079 621.573 378.665 624.664 372.702 624.664C367.421 624.664 366.111 625.956 367.935 629.364C369.061 631.468 368.304 634.853 366.126 637.448C365.95 637.658 364.101 636.948 362.017 635.871C357.043 633.299 355.282 634.937 357.796 639.799C358.818 641.776 360.763 643.745 362.116 644.175C364.443 644.913 364.468 645.077 362.577 647.167C361.475 648.385 360.903 650.233 361.305 651.279C361.736 652.403 360.774 654.831 358.948 657.225C355.98 661.117 355.937 661.386 357.84 664.29C358.928 665.951 360.625 667.619 361.612 667.998C365.169 669.363 365.758 674.026 363.046 679.342C360.329 684.668 359.912 690.008 362.015 692.542C363.927 694.846 357.494 699.334 354.601 697.715H354.601ZM267.557 186.181C270.713 179.587 276.585 174.676 281.314 174.676C284.718 174.676 284.758 175.228 281.642 179.19L279.191 182.306L281.705 184.342C283.731 185.982 284.776 186.124 287.086 185.072C288.662 184.354 290.278 182.739 290.677 181.483C291.219 179.775 292.101 179.375 294.18 179.897C296.105 180.381 297.31 179.967 298.102 178.552C300.502 174.263 294.395 168.779 289.899 171.185C286.683 172.907 282.48 169.482 283.377 165.869C283.709 164.531 283.025 162.2 281.841 160.637C279.4 157.415 275.686 157.076 267.557 159.332C264.634 160.144 261.301 160.771 260.15 160.727C258.999 160.682 258.366 161.145 258.743 161.756C259.121 162.366 258.999 162.877 258.474 162.891C257.948 162.906 256.196 163.934 254.579 165.176L251.64 167.434L254.941 168.689C257.521 169.67 259.042 169.53 261.908 168.048C265.276 166.306 265.9 166.307 269.576 168.06C271.79 169.116 274.813 169.658 276.344 169.274C277.865 168.892 279.436 169.107 279.835 169.751C280.242 170.41 278.578 171.258 276.035 171.688C269.123 172.855 265.532 175.734 260.518 184.124C256.331 191.133 256.09 191.978 257.76 193.831C259.397 195.649 259.85 195.677 262.096 194.106C263.476 193.141 265.933 189.575 267.557 186.181V186.181ZM289.015 193.472C293.22 191.327 293.624 190.788 292.142 189.306C290.661 187.825 289.725 187.921 284.904 190.053C279.245 192.557 277.449 195.935 281.777 195.935C283.102 195.935 286.359 194.827 289.015 193.472ZM309.957 184.547C312.417 182.824 312.508 182.486 310.773 181.515C308.219 180.086 300.627 182.549 300.627 184.807C300.627 187.133 306.498 186.97 309.957 184.547ZM398.656 694.584C398.656 694.064 399.294 693.001 400.073 692.221C400.853 691.442 401.044 690.804 400.499 690.804C399.953 690.804 398.87 691.676 398.091 692.741C396.973 694.27 396.2 694.402 394.417 693.367C393.143 692.628 392.834 692.041 393.706 692.021C394.557 692.001 394.924 691.454 394.522 690.804C393.751 689.557 395.778 689.217 401.609 689.615C406.813 689.97 407.336 690.73 404.12 693.26C401.123 695.617 398.656 696.215 398.656 694.584V694.584ZM1385.01 664.942C1381.63 662.801 1388.66 658.074 1406.11 650.765C1410.98 648.723 1418.41 644.455 1422.61 641.278C1429.75 635.877 1430.34 635.643 1431.76 637.665C1433.91 640.734 1432.64 642.955 1427.39 645.322C1424.89 646.453 1421.73 648.646 1420.38 650.194C1419.04 651.743 1416.87 653.01 1415.57 653.01C1414.27 653.01 1411.21 654.8 1408.77 656.988C1400.43 664.476 1389.86 668.014 1385.01 664.942ZM1302.35 649.599C1301.12 648.821 1301.05 648.021 1302.05 646.151C1302.77 644.812 1303.36 642.051 1303.36 640.016C1303.36 636.689 1303.63 636.41 1306.01 637.25C1307.48 637.765 1310.53 638.255 1312.81 638.34C1315.08 638.425 1317.35 638.571 1317.85 638.666C1319.81 639.033 1314.58 644.988 1309.88 647.743C1304.28 651.025 1304.51 650.968 1302.35 649.599V649.599ZM1438.83 639.271C1438.42 638.86 1439.39 637.494 1440.99 636.235C1443.4 634.339 1443.68 633.538 1442.63 631.569C1441.1 628.72 1443.37 625.663 1448.61 623.49C1452.67 621.807 1453.7 618.392 1452.61 610.149C1451.86 604.478 1451.95 604.124 1453.78 605.635C1455.21 606.822 1455.57 608.317 1455.05 611.044C1454.49 614.032 1455 615.585 1457.49 618.547C1460.18 621.747 1460.98 622.095 1463.08 620.973C1465.16 619.856 1465.41 619.958 1464.75 621.671C1464.33 622.774 1463.98 623.885 1463.98 624.14C1463.98 624.395 1462.26 625.488 1460.14 626.569C1458.03 627.65 1453.91 630.509 1450.99 632.922C1446.24 636.847 1441.35 640.018 1440.05 640.018C1439.79 640.018 1439.24 639.682 1438.83 639.271V639.271ZM1313.93 624.017C1311.45 621.369 1310.99 621.267 1308.6 622.833C1305.55 624.828 1299.83 623.662 1295.24 620.112C1292.8 618.218 1292.63 617.608 1293.89 615.251C1294.97 613.239 1295 611.829 1294.03 609.696C1293.31 608.123 1292.73 605.799 1292.73 604.53C1292.73 601.669 1290.87 601.532 1289.33 604.281C1288.7 605.412 1287.84 605.999 1287.43 605.586C1287.01 605.172 1288.38 602.891 1290.47 600.516C1295.6 594.67 1293.6 593.084 1286.82 597.624C1283.9 599.58 1281.32 601.717 1281.09 602.373C1280.86 603.029 1279.45 601.005 1277.97 597.875C1276.36 594.481 1273.58 591.071 1271.08 589.425C1267.33 586.953 1266.05 586.749 1258.84 587.467C1248.27 588.519 1238.07 591.126 1231.4 594.482C1228.36 596.008 1222.44 597.57 1217.87 598.049C1213.4 598.518 1206.3 600.2 1202.08 601.788C1195.63 604.215 1193.79 604.47 1190.53 603.392C1186.14 601.945 1184.32 598.963 1187.16 597.875C1188.18 597.481 1190.05 594.771 1191.3 591.852C1193.3 587.18 1193.41 585.726 1192.22 579.689C1191.24 574.695 1191.21 569.967 1192.12 562.278C1192.81 556.473 1193.07 550.58 1192.71 549.183C1192.34 547.786 1192.91 544.366 1193.98 541.583C1195.85 536.676 1196.3 536.355 1208.97 530.988C1216.16 527.945 1223.52 525.454 1225.32 525.454C1230.2 525.454 1236.25 520.809 1239.58 514.498C1241.64 510.597 1243.07 509.113 1244.3 509.591C1247.75 510.924 1248.43 510.662 1248.17 508.104C1248 506.459 1248.7 505.263 1250.11 504.817C1251.33 504.431 1253.57 502.28 1255.1 500.037C1256.67 497.742 1259.89 495.155 1262.48 494.117C1266.79 492.386 1267.22 492.412 1269.56 494.544C1273.89 498.477 1276.96 499.625 1278.42 497.861C1279.13 497.003 1279.38 495.963 1278.96 495.55C1277.61 494.198 1283.8 486.436 1286.82 485.691C1288.45 485.29 1291.78 483.958 1294.23 482.73C1298.05 480.815 1299.4 480.688 1303.68 481.838C1312.91 484.317 1313.22 484.722 1309.79 489.912C1305.37 496.586 1306.54 499.196 1317.37 506.822C1322.38 510.343 1327.1 513.013 1327.87 512.757C1328.64 512.5 1331.07 509.805 1333.27 506.766C1336.28 502.626 1337.44 499.615 1337.92 494.746C1338.61 487.83 1341.91 478.211 1343.61 478.211C1344.17 478.211 1345.46 481.056 1346.47 484.532C1347.48 488.009 1349.59 492.066 1351.17 493.548C1354.86 497.012 1357 506.699 1355.35 512.422C1354.25 516.214 1354.46 516.823 1358.22 520.69C1360.45 522.985 1363.98 528.584 1366.07 533.131C1368.15 537.678 1371.9 544.112 1374.41 547.428L1378.97 553.458L1377.67 562.774C1376.73 569.533 1375.28 574.038 1372.37 579.185C1367.92 587.069 1361.27 594.592 1357.76 595.706C1356.5 596.106 1353.57 599.065 1351.26 602.281C1348.95 605.498 1346.54 608.129 1345.91 608.129C1345.27 608.129 1342.57 610.889 1339.9 614.263C1335.45 619.889 1334.64 620.404 1330 620.491C1326.45 620.558 1323.72 621.523 1320.8 623.75L1316.65 626.913L1313.93 624.017H1313.93ZM738.02 599.184C735.519 596.683 735.101 595.404 735.66 591.959C736.186 588.717 735.685 586.811 733.438 583.504C731.843 581.156 730.537 578.657 730.537 577.951C730.537 577.245 728.449 573.868 725.896 570.446C721.951 565.158 721.14 563.046 720.49 556.355C719.342 544.55 715.572 531.773 710.506 522.512C708.015 517.959 705.623 512.048 705.189 509.375C704.266 503.689 706.575 495.226 711.847 484.973L715.354 478.152L713.383 472.219C712.281 468.901 711.742 464.974 712.161 463.306C712.651 461.354 712.124 459.029 710.636 456.572C709.386 454.507 707.529 449.895 706.51 446.322C705.149 441.55 703.252 438.447 699.361 434.629C691.875 427.285 690.902 424.394 693.225 416.403C697.954 400.135 692.845 390.647 680.364 392.518C675.505 393.247 675.319 393.156 674.632 389.723C674.105 387.089 672.678 385.54 669.093 383.711C664.434 381.334 662.441 381.325 656.72 383.655C655.421 384.184 650.106 386.018 644.91 387.73C637.096 390.305 634.749 390.637 631.348 389.65C628.126 388.716 625.412 388.957 618.818 390.766C612.004 392.636 609.534 392.836 605.853 391.82C598.171 389.699 584.973 377.803 583.096 371.308C581.643 366.282 572.608 354.568 569.533 353.724C567.579 353.188 567.339 352.773 568.535 352.001C569.738 351.224 569.529 350.831 567.649 350.339C564.664 349.559 564.367 347.12 567.254 347.094C569.021 347.079 569.063 346.91 567.549 345.931C566.434 345.21 566.31 344.78 567.214 344.768C568.152 344.757 567.795 343.3 566.186 340.572C563.92 336.733 563.873 336.225 565.604 334.313C570.888 328.474 572.046 315.903 568.029 307.982C566.111 304.201 567.344 298.978 571.436 293.548C572.977 291.503 575.985 286.528 578.121 282.493C581.857 275.433 590.185 265.618 592.439 265.618C594.934 265.618 602.982 256.966 602.982 254.285C602.982 248.23 606.601 242.194 612.503 238.407C615.674 236.372 619.39 232.893 620.76 230.675C623.564 226.139 623.961 225.991 627.226 228.267C628.507 229.16 631.691 230.248 634.301 230.686C638.282 231.354 640.185 230.873 646.112 227.704C656.31 222.25 662.612 220.888 674.281 221.616C681.977 222.096 685.441 221.789 689.172 220.296C694.665 218.098 699.415 219.399 698.129 222.75C697.743 223.756 697.979 225.246 698.653 226.059C699.503 227.082 699.496 228.548 698.632 230.82C697.546 233.675 697.787 234.525 700.476 237.332C702.178 239.107 705.223 240.891 707.245 241.295C716.737 243.193 719.436 244.423 721.396 247.741C722.832 250.172 724.715 251.42 727.827 252.004C730.247 252.458 733.761 253.622 735.637 254.592C738.821 256.239 739.233 256.179 741.889 253.684C743.674 252.007 744.484 250.231 744.065 248.912C743.698 247.756 743.978 245.727 744.686 244.404C746.514 240.989 751.702 241.324 759.802 245.38C768.628 249.798 785.365 252.951 791.298 251.313C794.152 250.525 796.896 250.514 799.394 251.282C807.555 253.79 811.734 251.827 812.849 244.962C813.219 242.681 813.85 240.816 814.253 240.816C815.016 240.816 815.416 237.387 815.526 229.891C815.562 227.455 816.138 225.462 816.806 225.462C817.601 225.462 817.562 224.606 816.692 222.981C815.24 220.267 812.294 220.329 805.245 223.222C801.901 224.594 800.971 224.536 797.976 222.766C794.092 220.472 790.107 220.128 788.958 221.988C788.103 223.371 782.064 222.401 778.789 220.356C776.436 218.886 774.237 214.512 774.237 211.3C774.237 210.069 773.041 208.219 771.58 207.189C769.317 205.596 769.186 205.145 770.694 204.158C771.668 203.52 773.672 203.282 775.148 203.629C777.029 204.072 778.759 203.331 780.944 201.146C783 199.091 785.5 197.956 788.301 197.807C790.634 197.683 794.014 196.613 795.812 195.428C799.715 192.856 808.576 193.571 815.451 197.012C824.721 201.652 832.954 201.379 836.268 196.322C837.992 193.691 838.002 193.138 836.365 190.641C835.369 189.12 830.58 185.615 825.725 182.852L816.896 177.829L818.55 174.631C819.46 172.871 819.907 171.134 819.543 170.77C819.179 170.407 819.318 169.409 819.852 168.554C820.386 167.699 820.927 166.313 821.054 165.474C821.325 163.685 819.42 164.179 810.028 168.333C804.575 170.744 803.765 171.483 804.975 172.94C805.767 173.895 807.546 174.699 808.928 174.728C810.866 174.768 810.407 175.325 806.92 177.166C802.685 179.4 802.212 179.429 799.459 177.625C797.104 176.082 796.797 175.365 797.912 174.02C799.02 172.686 798.854 172.172 797.106 171.515C795.896 171.06 794.336 169.929 793.639 169C790.256 164.491 779.523 176.353 776.402 188.051C774.936 193.541 774.985 193.827 777.743 195.908L780.606 198.067L775.354 199.15C772.466 199.745 768.574 199.815 766.704 199.304C763.255 198.362 758.883 199.782 758.883 201.845C758.883 202.451 758.079 202.639 757.096 202.262C756.114 201.885 754.554 202.204 753.63 202.971C752.196 204.16 752.359 205.135 754.734 209.602C757.307 214.441 757.386 215.102 755.781 218.319C753.77 222.35 751.9 222.051 749.06 217.242C747.079 213.889 747.093 213.812 749.713 213.44C753.019 212.971 753.232 210.866 750.025 210.353C742.707 209.183 738.805 205.327 738.805 199.267C738.805 194.538 734.421 189.325 729.105 187.732C726.342 186.904 723.339 185.166 722.431 183.87C721.523 182.573 718.865 180.713 716.525 179.735C714.184 178.757 711.565 176.951 710.704 175.722C709.468 173.957 708.655 173.745 706.846 174.713C705.585 175.388 704.554 176.7 704.554 177.629C704.554 180.696 719.608 194.569 726.966 198.283C734.768 202.222 735.987 203.628 730.566 202.437C725.733 201.376 724.417 202.438 726.07 206.067C727.231 208.615 727.041 209.39 724.705 211.634L721.992 214.242L722.609 210.723C723.589 205.139 716.226 197.116 710.119 197.116C707.881 197.116 699.281 188.774 697.028 184.417C694.621 179.762 691.942 178.863 688.148 181.436C682.431 185.312 678.145 186.622 673.661 185.865C667.705 184.859 663.957 186.936 664.907 190.717C665.402 192.692 665.126 193.573 664.013 193.573C663.127 193.573 660.858 194.901 658.971 196.524C657.083 198.147 655.133 199.476 654.636 199.477C653.175 199.479 649.053 206.941 649.048 209.592C649.043 212.127 644.424 217.123 639.968 219.412C638.549 220.141 635.246 220.738 632.628 220.738C629.025 220.738 627.549 221.331 626.561 223.178C625.267 225.596 625.228 225.59 622.201 222.563C619.361 219.723 617.726 219.013 611.996 218.126C608.985 217.66 608.476 210.845 610.728 201.134C611.691 196.983 612.163 192.331 611.778 190.797C610.659 186.338 614.163 183.708 620.023 184.609C633.556 186.687 641.472 186.802 643.328 184.947C645.877 182.397 647.027 173.989 645.471 169.274C644.457 166.199 643.061 164.942 638.896 163.352C632.771 161.013 632.642 158.75 638.63 158.69C640.912 158.667 644.203 157.715 645.944 156.574C647.685 155.433 649.611 154.809 650.223 155.187C651.893 156.219 658.215 152.575 660.315 149.371C661.329 147.822 663.327 146.257 664.755 145.893C666.182 145.53 670.007 142.756 673.255 139.731C677.86 135.442 680.276 134.097 684.224 133.626C689.116 133.042 694.035 129.019 691.726 127.491C690.29 126.542 689.091 120.823 689.891 118.74C690.269 117.753 691.941 116.053 693.606 114.962L696.633 112.978L695.856 117.838C695.182 122.056 695.354 122.652 697.159 122.35C698.303 122.159 700.443 121.341 701.914 120.533C704.154 119.302 704.703 119.362 705.294 120.901C706.306 123.539 703.492 126.64 701.549 125.028C700.476 124.138 699.796 124.17 699.196 125.14C698.578 126.14 698.094 126.086 697.384 124.936C696.851 124.073 696.143 123.639 695.812 123.97C695.481 124.301 696.425 126.097 697.91 127.96C700.414 131.1 700.891 131.249 704.46 130.005C707.516 128.939 708.984 129.012 711.586 130.358C714.523 131.877 715.515 131.804 721.161 129.659C726.108 127.779 728.057 127.538 730.247 128.536C732.261 129.454 733.753 129.435 735.624 128.468C740.937 125.723 742.408 123.653 741.749 119.853C740.771 114.222 742.562 112.377 747.277 114.157C750.486 115.368 751.424 115.32 752.874 113.87C754.41 112.334 754.277 111.767 751.761 109.089C749.34 106.511 749.17 105.871 750.646 104.875C751.604 104.229 755.192 103.998 758.619 104.361C764.892 105.025 772.709 102.575 771.347 100.371C770.155 98.4406 762.954 97.8829 756.854 99.248C751.445 100.459 750.025 100.361 745.878 98.4911C739.439 95.5871 738.68 92.1896 743.097 86.0335C748.782 78.1096 749.822 75.5845 748.203 73.6331C745.804 70.7436 743.449 71.6856 737.97 77.7246C735.075 80.9157 731.131 84.1795 729.204 84.9774C727.278 85.7754 724.895 87.9884 723.909 89.8951C722.303 93.0004 722.305 93.6512 723.933 96.1351C724.932 97.6603 726.827 99.25 728.144 99.6679C731.767 100.818 731.05 102.976 725.868 106.522C724.274 107.612 722.148 110.698 721.143 113.378C719.885 116.737 717.971 119.029 714.986 120.752C710.778 123.181 710.587 123.191 708.262 121.086C706.946 119.895 705.549 117.466 705.158 115.687C704.768 113.909 702.994 110.712 701.217 108.583L697.985 104.712L693.888 107.21C691.634 108.584 688.727 109.698 687.428 109.686C683.68 109.652 679.341 105.603 679.051 101.87C678.907 100.015 678.424 97.5869 677.98 96.4747C676.921 93.8293 682.21 88.8681 687.706 87.3505C693.222 85.8275 704.41 77.9866 706.317 74.3076C707.165 72.6711 710.038 69.378 712.702 66.9895C715.366 64.6011 717.545 62.1205 717.545 61.4771C717.545 60.8338 720.07 59.4077 723.156 58.3082C726.241 57.2087 731.423 55.2137 734.671 53.8749C738.659 52.2312 743.645 51.3622 750.025 51.199C761.173 50.9138 768.463 52.3915 774.479 56.1553C777.497 58.0439 779.879 58.6882 782.159 58.2323C786.236 57.4168 807.974 64.1543 808.879 66.5146C809.79 68.8868 803.555 71.1261 798.191 70.3536C795.735 69.9997 790.654 69.0535 786.901 68.2509C781.848 67.1704 779.732 67.1363 778.749 68.1195C777.766 69.1027 778.257 69.8284 780.642 70.915C782.413 71.7222 784.631 73.8683 785.57 75.6842C787.961 80.308 795.619 84.0772 799.57 82.575C803.366 81.1317 803.34 80.6765 799.335 78.5036C795.63 76.4938 797.34 76.0593 801.992 77.8282C805.707 79.2406 809.916 77.4835 808.936 74.9294C808.477 73.7332 809.768 72.8695 813.409 71.9365C821.201 69.9398 821.771 69.6544 821.125 68.0742C818.68 62.0974 818.646 62.2691 822.203 62.6752C824.101 62.892 825.488 63.7037 825.33 64.5057C825.174 65.2983 826.163 66.5444 827.528 67.2748C829.578 68.3721 831.195 67.9812 836.833 65.0263C845.099 60.6933 851.534 59.2806 853.934 61.2723C855.272 62.3828 857.491 62.3906 863.913 61.3074C868.455 60.5412 872.688 60.2333 873.318 60.623C873.949 61.0127 874.813 60.7681 875.239 60.0795C876.169 58.5736 873.595 55.1565 872.186 56.0273C870.485 57.0786 864.899 55.1953 866.114 53.9802C867.338 52.7567 900.207 60.4157 902.174 62.3828C903.5 63.7088 907.698 61.9398 907.698 60.0551C907.698 59.4199 905.354 57.7614 902.489 56.3694C893.606 52.0537 893.035 45.1417 901.389 43.045C906.238 41.8281 908.335 43.2318 915.041 52.1846C923.747 63.808 923.525 63.2166 920.681 67.2113C918.574 70.1694 918.447 70.8617 919.909 71.4225C922.678 72.485 928.604 68.7669 929.438 65.4438C930.415 61.55 928.591 58.2316 924.233 55.9782C920.807 54.2067 918.328 50.9606 918.328 48.2475C918.328 47.3226 919.613 47.092 922.166 47.5584C925.995 48.2577 929.162 46.8692 937.832 40.6899C939.815 39.2767 943.167 38.3455 946.547 38.2689C953.403 38.1134 955.622 36.9624 953.649 34.5852C952.875 33.653 952.488 32.6443 952.789 32.3438C954.297 30.8354 973.741 28.1174 978.219 28.7889C982.528 29.4351 983.862 29.0855 987.407 26.3816C989.688 24.6418 991.554 22.75 991.554 22.1775C991.554 20.7338 981.233 20.8628 980.334 22.3177C979.097 24.3196 977.493 23.623 977.944 21.2797C978.325 19.3012 977.326 18.9792 968.723 18.3094C945.232 16.4804 943.322 16.0512 946.141 13.2331C948.618 10.7554 954.695 10.8034 959.782 13.3409C961.866 14.3806 965.318 15.2313 967.454 15.2313C969.589 15.2313 971.665 15.7627 972.066 16.4123C972.468 17.0619 974.537 17.5934 976.663 17.5934C982.554 17.5934 993.943 20.1378 993.228 21.2941C992.88 21.8571 993.982 22.3177 995.677 22.3177C997.371 22.3177 1000.46 23.233 1002.54 24.3516C1005.33 25.856 1009.24 26.3972 1017.54 26.4305C1026.46 26.4662 1029.42 26.9244 1032.01 28.6661C1033.79 29.871 1035.25 31.1943 1035.24 31.6068C1035.23 32.0193 1032.5 33.8563 1029.18 35.6891C1021.16 40.1155 1022.85 42.0445 1032.56 39.5299C1038.84 37.9011 1040.29 37.8907 1045.49 39.4362C1049.76 40.7042 1052.43 40.867 1055.32 40.0365C1058.21 39.2074 1061.18 39.3855 1066.22 40.69C1071.47 42.0512 1074.19 42.1897 1077.52 41.265C1085.12 39.1548 1094.47 39.7508 1099.89 42.6912C1102.58 44.1528 1107.56 46.8571 1110.94 48.7009C1116.93 51.9691 1117.19 52.0052 1121.34 50.1422C1124.82 48.5827 1126.76 48.4523 1131.89 49.4331C1136.99 50.408 1138.85 50.2892 1141.72 48.8041C1144.53 47.3512 1144.98 46.637 1143.91 45.3449C1141.84 42.8462 1149.19 41.9173 1158.23 43.5365C1162.37 44.2781 1167.62 45.0184 1169.9 45.1816C1172.17 45.3448 1176.61 46.6404 1179.77 48.0608C1184.58 50.2269 1188.21 50.7176 1202.29 51.1043C1215.65 51.4713 1219.91 52.0059 1223.13 53.7237C1226.4 55.4672 1230.13 55.9107 1242.53 56.0316C1253.94 56.1429 1259.06 56.684 1262.44 58.1388C1267.9 60.4872 1270.09 59.6259 1267.12 56.2965C1264.98 53.9016 1264.99 53.8983 1273.24 54.7179C1287.06 56.0913 1303.65 59.1165 1309.26 61.2892C1312.19 62.4205 1317.76 63.7351 1321.64 64.2105C1325.53 64.6859 1331.2 66.3372 1334.24 67.88C1338.87 70.2217 1340.37 70.4804 1343.33 69.446C1347.39 68.0314 1350.02 69.05 1356.22 74.4326L1360.07 77.7771L1357.17 78.5054C1354.26 79.2363 1346.53 77.3219 1343.86 75.2104C1343.08 74.5895 1341.98 74.3643 1341.42 74.71C1340.86 75.0556 1338.1 74.5444 1335.28 73.5739C1328.68 71.3008 1325.75 72.1546 1328.76 75.4748C1330.81 77.7424 1330.77 77.79 1326.85 77.5171C1319.53 77.0062 1321.54 79.169 1332.29 83.3628C1338.14 85.643 1343.17 87.7512 1343.48 88.0475C1344.59 89.1205 1340.93 90.4506 1338.27 89.9423C1335.35 89.3841 1328.16 92.5177 1328.16 94.3474C1328.16 94.955 1327.02 96.5113 1325.63 97.8058C1323.31 99.9682 1322.83 100.017 1319.73 98.412C1316.82 96.9096 1315.89 96.894 1313.1 98.3008C1311.31 99.2007 1308.26 100.32 1306.32 100.788C1304.37 101.256 1302.12 102.189 1301.31 102.86C1298.93 104.832 1303.12 110.574 1309.03 113.432C1312.24 114.988 1314.57 117.073 1315.26 119.017C1315.87 120.723 1317.16 123.524 1318.12 125.242C1319.7 128.043 1319.68 128.441 1317.99 129.091C1316.75 129.567 1316.39 130.521 1316.93 131.872C1317.38 133.003 1317.89 135.258 1318.06 136.882C1318.23 138.506 1318.75 140.716 1319.22 141.795C1319.82 143.198 1319.32 143.989 1317.46 144.58C1315.39 145.238 1313.99 144.445 1310.59 140.678C1308.23 138.078 1304.31 134.499 1301.87 132.723C1299.43 130.948 1295.05 126.333 1292.14 122.466C1287.02 115.646 1286.91 115.335 1288.61 112.045C1289.58 110.179 1290.38 107.431 1290.41 105.937C1290.43 104.443 1291.18 101.901 1292.07 100.288C1293.78 97.2065 1293.12 94.7462 1289.47 90.5626C1287.08 87.8157 1282.82 89.8749 1283.89 93.2598C1284.88 96.3782 1281.85 97.3887 1278.35 95.1031C1276.84 94.1122 1273.35 92.9428 1270.61 92.5045C1265.89 91.752 1265.54 91.8967 1264.32 95.1022C1263.61 96.9693 1263.31 99.9208 1263.66 101.661C1264.2 104.373 1263.82 104.928 1261.03 105.54C1259.14 105.957 1255.88 105.464 1253.24 104.357C1250.33 103.141 1247.58 102.774 1245.61 103.335C1243.92 103.816 1238.19 104.253 1232.88 104.306C1224.48 104.39 1222.86 104.757 1220.3 107.157C1218.69 108.672 1216.75 112.392 1216 115.424C1215.24 118.456 1213.86 122.12 1212.92 123.566C1211.3 126.065 1211.46 126.318 1216.09 128.679C1221.11 131.242 1226.59 131.917 1230.74 130.486C1233.94 129.381 1243.71 136.999 1246.76 142.979C1248.01 145.428 1250.08 147.991 1251.35 148.673C1256.18 151.255 1257.16 168.195 1253.12 179.269C1250.33 186.937 1247.2 189.444 1242.61 187.699C1240.86 187.032 1239.25 186.487 1239.03 186.487C1238.81 186.487 1237.5 188.667 1236.11 191.332C1234.29 194.831 1233.93 196.594 1234.83 197.678C1236.55 199.752 1235.28 202.45 1231.84 204.017C1230.25 204.741 1228.95 205.848 1228.95 206.477C1228.95 207.106 1232.64 210.163 1237.16 213.271C1242.91 217.226 1245.98 220.263 1247.38 223.385C1248.49 225.84 1249.18 228.043 1248.92 228.282C1248.65 228.52 1246.24 229.823 1243.55 231.177L1238.67 233.64L1235.73 226.894C1232.44 219.343 1229.62 216.307 1224.65 214.969C1222.14 214.295 1221.27 213.34 1221.27 211.272C1221.27 209.376 1220.05 207.765 1217.44 206.24C1213.65 204.019 1213.58 204.021 1209.54 206.515C1205.5 209.011 1205.46 209.013 1204.22 206.696C1203.53 205.41 1202.97 203.545 1202.97 202.55C1202.97 201.556 1201.97 200.211 1200.76 199.562C1198.96 198.596 1197.82 199.18 1194.5 202.768C1192.27 205.181 1189.41 207.743 1188.15 208.46C1186.19 209.573 1186.09 210.044 1187.44 211.67C1188.31 212.719 1191.31 214.857 1194.11 216.422C1198.57 218.912 1199.42 219.054 1200.92 217.551C1202.35 216.124 1203.51 216.071 1207.82 217.241L1213.01 218.648L1210.12 220.579C1204.76 224.16 1203.07 226.039 1202.31 229.271C1201.68 231.923 1202.05 232.721 1204.43 233.806C1206.02 234.53 1208.44 237.418 1209.8 240.225C1211.16 243.031 1213.89 246.277 1215.85 247.438C1220.18 249.992 1221.43 252.705 1218.93 254.102C1216.61 255.404 1217.72 257.351 1220.79 257.351C1224.47 257.351 1224.49 259.545 1220.93 272.209C1216.63 287.547 1212.74 292.664 1202.57 296.384C1198.57 297.849 1193.69 299.136 1191.75 299.244C1187.22 299.495 1183.7 301.413 1180.64 305.309L1178.21 308.402L1177.07 305.418C1175.59 301.525 1172.2 300.546 1167.33 302.607C1162.86 304.496 1159.92 307.508 1158.73 311.403C1157.67 314.888 1161.43 321.019 1167.66 325.951C1172.77 330.001 1178.51 340.163 1179.85 347.557C1181.03 353.988 1178.95 358.21 1173.38 360.721C1170.84 361.865 1168.47 363.741 1168.1 364.89C1167.23 367.65 1161.98 371.085 1161.02 369.529C1160.62 368.881 1160.61 367.367 1160.99 366.165C1161.37 364.964 1161.35 363.118 1160.95 362.064C1160.36 360.547 1159.72 360.411 1157.85 361.409C1155.91 362.448 1155.16 362.185 1153.59 359.911C1149.74 354.322 1138.57 345.341 1135.47 345.341C1134.38 345.341 1133.96 346.653 1134.15 349.475C1134.3 351.748 1133.83 356.181 1133.12 359.325C1131.95 364.448 1132.07 365.386 1134.27 368.36C1135.62 370.185 1137.06 373.014 1137.47 374.647C1137.88 376.305 1141.3 380.092 1145.2 383.225C1151.72 388.446 1152.4 389.477 1155.14 398.151C1156.76 403.276 1158.09 407.973 1158.09 408.589C1158.09 410.592 1155.62 409.781 1150.47 406.083C1145.15 402.26 1141.75 396.213 1138.91 385.523C1137.68 380.882 1136.33 378.892 1132.5 376.075C1127.8 372.619 1127.66 372.317 1128.04 366.6C1128.25 363.352 1128.79 358.748 1129.22 356.37C1129.84 353.021 1129.33 350.621 1126.98 345.74C1125.31 342.273 1123.33 336.947 1122.58 333.906C1120.92 327.111 1118.57 325.973 1114.42 329.95C1112.71 331.594 1110.97 332.94 1110.57 332.94C1108.69 332.94 1106.1 328.938 1106.72 326.986C1107.85 323.441 1100.93 311.083 1096.88 309.406C1094.67 308.488 1092.64 306.262 1091.28 303.256C1088.93 298.033 1086.29 296.035 1083.65 297.48C1082.69 298.004 1078.86 299.058 1075.13 299.823C1068.29 301.224 1065.84 303.294 1066.78 306.871C1067.12 308.188 1065.93 309.46 1063.06 310.828C1060.73 311.936 1058.23 314.166 1057.49 315.782C1056.76 317.399 1055.14 319.045 1053.89 319.44C1052.64 319.835 1050.72 321.643 1049.62 323.457C1048.52 325.271 1045.23 328.586 1042.32 330.824C1038.33 333.887 1037.09 335.6 1037.29 337.755C1038.45 350.349 1036.67 360.887 1032.33 367.145C1028.1 373.249 1027.81 373.419 1024.23 371.788C1022.26 370.891 1021.04 369.138 1020.54 366.461C1020.13 364.268 1017.75 358.086 1015.26 352.726C1000.15 320.29 997.921 314.101 999.208 308.243C1000.08 304.285 997.991 298.313 995.976 298.989C995.168 299.261 994.493 300.234 994.476 301.152C994.375 306.543 988.318 307.371 983.588 302.64L980.453 299.506L983.15 298.508C986.184 297.385 985.906 294.358 982.819 294.913C981.722 295.11 979.212 293.915 977.241 292.256C975.27 290.597 973.202 289.24 972.646 289.24C972.09 289.24 971.296 288.171 970.881 286.865C969.793 283.435 963.527 280.451 960.387 281.867C957.562 283.141 931.925 282.875 927.634 281.527C926.088 281.041 923.229 278.819 921.28 276.589C917.759 272.559 917.705 272.543 912.422 273.966C907.417 275.316 906.69 275.188 899.948 271.785C894.122 268.844 892.377 267.258 890.579 263.27C888.284 258.182 883.188 254.497 880.09 255.686C879.114 256.061 877.974 257.921 877.557 259.821C876.958 262.548 877.569 264.321 880.465 268.259C882.481 271.001 884.678 275.276 885.347 277.759C886.783 283.094 889.62 284.681 891.971 281.465C893.39 279.525 893.773 279.457 894.734 280.978C895.347 281.949 895.678 283.276 895.469 283.925C894.812 285.967 901.628 289.326 904.808 288.528C906.415 288.125 909.849 285.388 912.438 282.446C916.519 277.81 917.943 277.497 917.246 281.39C916.776 284.01 918.838 287.081 922.25 288.845C927.52 291.569 934.863 297.639 934.863 299.271C934.863 300.023 933.482 301.927 931.795 303.502C930.108 305.077 927.68 308.409 926.399 310.907C923.287 316.976 914.268 325.853 911.214 325.853C907.684 325.853 902.433 328.834 900.343 332.024C899.352 333.535 896.749 335.667 894.557 336.762C883.331 342.366 869.816 348.047 866.012 348.761C861.945 349.524 861.616 349.339 859.461 345.09C858.214 342.63 856.798 337.693 856.316 334.121C855.688 329.474 854.472 326.52 852.042 323.745C850.173 321.611 848.644 319.353 848.644 318.727C848.644 318.101 846.513 315.392 843.908 312.708C840.664 309.365 838.567 305.737 837.253 301.191C836.198 297.541 834.051 292.96 832.482 291.012C821.642 277.551 818.433 272.805 816.817 267.848C814.675 261.279 812.864 260.219 812.029 265.044L811.435 268.469L807.44 263.424C801.283 255.651 800.507 259.184 806.287 268.674C809.022 273.165 813.382 281.091 815.976 286.287C818.569 291.484 821.932 297.38 823.448 299.391C825.009 301.46 826.204 304.695 826.204 306.85C826.204 311.3 827.532 314.078 832.748 320.538C834.845 323.137 836.918 326.93 837.353 328.969C837.911 331.583 840.191 334.316 845.092 338.247C852.54 344.221 857.367 350.457 858.565 355.654C859.015 357.606 860.719 359.61 862.881 360.728C866.174 362.431 867.334 362.384 877.743 360.129C883.952 358.784 890.53 356.909 892.36 355.962L895.687 354.242L896.477 358.917C897.195 363.165 896.422 365.211 888.014 381.337C878.974 398.676 878.551 399.249 869.562 406.346C864.502 410.34 859.207 415.231 857.796 417.213C856.384 419.196 851.867 424.551 847.758 429.113C835.768 442.426 834.138 454.135 842.09 469.829C844.11 473.815 844.899 476.833 844.421 478.741C844.022 480.327 844.278 484.334 844.988 487.645C846.106 492.859 845.979 494.253 844.044 498.045C841.252 503.516 839.03 505.483 831.224 509.395C827.813 511.104 825.023 513.007 825.023 513.624C825.023 514.241 822.631 517.439 819.708 520.73C816.785 524.021 814.393 527.249 814.393 527.903C814.393 528.557 815.489 531.239 816.828 533.865C820.843 541.735 818.145 547.438 808.521 551.424C804.464 553.105 803.132 556.536 804.136 562.72C804.661 565.961 804.327 567.039 802.491 568.022C801.223 568.7 798.931 571.226 797.398 573.634C792.557 581.237 778.64 594.691 772.317 597.88C767.041 600.541 765.692 600.776 761.816 599.706C758.398 598.762 755.64 598.911 749.91 600.351C740.63 602.682 741.614 602.779 738.02 599.184L738.02 599.184ZM893.584 222.479C896.633 220.902 897.068 220.034 897.068 215.537C897.068 212.313 896.379 209.825 895.219 208.862C894.202 208.018 892.554 205.75 891.556 203.821C889.907 200.631 889.914 200.381 891.634 201.041C893.906 201.912 897.068 200.864 897.068 199.239C897.068 198.597 895.97 196.528 894.627 194.642C892.604 191.801 891.793 191.423 889.902 192.435C888.373 193.253 887.62 193.26 887.62 192.457C887.62 191.798 885.512 190.183 882.935 188.869C877.233 185.96 875.204 182.737 876.983 179.414C878.329 176.899 883.137 175.137 885.19 176.406C887.959 178.117 888.775 175.595 886.491 172.387C880.951 164.607 873.238 165.119 863.673 173.902C857.5 179.569 856.964 181.075 860.455 182.943C861.754 183.639 862.817 184.998 862.817 185.964C862.817 186.93 864.918 189.999 867.486 192.785C873.399 199.201 874.484 202.132 873.752 209.725L873.163 215.838L881.277 220.001C885.74 222.291 889.551 224.191 889.745 224.223C889.94 224.255 891.667 223.47 893.584 222.479H893.584ZM861.046 552.389C857.711 550.497 857.237 549.499 856.366 542.528C855.67 536.957 855.961 535.746 859.293 530.33C862.68 524.825 862.924 523.765 862.177 517.786C861.098 509.153 862.934 504.616 867.952 503.515C872.679 502.478 882.908 493.448 885.359 488.147L887.232 484.097L888.534 486.954C891.809 494.143 891.476 497.301 885.777 513.068C882.728 521.504 879.457 531.596 878.508 535.493C875.471 547.967 873.746 550.974 868.771 552.465C863.475 554.052 863.987 554.057 861.046 552.389V552.389ZM1442.84 531.855C1439.07 527.732 1436.82 524.194 1436.82 522.406C1436.82 518.443 1437.45 518.789 1440.86 524.605C1442.49 527.386 1445.44 531.206 1447.41 533.093C1449.38 534.981 1450.99 536.958 1450.99 537.486C1450.99 539.758 1448.48 538.02 1442.84 531.855V531.855ZM915.966 530.178C915.966 529.529 916.497 528.997 917.147 528.997C917.796 528.997 918.328 529.529 918.328 530.178C918.328 530.828 917.796 531.359 917.147 531.359C916.497 531.359 915.966 530.828 915.966 530.178ZM1537.93 528.024C1537.51 527.35 1537.75 526.443 1538.45 526.008C1540.2 524.923 1540.83 525.786 1539.65 527.681C1539.03 528.697 1538.42 528.818 1537.93 528.024V528.024ZM924.233 526.114C924.233 525.828 924.765 525.265 925.414 524.864C926.064 524.462 926.595 524.696 926.595 525.384C926.595 526.072 926.064 526.635 925.414 526.635C924.765 526.635 924.233 526.401 924.233 526.114ZM1507.21 514.127C1506.06 511.13 1507.52 510.079 1510.78 511.562C1513.59 512.842 1513.65 513.038 1511.69 514.47C1508.95 516.473 1508.09 516.407 1507.21 514.127ZM1514.7 508.875C1512.39 507.449 1513.99 506.309 1517.66 506.763C1520.54 507.119 1520.6 507.249 1518.55 508.515C1517.24 509.325 1515.66 509.472 1514.7 508.875V508.875ZM1459.55 504.541C1457.13 499.318 1457.98 497.312 1460.49 502.339C1463.1 507.57 1463.14 507.742 1461.92 507.729C1461.43 507.724 1460.37 506.289 1459.55 504.541V504.541ZM1464.08 503.703C1464.02 502.458 1464.3 501.76 1464.7 502.153C1465.09 502.545 1465.13 503.564 1464.79 504.416C1464.41 505.358 1464.13 505.079 1464.08 503.703H1464.08ZM1560.23 492.363C1559.15 490.614 1560.17 489.721 1562.69 490.213C1564.54 490.573 1564.56 490.764 1562.89 492.146C1561.56 493.247 1560.81 493.308 1560.23 492.363V492.363ZM862.227 486.479C861.825 485.829 862.06 485.298 862.748 485.298C863.436 485.298 863.998 485.829 863.998 486.479C863.998 487.128 863.764 487.66 863.478 487.66C863.191 487.66 862.628 487.128 862.227 486.479ZM1380.72 475.382C1373.24 473.026 1369.85 470.836 1366.91 466.464C1363.55 461.47 1357.4 457.689 1354.26 458.686C1352.99 459.089 1350.85 461.28 1349.51 463.555C1347.23 467.428 1346.79 467.641 1342.64 466.903C1340.2 466.469 1336.79 464.798 1335.06 463.19C1332.87 461.146 1331.19 460.5 1329.48 461.043C1328.13 461.47 1326.18 461.345 1325.14 460.764C1323.51 459.855 1323.67 459.429 1326.27 457.728C1329.28 455.757 1329.28 455.731 1327.27 451.499C1325.64 448.1 1323.41 446.328 1316.1 442.652C1311.07 440.123 1305.38 438.055 1303.46 438.055C1299.07 438.055 1297.26 434.006 1300.57 431.587C1302.53 430.148 1302.25 429.79 1297.11 427.296C1291.66 424.647 1291.58 424.535 1294.19 423.089C1295.66 422.272 1298.03 421.585 1299.45 421.562C1302.22 421.517 1305.72 425.509 1305.72 428.71C1305.72 429.777 1306.87 432.11 1308.27 433.894C1310.79 437.092 1310.85 437.105 1312.7 434.796C1313.73 433.508 1317.03 431.05 1320.02 429.333L1325.47 426.213L1333.01 429.618C1337.16 431.491 1343.06 433.922 1346.11 435.022C1349.16 436.121 1355.26 439.39 1359.67 442.285C1368.09 447.813 1371.74 452.474 1369.65 455.001C1367.94 457.061 1374.65 466.444 1381.6 471.709C1389.24 477.495 1389.11 478.03 1380.72 475.382V475.382ZM1432.12 475.287C1431.19 474.165 1431.1 473.487 1431.88 473.487C1433.31 473.487 1434.97 475.728 1434.15 476.547C1433.85 476.844 1432.94 476.277 1432.12 475.287V475.287ZM1233.67 470.479C1231.96 469.533 1231.47 468.836 1232.49 468.823C1234.6 468.794 1237.98 470.76 1237.18 471.555C1236.87 471.861 1235.3 471.378 1233.67 470.479ZM1253.64 468.919C1256.99 464.215 1262.23 462.202 1267.08 463.758C1270.61 464.892 1270.66 464.987 1267.86 465.099C1266.2 465.165 1262.33 466.814 1259.26 468.763C1252.24 473.21 1250.55 473.257 1253.64 468.919V468.919ZM1425.01 470.534C1423.41 468.611 1423.79 468.371 1426.68 469.48C1427.71 469.874 1428.55 470.671 1428.55 471.251C1428.55 472.885 1426.64 472.498 1425.01 470.534V470.534ZM1430.54 469.492C1430.1 468.335 1429.77 466.502 1429.81 465.418C1429.86 464.113 1430.27 464.411 1431.02 466.299C1431.65 467.868 1431.98 469.701 1431.75 470.373C1431.53 471.046 1430.98 470.649 1430.54 469.492ZM1521.86 470.604C1521.86 470.318 1522.39 469.755 1523.04 469.353C1523.69 468.952 1524.22 469.186 1524.22 469.874C1524.22 470.562 1523.69 471.125 1523.04 471.125C1522.39 471.125 1521.86 470.89 1521.86 470.604ZM1219.79 465.643C1218.97 465.299 1218.61 464.532 1218.97 463.938C1219.87 462.478 1227.44 462.559 1228.36 464.038C1228.76 464.688 1228.39 465.227 1227.54 465.236C1226.69 465.245 1224.93 465.481 1223.63 465.76C1222.34 466.04 1220.6 465.988 1219.79 465.643V465.643ZM1237.32 464.757C1235.18 462.171 1237.65 461.384 1243.21 462.882C1248.82 464.391 1248.8 464.627 1242.99 465.676C1239.97 466.221 1238.31 465.952 1237.32 464.757V464.757ZM1414.65 464.038C1413.83 462.73 1413.69 461.676 1414.33 461.676C1414.96 461.676 1416.04 462.739 1416.74 464.038C1417.44 465.338 1417.58 466.401 1417.07 466.401C1416.55 466.401 1415.46 465.338 1414.65 464.038V464.038ZM1422.05 462.85C1418.89 459.361 1420.58 458.812 1423.83 462.271C1425.35 463.893 1426.06 465.219 1425.4 465.219C1424.73 465.219 1423.23 464.153 1422.05 462.85V462.85ZM1200.6 462.645C1196.38 462.06 1190.43 460.761 1187.37 459.759C1184.32 458.757 1180.72 458.286 1179.38 458.713C1176.67 459.571 1165.17 456.19 1165.17 454.536C1165.17 450.761 1175.76 450.474 1181.39 454.097C1183.49 455.45 1185.14 455.54 1189.58 454.545C1194.5 453.442 1195.53 453.578 1198.42 455.715C1200.22 457.045 1202.22 458.133 1202.88 458.133C1205.21 458.133 1212.3 462.084 1211.7 463.052C1211.37 463.594 1210.46 463.964 1209.69 463.874C1208.91 463.783 1204.83 463.231 1200.6 462.645V462.645ZM1412.61 456.952C1411.43 455.653 1411 454.59 1411.65 454.59C1412.3 454.59 1413.79 455.653 1414.97 456.952C1416.14 458.251 1416.57 459.314 1415.92 459.314C1415.28 459.314 1413.78 458.251 1412.61 456.952ZM1405.16 455.456C1404.49 454.648 1403.6 452.395 1403.18 450.449C1402.5 447.316 1402.58 447.182 1403.84 449.275C1404.62 450.574 1406.02 452.515 1406.94 453.587C1407.92 454.723 1408.16 455.826 1407.5 456.231C1406.88 456.613 1405.83 456.264 1405.16 455.456ZM1380.15 451.701L1377.21 450.076L1381.76 449.223C1384.26 448.754 1388.11 446.791 1390.3 444.862C1392.7 442.755 1394.29 441.992 1394.28 442.952C1394.25 445.354 1392.8 447.204 1388.39 450.461C1383.78 453.864 1383.99 453.831 1380.15 451.701V451.701ZM1158.59 447.102C1154.25 444.63 1146.43 435.066 1143.88 429.121C1142.51 425.915 1139.36 420.634 1136.88 417.386C1134.41 414.138 1131.56 409.886 1130.57 407.938C1129.57 405.989 1126.54 402.268 1123.83 399.67C1118.13 394.192 1114.62 388.435 1117.01 388.476C1120.11 388.529 1128.09 392.965 1131.51 396.537C1140.95 406.391 1142.88 408.145 1147.34 410.89C1151.64 413.54 1153.68 416.297 1153.88 419.748C1153.92 420.398 1155.14 422.258 1156.6 423.882C1158.06 425.506 1160.8 428.56 1162.71 430.669C1164.61 432.778 1166.51 436.069 1166.93 437.982C1168.3 444.243 1163.26 449.761 1158.59 447.102V447.102ZM920.69 446.322C920.69 445.673 921.221 445.141 921.871 445.141C922.521 445.141 923.052 445.673 923.052 446.322C923.052 446.972 922.521 447.503 921.871 447.503C921.221 447.503 920.69 446.972 920.69 446.322ZM1233.08 446.312C1232.67 445.656 1232.67 444.086 1233.06 442.822C1233.47 441.557 1232.98 439.28 1231.98 437.754C1230.33 435.244 1230.35 434.718 1232.15 432.154C1233.24 430.598 1234.52 426.419 1235 422.867C1235.6 418.485 1236.77 415.518 1238.66 413.633C1241.23 411.055 1241.88 410.941 1247.68 412.04C1252.65 412.983 1254.61 412.867 1257.32 411.466C1261.85 409.121 1262.18 409.226 1260.68 412.531C1258.76 416.733 1254.94 418.076 1250.9 415.963C1243.7 412.189 1234.15 417.797 1239.19 422.839C1241.04 424.692 1242.07 424.861 1245.5 423.876C1251.38 422.189 1253.7 422.499 1250.05 424.484C1245.91 426.731 1245.13 429.225 1247.26 433.347C1248.23 435.222 1249.02 438.13 1249.02 439.809C1249.02 442.497 1248.74 442.711 1246.66 441.597C1245.36 440.901 1243.48 438.388 1242.49 436.013C1240.7 431.727 1240.67 431.712 1238.38 434.004C1236.37 436.014 1236.23 436.907 1237.33 440.891C1238.33 444.491 1238.26 445.681 1237.02 446.468C1234.93 447.79 1233.96 447.752 1233.07 446.312H1233.08ZM1395.12 440.012C1394.01 438.313 1391.46 436.075 1389.45 435.04C1387.45 434.004 1386.08 432.891 1386.4 432.566C1388.24 430.729 1398.49 439.071 1397.61 441.691C1397.35 442.496 1396.28 441.775 1395.12 440.012ZM1209.65 436.081C1207.87 435.148 1205.47 434.683 1204.31 435.049C1201.38 435.981 1189.7 433.606 1188.55 431.84C1187.63 430.435 1184.92 421.782 1183.48 415.614C1183.08 413.919 1183.48 411.718 1184.4 410.445C1185.76 408.598 1186.46 408.458 1188.6 409.604C1190.86 410.813 1191.34 410.606 1192.57 407.887C1193.35 406.187 1195.93 403.803 1198.31 402.59C1200.82 401.306 1203.24 398.901 1204.1 396.831C1205.09 394.444 1206.89 392.84 1209.6 391.948C1211.81 391.218 1215.01 388.803 1216.7 386.582C1218.4 384.361 1220.41 382.544 1221.18 382.544C1221.95 382.544 1224.28 384.299 1226.36 386.443L1230.14 390.342L1227.11 394.416C1223.67 399.043 1223.85 403.023 1227.75 408.499L1230.11 411.814L1227.17 413.742C1225.55 414.802 1224.23 416.321 1224.23 417.118C1224.24 419.823 1216.67 435.416 1214.78 436.6C1213.45 437.425 1211.92 437.27 1209.65 436.081V436.081ZM1278.26 436.06C1275.82 435.421 1275.48 433.331 1277.82 433.331C1278.71 433.331 1281.21 433.684 1283.37 434.117C1286.7 434.782 1286.95 435.041 1285 435.805C1282.43 436.809 1281.29 436.852 1278.26 436.06V436.06ZM1466.34 420.999C1466.34 420.713 1466.88 420.15 1467.53 419.748C1468.18 419.347 1468.71 419.581 1468.71 420.269C1468.71 420.957 1468.18 421.52 1467.53 421.52C1466.88 421.52 1466.34 421.285 1466.34 420.999ZM1274.12 417.796C1273.18 416.852 1273.12 415.757 1273.94 414.228C1274.59 413.015 1274.81 411.513 1274.42 410.89C1273.36 409.167 1276.02 404.985 1278.19 404.985C1279.92 404.985 1279.92 405.188 1278.11 407.182C1276.55 408.906 1276.38 410.047 1277.31 412.486C1279.18 417.417 1277.14 420.816 1274.12 417.796H1274.12ZM680.932 413.913C680.932 413.626 681.464 413.063 682.113 412.662C682.763 412.26 683.294 412.495 683.294 413.183C683.294 413.871 682.763 414.433 682.113 414.433C681.464 414.433 680.932 414.199 680.932 413.913ZM1500.01 410.89C1499.6 410.241 1499.84 409.709 1500.53 409.709C1501.21 409.709 1501.78 410.241 1501.78 410.89C1501.78 411.54 1501.54 412.071 1501.26 412.071C1500.97 412.071 1500.41 411.54 1500.01 410.89ZM688.019 399.74C688.019 399.453 688.55 398.89 689.2 398.489C689.849 398.087 690.381 398.322 690.381 399.01C690.381 399.698 689.849 400.26 689.2 400.26C688.55 400.26 688.019 400.026 688.019 399.74ZM1256.13 381.982C1253.87 376.727 1253.57 376.491 1250.11 377.252C1246.65 378.011 1246.53 377.918 1247.82 375.499C1248.9 373.495 1249.89 373.098 1252.43 373.656C1254.88 374.194 1256.45 373.65 1258.85 371.426C1260.59 369.808 1262.03 367.529 1262.05 366.361C1262.08 363.38 1266.47 373.377 1267.47 378.722C1268.23 382.781 1268.13 383.001 1266.29 381.472C1263.55 379.203 1260.91 381.557 1263.16 384.266C1264.06 385.347 1264.17 386.088 1263.44 386.088C1262.77 386.088 1261.38 386.408 1260.35 386.801C1258.98 387.327 1257.88 386.064 1256.13 381.982V381.982ZM1040.78 384.069C1039.46 381.924 1038.71 372.3 1039.67 369.746C1040.68 367.037 1040.75 367.07 1043.76 371.517C1047.37 376.847 1048.52 380.265 1047.33 382.09C1046.19 383.837 1041.51 385.252 1040.78 384.069ZM1304.54 377.96C1304.54 377.31 1305.07 376.45 1305.72 376.049C1306.37 375.647 1306.9 375.85 1306.9 376.5C1306.9 377.149 1306.37 378.009 1305.72 378.411C1305.07 378.812 1304.54 378.609 1304.54 377.96ZM1489.97 377.82C1489.97 377.171 1490.2 376.639 1490.49 376.639C1490.77 376.639 1491.34 377.171 1491.74 377.82C1492.14 378.47 1491.9 379.001 1491.22 379.001C1490.53 379.001 1489.97 378.47 1489.97 377.82ZM1221.86 370.997C1221.86 370.492 1224.23 367.436 1227.12 364.206C1231.37 359.472 1232.4 358.803 1232.44 360.759C1232.47 362.094 1230.69 365.15 1228.49 367.55C1224.77 371.621 1221.86 373.13 1221.86 370.997V370.997ZM1247.44 367.845C1247.01 366.724 1247.1 365.021 1247.64 364.062C1248.47 362.575 1248.82 362.56 1249.98 363.965C1251.03 365.223 1250.98 366.118 1249.79 367.748C1248.32 369.75 1248.18 369.756 1247.44 367.845V367.845ZM342.991 363.243C343.714 362.372 343.957 361.309 343.529 360.881C343.102 360.454 343.854 360.104 345.201 360.104C347.067 360.104 347.502 360.665 347.031 362.466C346.673 363.838 345.42 364.828 344.044 364.828C342.197 364.828 341.965 364.48 342.991 363.243ZM1255.37 362.931C1254.93 361.701 1254.35 360.296 1254.09 359.809C1253.83 359.322 1254.11 358.923 1254.73 358.923C1255.9 358.923 1257.56 363.773 1256.69 364.651C1256.4 364.934 1255.81 364.16 1255.37 362.931V362.931ZM1243.4 359.849C1241.74 357.85 1243.36 355.005 1245.84 355.559C1247.39 355.906 1247.45 356.397 1246.2 358.708C1245 360.937 1244.48 361.149 1243.4 359.849V359.849ZM1257.36 355.79C1256.01 354.067 1255.1 352.46 1255.34 352.219C1256.3 351.259 1259.62 353.374 1261.39 356.07C1264.1 360.215 1260.66 359.975 1257.36 355.79ZM1237.95 351.218C1236.9 350.166 1236.04 348.694 1236.04 347.947C1236.04 347.199 1237.2 347.754 1238.63 349.179C1240.05 350.605 1240.91 352.077 1240.54 352.451C1240.17 352.824 1239 352.27 1237.95 351.218ZM310.863 351.049C310.43 350.616 310.076 349.713 310.076 349.041C310.076 348.301 310.626 348.371 311.473 349.219C312.242 349.987 312.596 350.891 312.261 351.226C311.925 351.562 311.296 351.482 310.863 351.049V351.049ZM304.17 349.474C304.17 348.825 304.405 348.293 304.691 348.293C304.978 348.293 305.541 348.825 305.942 349.474C306.344 350.124 306.109 350.656 305.421 350.656C304.733 350.656 304.17 350.124 304.17 349.474ZM359.681 347.112C359.681 346.463 359.915 345.931 360.202 345.931C360.488 345.931 361.051 346.463 361.452 347.112C361.854 347.762 361.62 348.293 360.932 348.293C360.244 348.293 359.681 347.762 359.681 347.112ZM1249.83 346.932C1248.64 346.265 1246.4 346.038 1244.84 346.43C1242.55 347.004 1240.98 346.084 1236.7 341.679C1230.65 335.457 1229.47 332.833 1231.25 329.518C1231.93 328.237 1232.49 325.591 1232.49 323.638C1232.49 317.227 1236.79 317.486 1239.93 324.087C1241.68 327.744 1241.69 328.529 1240.05 332.452C1238.29 336.675 1238.32 336.863 1241.47 340.148C1243.74 342.521 1245.45 343.327 1247.24 342.876C1248.76 342.495 1250.4 342.967 1251.29 344.044C1253.42 346.607 1252.49 348.435 1249.83 346.932H1249.83ZM352.594 339.505C352.594 339.219 353.126 338.656 353.775 338.254C354.425 337.853 354.957 338.087 354.957 338.775C354.957 339.463 354.425 340.026 353.775 340.026C353.126 340.026 352.594 339.792 352.594 339.505V339.505ZM538.023 335.302C538.023 334.652 538.554 334.121 539.204 334.121C539.853 334.121 540.385 334.652 540.385 335.302C540.385 335.951 539.853 336.483 539.204 336.483C538.554 336.483 538.023 335.951 538.023 335.302ZM349.051 330.717C349.051 330.067 349.583 329.207 350.232 328.806C350.882 328.404 351.413 328.607 351.413 329.257C351.413 329.906 350.882 330.766 350.232 331.168C349.583 331.569 349.051 331.366 349.051 330.717ZM339.02 325.867C338.607 325.197 339.081 324.999 340.132 325.402C342.178 326.188 342.552 327.034 340.853 327.034C340.242 327.034 339.417 326.509 339.02 325.867ZM526.802 325.853C526.401 325.203 526.635 324.672 527.323 324.672C528.011 324.672 528.574 325.203 528.574 325.853C528.574 326.503 528.34 327.034 528.053 327.034C527.767 327.034 527.204 326.503 526.802 325.853V325.853ZM343.736 323.491C343.335 322.841 343.569 322.31 344.257 322.31C344.945 322.31 345.508 322.841 345.508 323.491C345.508 324.14 345.274 324.672 344.987 324.672C344.701 324.672 344.138 324.14 343.736 323.491ZM349.051 323.491C349.051 322.841 349.286 322.31 349.572 322.31C349.858 322.31 350.421 322.841 350.823 323.491C351.224 324.14 350.99 324.672 350.302 324.672C349.614 324.672 349.051 324.14 349.051 323.491ZM267.852 320.346C267.04 320.019 266.376 319.264 266.376 318.668C266.376 316.965 271.59 317.404 274.123 319.32C276.301 320.967 276.238 321.051 272.872 320.998C270.923 320.967 268.664 320.674 267.852 320.346V320.346ZM297.739 319.677C296.679 319.084 294.339 318.922 292.538 319.318C290.737 319.713 287.967 319.518 286.383 318.885C283.835 317.865 284.06 317.745 288.333 317.845C294.612 317.992 296.288 316.969 294.684 313.971C293.544 311.842 293.887 311.68 299.521 311.68C304.972 311.68 312.835 314.18 314.167 316.336C315.053 317.77 299.854 320.86 297.739 319.677ZM320.394 320.423C318.994 319.024 320.734 317.586 323.826 317.586C325.683 317.586 326.624 318.142 326.321 319.062C325.777 320.715 321.637 321.666 320.394 320.423ZM1174.87 318.545C1171.74 315.418 1174.84 311.68 1180.56 311.68C1183.09 311.68 1183.09 311.701 1180.92 315.424C1178.38 319.764 1176.87 320.545 1174.87 318.545ZM330.154 318.302C330.154 318.047 330.951 317.532 331.926 317.158C332.9 316.784 333.697 316.993 333.697 317.623C333.697 318.252 332.9 318.767 331.926 318.767C330.951 318.767 330.154 318.558 330.154 318.302V318.302ZM279.099 309.836C278.734 309.472 276.241 309.143 273.558 309.106C269.857 309.055 268.969 308.691 269.877 307.597C270.755 306.54 269.495 305.132 265.153 302.319C256.639 296.802 251.886 295.724 246.166 298.013C240.803 300.159 240.393 300.219 240.393 298.868C240.393 296.396 249.792 293.677 256.561 294.192C263.034 294.684 266.658 296.061 279.368 302.861C289.815 308.45 289.826 308.46 286.454 309.422C282.625 310.514 279.928 310.665 279.099 309.836V309.836ZM287.635 299.869C289.925 298.39 291.179 298.39 291.179 299.869C291.179 300.519 289.983 301.042 288.521 301.032C286.372 301.018 286.203 300.795 287.635 299.869ZM1228.24 297.775C1227.53 297.303 1226.3 295.694 1225.51 294.199C1224.32 291.946 1224.45 290.852 1226.23 287.798C1228.98 283.081 1230.84 282.493 1231.74 286.055C1232.68 289.803 1229.96 298.911 1228.24 297.775V297.775ZM295.39 296.201C296.178 294.925 300.628 294.781 300.626 296.031C300.626 296.518 299.301 296.993 297.682 297.087C296.062 297.18 295.031 296.781 295.39 296.201V296.201ZM272.035 284.818C270.146 282.65 270.421 279.791 272.518 279.791C273.189 279.791 273.467 280.829 273.135 282.097C272.804 283.365 273.14 284.621 273.883 284.888C274.626 285.155 274.921 285.715 274.538 286.133C274.155 286.55 273.029 285.959 272.035 284.818V284.818ZM278.896 275.539C278.475 274.444 278.397 273.282 278.722 272.957C279.047 272.632 279.656 273.263 280.077 274.358C280.497 275.454 280.575 276.616 280.25 276.94C279.925 277.265 279.316 276.635 278.896 275.539ZM271.494 274.476C271.494 273.502 272.506 272.705 273.744 272.705C275.743 272.705 275.797 272.902 274.222 274.476C273.247 275.451 272.235 276.248 271.972 276.248C271.709 276.248 271.494 275.451 271.494 274.476V274.476ZM1262.02 248.583C1262.02 247.659 1260.73 245.369 1259.15 243.495C1255.41 239.046 1256.74 236.077 1261.17 238.982C1264.35 241.07 1266.02 245.336 1264.84 248.399C1263.95 250.722 1262.02 250.848 1262.02 248.583V248.583ZM345.508 241.476C345.508 241.19 346.039 240.627 346.689 240.225C347.339 239.824 347.87 240.058 347.87 240.746C347.87 241.434 347.339 241.997 346.689 241.997C346.039 241.997 345.508 241.763 345.508 241.476ZM1268.6 240.024C1267.84 238.029 1269.64 236.143 1272.35 236.11C1274.23 236.087 1274.27 238.727 1272.41 240.58C1270.49 242.505 1269.5 242.361 1268.6 240.024ZM1279.39 235.713C1277.1 232.214 1273.86 231.733 1266.44 233.793C1263.43 234.63 1261.35 234.639 1259.95 233.822C1258.81 233.161 1258.51 232.604 1259.27 232.584C1260.03 232.565 1262.26 231.201 1264.22 229.554C1266.74 227.43 1268.59 226.765 1270.59 227.266C1272.7 227.796 1274.98 226.781 1279.78 223.175C1289.12 216.154 1289.97 213.94 1286.17 206.438C1282.52 199.238 1283.54 196.92 1288.94 200.114C1292.88 202.438 1296.58 209.096 1295.51 211.903C1295.12 212.914 1295.7 216.084 1296.79 218.949C1298.34 223.004 1298.49 224.708 1297.45 226.638C1295.94 229.473 1291.72 231.367 1286.92 231.367C1284.23 231.367 1283.42 232.057 1282.54 235.123L1281.47 238.878L1279.39 235.713V235.713ZM800.929 231.682C799.519 230.272 800.269 229.005 802.513 229.005C803.774 229.005 805.134 228.474 805.535 227.824C806.633 226.048 808.505 226.404 807.795 228.255C807.067 230.153 801.953 232.706 800.929 231.682ZM760.655 229.638L757.111 228.016L761.836 227.936C767.72 227.837 772.054 228.94 771.201 230.32C770.251 231.858 764.721 231.5 760.655 229.638V229.638ZM712.943 217.857C708.217 215.437 707.994 215.135 710.462 214.489C713.417 213.717 719.958 214.678 719.825 215.866C719.779 216.272 719.38 217.484 718.939 218.559C718.213 220.327 717.638 220.26 712.943 217.857V217.857ZM689.27 205.079C688.248 202.146 688.329 201.024 689.657 199.696C692.058 197.295 693.924 198.982 693.924 203.555C693.924 208.957 690.961 209.927 689.27 205.079V205.079ZM661.575 206.06C662.413 203.877 666.007 203.507 665.284 205.679C665.013 206.491 663.908 207.327 662.827 207.536C661.457 207.802 661.078 207.355 661.575 206.06V206.06ZM1278.69 192.579C1276.53 189.543 1276.47 188.983 1278.06 186.704C1279.63 184.465 1279.63 183.794 1278.01 180.67C1275.35 175.532 1275.73 175.221 1280.33 178.735C1282.61 180.473 1287.11 182.675 1290.32 183.63C1296.97 185.604 1298.57 187.153 1295.11 188.253C1293.8 188.668 1292.73 189.779 1292.73 190.722C1292.73 192.007 1291.91 192.228 1289.48 191.606C1283.25 190.011 1281.48 190.401 1281.88 193.278C1282.37 196.803 1281.57 196.629 1278.69 192.579H1278.69ZM691.168 193.967C689.798 192.597 690.315 190.308 692.152 189.603C693.432 189.112 693.924 189.732 693.924 191.838C693.924 194.673 692.768 195.566 691.168 193.967ZM1271.19 169.066C1270.19 167.929 1267.78 163.809 1265.83 159.91C1263.88 156.011 1258.72 148.852 1254.37 144C1249.51 138.579 1247.04 134.985 1247.96 134.677C1248.79 134.401 1250.56 135.636 1251.91 137.421C1255.15 141.749 1259.16 145.506 1265.47 150.159C1270.7 154.016 1273.29 157.585 1269.91 156.29C1266.02 154.795 1266.99 158.342 1272.03 164.016C1274.97 167.324 1277.37 170.278 1277.37 170.582C1277.37 172.018 1272.81 170.898 1271.19 169.066ZM406.924 166.999C406.924 166.024 407.438 165.227 408.068 165.227C408.697 165.227 408.906 166.024 408.532 166.999C408.158 167.973 407.643 168.77 407.388 168.77C407.133 168.77 406.924 167.973 406.924 166.999ZM400.752 163.188L396.352 162.726L404.632 154.528C409.186 150.019 413.507 146.33 414.234 146.33C415.002 146.33 414.772 147.198 413.686 148.398C411.227 151.115 412.904 154.167 417.397 155.154C419.359 155.585 421.314 157.088 422.069 158.746C423.282 161.408 423.077 161.679 418.985 162.815C414.692 164.008 409.567 164.112 400.752 163.188V163.188ZM112.962 154.714C108.871 150.893 108.414 149.282 111.127 148.241C113.557 147.309 118.041 150.348 119.741 154.079C121.525 157.994 121.493 158.141 118.867 158.141C117.637 158.141 114.979 156.599 112.962 154.714ZM633.099 148.714C634.398 148.073 636.955 147.01 638.78 146.351C642.802 144.9 642.135 143.354 637.048 142.337C633.559 141.639 633.436 141.461 635.432 140.001C636.621 139.132 637.247 137.861 636.824 137.176C636.392 136.476 637.606 135.39 639.596 134.696C641.544 134.017 643.138 132.937 643.138 132.296C643.138 129.568 640.676 124.979 639.308 125.157C636.155 125.568 634.695 125.012 635.203 123.594C635.494 122.782 635.254 121.188 634.669 120.051C633.149 117.095 636.643 110.982 639.89 110.916C640.377 110.907 640.643 111.55 640.481 112.346C640.318 113.143 641.433 113.984 642.957 114.215L645.729 114.635L643.081 117.455L640.432 120.274L643.418 121.409C646.623 122.628 649.711 126.597 652.857 133.54C654.364 136.866 655.355 137.735 657.114 137.275C660.723 136.331 661.151 138.777 657.765 140.996C655.471 142.499 655.036 143.346 656.04 144.351C657.045 145.356 655.064 146.03 648.194 147.021C643.14 147.751 637.144 148.692 634.87 149.113C631.708 149.699 631.292 149.605 633.099 148.714V148.714ZM613.181 142.189C612.777 141.137 613.238 138.744 614.206 136.874C615.316 134.727 615.531 133.204 614.788 132.745C612.741 131.48 613.509 129.866 616.515 129.111C618.113 128.71 620.038 127.637 620.794 126.727C622.367 124.831 629.643 124.482 630.735 126.25C631.136 126.898 630.636 128.611 629.624 130.056C628.612 131.501 627.784 134.096 627.784 135.823C627.784 138.457 626.974 139.245 622.765 140.706C620.004 141.664 616.883 142.821 615.831 143.276C614.596 143.81 613.655 143.424 613.181 142.189V142.189ZM634.87 130.455C634.87 130.169 635.402 129.606 636.052 129.205C636.701 128.803 637.233 129.037 637.233 129.725C637.233 130.413 636.701 130.976 636.052 130.976C635.402 130.976 634.87 130.742 634.87 130.455ZM110.711 124.765C109.554 123.371 109.627 122.721 111.079 121.516C113.479 119.524 114.67 120.875 113.273 124.006C112.31 126.165 111.959 126.269 110.711 124.765V124.765ZM108.864 115.882C108.465 115.237 108.93 114.052 109.897 113.249C111.817 111.656 112.218 112.905 110.604 115.453C109.987 116.426 109.304 116.595 108.864 115.882ZM32.524 115.129C32.524 114.298 36.1052 112.845 41.1857 111.614C43.1116 111.148 44.2503 111.26 43.8677 111.879C43.502 112.471 41.7301 113.252 39.9302 113.615C38.1304 113.979 35.7276 114.636 34.5908 115.075C33.4541 115.515 32.524 115.539 32.524 115.129V115.129ZM734.376 101.848C732.197 100.969 732.582 99.6138 735.065 99.4268C736.256 99.3371 737.23 100.021 737.23 100.947C737.23 102.706 736.821 102.835 734.376 101.848ZM474.835 95.8117C467.361 91.7359 463.789 85.474 465.954 80.2457C466.979 77.7713 467.01 76.2153 466.071 74.4594C464.115 70.805 466.667 66.5224 473.192 62.5071C476.292 60.6 479.386 57.9957 480.069 56.7198C481.961 53.1847 480.276 47.1269 476.984 45.6268C475.317 44.8676 474.411 43.667 474.779 42.7076C475.617 40.5227 471.685 33.0603 467.769 29.404C464.886 26.713 463.646 26.445 453.776 26.3804C440.336 26.2924 437.832 25.5452 438.054 21.6887C438.147 20.0868 438.502 18.7757 438.844 18.7752C439.185 18.7748 443.969 18.2204 449.473 17.5433C456.501 16.6788 462.803 14.8959 470.637 11.5552C482.766 6.38292 483.69 6.28185 512.63 6.96207C521.768 7.17687 530.175 6.50055 540.975 4.68176C551.033 2.98799 558.434 2.3495 562.43 2.83075C565.825 3.23965 570.741 2.96995 573.517 2.22256C579.958 0.488165 596.693 2.57448 603.275 5.93243C607.166 7.91762 609.225 8.17976 615.791 7.52606C622.884 6.81995 623.42 6.91284 621.288 8.47855C619.989 9.43273 616.003 10.5983 612.43 11.0687C604.677 12.0895 597.554 17.6151 599.442 21.1432C600.256 22.6651 599.672 23.9641 597.039 26.4869C595.126 28.3201 593.28 30.7023 592.938 31.7808C592.115 34.3716 581.674 39.1935 576.497 39.3733C570.747 39.573 570.145 40.7954 574.592 43.2447C576.693 44.4018 579.759 46.3733 581.407 47.6259L584.402 49.9033L581.694 50.9049C579.618 51.6727 577.935 51.1777 574.481 48.7842C569.794 45.5361 564.751 45.5198 567.441 48.7614C568.49 50.0256 568.238 50.5166 566.274 51.0301C561.885 52.1779 564.99 54.4475 569.83 53.6297C572.911 53.1092 574.644 53.3835 575.607 54.5443C576.753 55.9255 575.258 56.565 566.656 58.373C560.976 59.5669 553.406 60.5873 549.833 60.6407C543.196 60.7399 538.413 62.6453 531.377 67.9929C529.083 69.7367 524.207 71.4649 518.502 72.5565C506.577 74.8381 502.547 77.4768 495.362 87.7081C489.591 95.9259 486.111 98.9888 482.512 99.0178C481.538 99.0258 478.083 97.5829 474.835 95.8117V95.8117ZM391.092 87.9125C388.555 86.3541 385.447 83.4475 384.185 81.4535C381.72 77.5606 379.447 77.066 372.793 78.9744C370.541 79.6204 368.013 79.6827 367.002 79.117C363.505 77.1598 369.822 75.2348 376.858 76.1139C382.209 76.7824 383.397 76.5919 384.021 74.9659C385.275 71.6988 391.013 69.3574 394.203 70.8111C396.167 71.706 397.953 71.681 400.461 70.7236C403.836 69.4355 403.883 69.3192 401.678 67.7006C400.417 66.7747 398.978 66.0172 398.48 66.0172C397.982 66.0172 396.184 63.6446 394.485 60.7447C392.785 57.8448 389.6 54.363 387.407 53.0073C383.679 50.7034 383.186 50.6629 379.851 52.3872C376.936 53.8946 375.252 54.0001 370.64 52.9645C367.536 52.2674 363.201 52.0327 361.008 52.4428C357.203 53.1542 350.232 51.2923 350.232 49.5647C350.232 46.3909 360.235 39.2681 366.177 38.2109L370.901 37.3702L367.524 40.9681C362.866 45.9312 364.617 48.2153 369.676 43.7739C371.822 41.8898 375.53 39.982 377.917 39.5342C381.564 38.85 383.127 39.2962 387.706 42.3295C393.8 46.3655 394.269 46.4737 397.705 44.6347C399.775 43.5273 400.542 43.8314 402.789 46.6495C404.343 48.5988 407.814 50.7213 411.199 51.7923C416.594 53.4992 416.963 53.8705 416.963 57.5911C416.963 60.3812 417.767 62.1417 419.662 63.4965C427.588 69.165 427.415 68.9308 425.7 71.6771C423.348 75.4425 421.492 75.7154 416.287 73.0602C412.666 71.2131 411.085 70.9598 409.262 71.9353C407.032 73.1289 407.008 73.3839 408.803 76.8558C410.277 79.7052 410.411 81.144 409.41 83.3416C408.176 86.0496 407.98 86.0914 404.629 84.359C398.043 80.9531 393.608 83.1943 399.752 86.8236C401.677 87.9607 402.984 89.325 402.656 89.8554C401.512 91.7063 395.668 90.7245 391.092 87.9125V87.9125ZM633.689 89.4418C633.689 88.9005 634.487 88.4576 635.461 88.4576C636.435 88.4576 637.233 88.9005 637.233 89.4418C637.233 89.9832 636.435 90.4261 635.461 90.4261C634.487 90.4261 633.689 89.9832 633.689 89.4418ZM346.56 83.0901C344.231 81.8659 342.423 81.7611 339.162 82.6615C333.618 84.1922 331.68 83.072 334.493 79.9634C338.094 75.9839 340.537 75.2012 344.881 76.6348C349.77 78.2483 351.94 80.6466 350.621 82.9789C349.78 84.4658 349.206 84.4815 346.56 83.0901V83.0901ZM581.132 82.5522C579.183 81.2709 576.702 80.5028 575.62 80.8454C574.128 81.3172 573.797 80.9077 574.255 79.157C574.958 76.4699 585.335 72.5917 588.843 73.705C590.066 74.0932 593.192 73.774 595.789 72.9958C599.867 71.774 600.948 71.8665 603.705 73.6728L606.898 75.7647L604.054 77.9811C601.653 79.8518 597.201 81.4749 586.447 84.4001C585.472 84.6651 583.08 83.8336 581.132 82.5522V82.5522ZM260.471 60.5046C258.847 60.2479 254.891 58.8588 251.68 57.4175L245.841 54.7971L254.042 54.2065C258.552 53.8817 262.242 53.0845 262.242 52.4349C262.242 51.7853 259.053 50.969 255.156 50.6208C250.01 50.1611 249.04 49.8377 251.613 49.4398C255.921 48.7734 256.231 46.9076 252.203 45.8904C249.303 45.1578 249.324 45.1131 253.404 43.3551C260.475 40.3085 268.007 39.7249 274.68 41.7065C280.158 43.3335 281.014 43.3266 283.597 41.6341C285.424 40.4372 286.508 40.2369 286.602 41.0789C286.683 41.8032 286.816 43.0159 286.897 43.7737C287.171 46.3324 289.527 46.0013 292.338 43.009C294.941 40.2389 299.452 38.9119 299.442 40.9195C299.439 41.4067 298.389 43.5253 297.107 45.6275L294.776 49.4497L298.588 51.4381L302.399 53.4265L296.141 56.2827C290.494 58.8601 289.336 59.0076 284.274 57.7933C279.366 56.616 277.958 56.7506 273.013 58.8703C267.428 61.2645 266.25 61.418 260.471 60.5046V60.5046ZM307.839 59.6725C306.772 58.3871 307.213 57.7546 309.97 56.6126C311.889 55.8178 314.641 55.5528 316.116 56.021C318.674 56.8329 318.615 56.9605 314.727 59.0314C309.766 61.6734 309.519 61.6964 307.839 59.6725V59.6725ZM633.689 54.2065C635.979 52.7267 637.233 52.7267 637.233 54.2065C637.233 54.8561 636.037 55.3794 634.575 55.3695C632.426 55.3549 632.257 55.1323 633.689 54.2065V54.2065ZM850.416 50.9298C844.378 48.5447 844.502 48.6751 846.259 46.5581C847.08 45.568 847.289 44.741 846.722 44.7204C846.155 44.6997 846.755 43.8796 848.054 42.8979C849.353 41.9163 850.425 40.7373 850.436 40.2781C850.477 38.5312 855.286 33.9244 858.684 32.3763C860.632 31.4884 865.681 30.4877 869.904 30.1525C874.126 29.8173 879.782 29.2031 882.472 28.7877C885.335 28.3456 887.668 28.5264 888.099 29.2237C888.936 30.5787 887.338 31.1546 878.171 32.8015C869.075 34.4357 863.607 36.9823 860.006 41.2621C856.212 45.7707 856.085 48.6174 859.569 51.0478L862.227 52.9016L858.684 52.8488C856.735 52.8198 853.014 51.9562 850.416 50.9299V50.9298ZM231.835 47.5054C229.931 45.6006 230.365 45.186 239.503 40.1832C250.211 34.3216 255.591 33.5435 265.195 36.4676L270.51 38.0857L263.423 39.4908C257.628 40.64 245.346 44.7471 235.647 48.7792C234.658 49.1906 232.95 48.6198 231.835 47.5054V47.5054ZM317.162 45.9767C317.162 45.3479 315.701 43.9945 313.914 42.9692L310.666 41.1049L315.015 41.7888C318.105 42.2748 319.644 41.9853 320.33 40.7888C321.146 39.3659 328.663 36.5186 331.661 36.497C332.165 36.493 331.753 38.0831 330.747 40.0296C328.376 44.6143 317.162 49.5235 317.162 45.9767V45.9767ZM335.551 42.5282C333.859 39.7903 345.415 35.5522 350.325 37.1103C353.902 38.2459 351.511 40.1972 345.27 41.2346C342.478 41.6988 339.317 42.452 338.246 42.9083C337.175 43.3646 335.962 43.1936 335.551 42.5282ZM373.263 33.8311C365.468 33.2111 358.945 32.5689 358.767 32.404C357.711 31.4241 360.345 28.2344 363.18 27.0602C365.967 25.9057 367.251 26.0589 371.067 28.0009C374.786 29.8938 377.184 30.2085 384.093 29.7105C388.75 29.3749 394.065 29.481 395.904 29.9464L399.247 30.7926L395.113 33.0015C392.839 34.2164 390.182 35.1537 389.208 35.0844C388.233 35.0151 381.058 34.4512 373.263 33.8311ZM713.149 29.0042C707.347 26.034 706.788 24.687 711.345 24.6617C713.131 24.6517 715.39 24.0701 716.364 23.3692C717.896 22.2675 717.875 22.1774 716.213 22.7044C715.155 23.0397 713.672 22.6954 712.916 21.9399C711.871 20.895 711.327 20.9135 710.645 22.0171C710.013 23.0388 708.717 23.1597 706.265 22.4255C700.037 20.5604 698.648 19.7324 698.648 17.8831C698.648 16.3168 700.21 16.1733 709.869 16.8523C717.225 17.3693 721.089 17.226 721.089 16.4361C721.089 14.1111 724.366 15.2591 725.235 17.8885L726.113 20.546L726.636 17.8885C726.923 16.427 727.919 15.2311 728.848 15.2311C729.777 15.2311 730.537 14.5934 730.537 13.8138C730.537 12.7115 730.852 12.7115 731.955 13.8138C732.779 14.6383 736.731 15.2311 741.403 15.2311C749.847 15.2311 751.83 16.7408 746.199 18.882C743.272 19.9946 738.182 19.6799 732.604 18.0413C731.467 17.7073 730.541 17.8685 730.545 18.3995C730.553 19.4895 737.189 23.4987 738.985 23.4987C739.628 23.4987 740.9 24.2443 741.811 25.1555C743.233 26.5774 743.221 26.9072 741.727 27.4806C740.769 27.8481 739.986 27.5748 739.986 26.8734C739.986 26.0487 738.484 25.8797 735.736 26.3952C732.76 26.9535 731.728 26.8003 732.294 25.8844C732.739 25.1649 732.461 23.8023 731.675 22.8564C730.161 21.0315 725.813 20.4728 725.813 22.103C725.813 22.6346 724.086 24.9793 721.975 27.3133L718.136 31.5571L713.149 29.0042L713.149 29.0042ZM399.837 26.406C397.79 25.204 394.893 24.8559 390.389 25.2703C386.178 25.6576 382.941 25.3237 381.188 24.3212C378.771 22.9391 379.362 22.7815 386.738 22.8413C395.962 22.916 400.013 20.9414 395.018 18.8057C392.645 17.7911 392.991 17.6989 397.059 18.2625C402.369 18.9981 404.433 17.5753 401.54 15.174C398.455 12.6134 401.847 11.8185 412.825 12.5297C419.618 12.9698 423.887 12.723 425.632 11.7891C428.975 10.0001 427.663 7.72274 423.842 8.68173C421.201 9.34451 402.875 8.25693 403.648 7.48334C404.201 6.9305 430.165 4.52581 447.214 3.44849C456.057 2.88969 465.89 2.11018 469.064 1.71625L474.835 1L465.308 5.57642C456.375 9.86712 441.849 14.0501 435.881 14.0501C434.428 14.0501 430.252 15.6445 426.6 17.5933C422.948 19.5421 419.228 21.1365 418.333 21.1365C417.437 21.1365 413.574 22.7242 409.747 24.6648C405.921 26.6053 402.79 28.1809 402.79 28.1661C402.79 28.1513 401.461 27.3593 399.837 26.406V26.406ZM376.806 15.6155C371.082 14.349 370.872 13.8725 375.079 11.6924C381.21 8.51463 387.012 7.70015 389.65 9.64694C391.738 11.1883 391.617 11.4265 387.516 13.8466C383.241 16.3689 381.506 16.6554 376.806 15.6155V15.6155Z" stroke="#B2F2C4" stroke-width="2" stroke-dasharray="2 2"></path>
    </g>
    <g class="map-pointer" id="united-states">
      <rect width="38" height="38" fill="black" fill-opacity="0" transform="translate(159 212)"></rect>
      <g id="Ellipse 2" filter="url(#filter0_d)">
        <circle cx="178" cy="231" r="19" fill="white"></circle>
        <circle cx="178" cy="231" r="18" stroke="#CBF1D1" stroke-width="2"></circle>
      </g>
      <path id="Rectangle" d="M170.492 234.693C170.189 234.313 170.203 233.77 170.525 233.407L180.16 222.528C180.58 222.054 181.328 222.084 181.708 222.59L185.386 227.487C185.672 227.867 185.65 228.395 185.336 228.751L175.817 239.498C175.405 239.963 174.673 239.944 174.286 239.458L170.492 234.693Z" fill="#9FFFB3"></path>
    </g>
    <g class="map-pointer" id="canada">
      <rect width="38" height="38" fill="black" fill-opacity="0" transform="translate(229 82)"></rect>
      <g id="Ellipse 2_2" filter="url(#filter1_d)">
        <circle cx="248" cy="101" r="19" fill="white"></circle>
        <circle cx="248" cy="101" r="18" stroke="#CBF1D1" stroke-width="2"></circle>
      </g>
      <path id="Rectangle_2" d="M240.492 104.693C240.189 104.313 240.203 103.77 240.525 103.407L250.16 92.5277C250.58 92.054 251.328 92.0842 251.708 92.5902L255.386 97.4869C255.672 97.8668 255.65 98.3949 255.336 98.7505L245.817 109.498C245.405 109.963 244.673 109.944 244.286 109.458L240.492 104.693Z" fill="#9FFFB3"></path>
    </g>
    <g class="map-pointer" id="nigeria">
      <rect width="38" height="38" fill="black" fill-opacity="0" transform="translate(658 334)"></rect>
      <g id="Ellipse 2_3" filter="url(#filter2_d)">
        <circle cx="677" cy="353" r="19" fill="#011B33"></circle>
        <circle cx="677" cy="353" r="18"></circle>
      </g>
      <g id="Paystack logo">
        <path d="M672.578 348H681.843C682.162 348 682.422 348.24 682.422 348.536V349.489C682.422 349.653 682.342 349.8 682.217 349.898C682.165 349.939 682.104 349.972 682.039 349.994C682.014 350.002 681.989 350.009 681.963 350.014C681.924 350.022 681.884 350.026 681.843 350.026H672.578C672.259 350.026 672 349.784 672 349.489V348.536C672 348.24 672.259 348 672.578 348Z" fill="#0BA4DB"></path>
        <path d="M672.578 353.317H681.843C682.162 353.317 682.422 353.557 682.422 353.853V354.806C682.422 355.102 682.162 355.342 681.843 355.342H672.578C672.378 355.342 672.203 355.248 672.099 355.106C672.076 355.074 672.056 355.04 672.04 355.003C672.031 354.981 672.023 354.959 672.017 354.935C672.006 354.894 672 354.851 672 354.806V353.853C672 353.557 672.259 353.317 672.578 353.317Z" fill="#0BA4DB"></path>
        <path d="M677.79 355.975H672.578C672.259 355.975 672 356.215 672 356.511V357.464C672 357.76 672.259 358 672.578 358H677.79C678.11 358 678.368 357.76 678.368 357.464V356.511C678.368 356.215 678.11 355.975 677.79 355.975Z" fill="#0BA4DB"></path>
        <path d="M672.578 350.658H682.422C682.742 350.658 683 350.898 683 351.194V352.147C683 352.443 682.742 352.684 682.422 352.684H672.578C672.259 352.684 672 352.443 672 352.147V351.194C672 350.898 672.259 350.658 672.578 350.658Z" fill="#0BA4DB"></path>
      </g>
    </g>
    <g class="map-pointer" id="egypt">
      <rect width="38" height="38" fill="black" fill-opacity="0" transform="translate(773 260)"></rect>
      <g id="Ellipse 2_4" filter="url(#filter3_d)">
        <circle cx="792" cy="279" r="19" fill="white"></circle>
        <circle cx="792" cy="279" r="18" stroke="#CBF1D1" stroke-width="2"></circle>
      </g>
      <path id="Rectangle_3" d="M784.492 282.693C784.189 282.313 784.203 281.77 784.525 281.407L794.16 270.528C794.58 270.054 795.328 270.084 795.708 270.59L799.386 275.487C799.672 275.867 799.65 276.395 799.336 276.751L789.817 287.498C789.405 287.963 788.673 287.944 788.286 287.458L784.492 282.693Z" fill="#9FFFB3"></path>
    </g>
    <g class="map-pointer" id="brazil">
      <rect width="38" height="38" fill="black" fill-opacity="0" transform="translate(375 432)"></rect>
      <g id="Ellipse 2_5" filter="url(#filter4_d)">
        <circle cx="394" cy="451" r="19" fill="white"></circle>
        <circle cx="394" cy="451" r="18" stroke="#CBF1D1" stroke-width="2"></circle>
      </g>
      <path id="Rectangle_4" d="M386.492 454.693C386.189 454.313 386.203 453.77 386.525 453.407L396.16 442.528C396.58 442.054 397.328 442.084 397.708 442.59L401.386 447.487C401.672 447.867 401.65 448.395 401.336 448.751L391.817 459.498C391.405 459.963 390.673 459.944 390.286 459.458L386.492 454.693Z" fill="#9FFFB3"></path>
    </g>
    <g class="map-pointer" id="south-africa">
      <rect width="38" height="38" fill="black" fill-opacity="0" transform="translate(744 531)"></rect>
      <g id="Ellipse 2_6" filter="url(#filter5_d)">
        <circle cx="763" cy="550" r="19" fill="white"></circle>
        <circle cx="763" cy="550" r="18" stroke="#CBF1D1" stroke-width="2"></circle>
      </g>
      <path id="Rectangle_5" d="M755.492 553.693C755.189 553.313 755.203 552.77 755.525 552.407L765.16 541.528C765.58 541.054 766.328 541.084 766.708 541.59L770.386 546.487C770.672 546.867 770.65 547.395 770.336 547.751L760.817 558.498C760.405 558.963 759.673 558.944 759.286 558.458L755.492 553.693Z" fill="#9FFFB3"></path>
    </g>
    <g class="map-pointer" id="uk">
      <rect width="38" height="38" fill="black" fill-opacity="0" transform="translate(674 161)"></rect>
      <g id="Ellipse 2_7" filter="url(#filter6_d)">
        <circle cx="693" cy="180" r="19" fill="white"></circle>
        <circle cx="693" cy="180" r="18" stroke="#CBF1D1" stroke-width="2"></circle>
      </g>
      <path id="Rectangle_6" d="M685.492 183.693C685.189 183.313 685.203 182.77 685.525 182.407L695.16 171.528C695.58 171.054 696.328 171.084 696.708 171.59L700.386 176.487C700.672 176.867 700.65 177.395 700.336 177.751L690.817 188.498C690.405 188.963 689.673 188.944 689.286 188.458L685.492 183.693Z" fill="#9FFFB3"></path>
    </g>
    <g class="map-pointer" id="china">
      <rect width="38" height="38" fill="black" fill-opacity="0" transform="translate(1084 201)"></rect>
      <g id="Ellipse 2_8" filter="url(#filter7_d)">
        <circle cx="1103" cy="220" r="19" fill="white"></circle>
        <circle cx="1103" cy="220" r="18" stroke="#CBF1D1" stroke-width="2"></circle>
      </g>
      <path id="Rectangle_7" d="M1095.49 223.693C1095.19 223.313 1095.2 222.77 1095.53 222.407L1105.16 211.528C1105.58 211.054 1106.33 211.084 1106.71 211.59L1110.39 216.487C1110.67 216.867 1110.65 217.395 1110.34 217.751L1100.82 228.498C1100.4 228.963 1099.67 228.944 1099.29 228.458L1095.49 223.693Z" fill="#9FFFB3"></path>
    </g>
    <g class="map-pointer" id="india">
      <rect width="38" height="38" fill="black" fill-opacity="0" transform="translate(1014 271)"></rect>
      <g id="Ellipse 2_9" filter="url(#filter8_d)">
        <circle cx="1033" cy="290" r="19" fill="white"></circle>
        <circle cx="1033" cy="290" r="18" stroke="#CBF1D1" stroke-width="2"></circle>
      </g>
      <path id="Rectangle_8" d="M1025.49 293.693C1025.19 293.313 1025.2 292.77 1025.53 292.407L1035.16 281.528C1035.58 281.054 1036.33 281.084 1036.71 281.59L1040.39 286.487C1040.67 286.867 1040.65 287.395 1040.34 287.751L1030.82 298.498C1030.4 298.963 1029.67 298.944 1029.29 298.458L1025.49 293.693Z" fill="#9FFFB3"></path>
    </g>
    <g class="map-pointer" id="norway">
      <rect width="38" height="38" fill="black" fill-opacity="0" transform="translate(754 41)"></rect>
      <g id="Ellipse 2_10" filter="url(#filter9_d)">
        <circle cx="773" cy="60" r="19" fill="white"></circle>
        <circle cx="773" cy="60" r="18" stroke="#CBF1D1" stroke-width="2"></circle>
      </g>
      <path id="Rectangle_9" d="M765.492 63.6927C765.189 63.3127 765.203 62.7704 765.525 62.4068L775.16 51.5277C775.58 51.054 776.328 51.0842 776.708 51.5902L780.386 56.4869C780.672 56.8668 780.65 57.3949 780.336 57.7505L770.817 68.4983C770.405 68.9635 769.673 68.9443 769.286 68.4582L765.492 63.6927Z" fill="#9FFFB3"></path>
    </g>
  </g>
  <defs>
    <filter id="filter0_d" x="145" y="205" width="60" height="60" filterUnits="userSpaceOnUse" color-interpolation-filters="sRGB">
      <feFlood flood-opacity="0" result="BackgroundImageFix"></feFlood>
      <feColorMatrix in="SourceAlpha" type="matrix" values="0 0 0 0 0 0 0 0 0 0 0 0 0 0 0 0 0 0 127 0"></feColorMatrix>
      <feOffset dx="-3" dy="4"></feOffset>
      <feGaussianBlur stdDeviation="5.5"></feGaussianBlur>
      <feColorMatrix type="matrix" values="0 0 0 0 0 0 0 0 0 0 0 0 0 0 0 0 0 0 0.12 0"></feColorMatrix>
      <feBlend mode="normal" in2="BackgroundImageFix" result="effect1_dropShadow"></feBlend>
      <feBlend mode="normal" in="SourceGraphic" in2="effect1_dropShadow" result="shape"></feBlend>
    </filter>
    <filter id="filter1_d" x="215" y="75" width="60" height="60" filterUnits="userSpaceOnUse" color-interpolation-filters="sRGB">
      <feFlood flood-opacity="0" result="BackgroundImageFix"></feFlood>
      <feColorMatrix in="SourceAlpha" type="matrix" values="0 0 0 0 0 0 0 0 0 0 0 0 0 0 0 0 0 0 127 0"></feColorMatrix>
      <feOffset dx="-3" dy="4"></feOffset>
      <feGaussianBlur stdDeviation="5.5"></feGaussianBlur>
      <feColorMatrix type="matrix" values="0 0 0 0 0 0 0 0 0 0 0 0 0 0 0 0 0 0 0.12 0"></feColorMatrix>
      <feBlend mode="normal" in2="BackgroundImageFix" result="effect1_dropShadow"></feBlend>
      <feBlend mode="normal" in="SourceGraphic" in2="effect1_dropShadow" result="shape"></feBlend>
    </filter>
    <filter id="filter2_d" x="644" y="327" width="60" height="60" filterUnits="userSpaceOnUse" color-interpolation-filters="sRGB">
      <feFlood flood-opacity="0" result="BackgroundImageFix"></feFlood>
      <feColorMatrix in="SourceAlpha" type="matrix" values="0 0 0 0 0 0 0 0 0 0 0 0 0 0 0 0 0 0 127 0"></feColorMatrix>
      <feOffset dx="-3" dy="4"></feOffset>
      <feGaussianBlur stdDeviation="5.5"></feGaussianBlur>
      <feColorMatrix type="matrix" values="0 0 0 0 0 0 0 0 0 0 0 0 0 0 0 0 0 0 0.12 0"></feColorMatrix>
      <feBlend mode="normal" in2="BackgroundImageFix" result="effect1_dropShadow"></feBlend>
      <feBlend mode="normal" in="SourceGraphic" in2="effect1_dropShadow" result="shape"></feBlend>
    </filter>
    <filter id="filter3_d" x="759" y="253" width="60" height="60" filterUnits="userSpaceOnUse" color-interpolation-filters="sRGB">
      <feFlood flood-opacity="0" result="BackgroundImageFix"></feFlood>
      <feColorMatrix in="SourceAlpha" type="matrix" values="0 0 0 0 0 0 0 0 0 0 0 0 0 0 0 0 0 0 127 0"></feColorMatrix>
      <feOffset dx="-3" dy="4"></feOffset>
      <feGaussianBlur stdDeviation="5.5"></feGaussianBlur>
      <feColorMatrix type="matrix" values="0 0 0 0 0 0 0 0 0 0 0 0 0 0 0 0 0 0 0.12 0"></feColorMatrix>
      <feBlend mode="normal" in2="BackgroundImageFix" result="effect1_dropShadow"></feBlend>
      <feBlend mode="normal" in="SourceGraphic" in2="effect1_dropShadow" result="shape"></feBlend>
    </filter>
    <filter id="filter4_d" x="361" y="425" width="60" height="60" filterUnits="userSpaceOnUse" color-interpolation-filters="sRGB">
      <feFlood flood-opacity="0" result="BackgroundImageFix"></feFlood>
      <feColorMatrix in="SourceAlpha" type="matrix" values="0 0 0 0 0 0 0 0 0 0 0 0 0 0 0 0 0 0 127 0"></feColorMatrix>
      <feOffset dx="-3" dy="4"></feOffset>
      <feGaussianBlur stdDeviation="5.5"></feGaussianBlur>
      <feColorMatrix type="matrix" values="0 0 0 0 0 0 0 0 0 0 0 0 0 0 0 0 0 0 0.12 0"></feColorMatrix>
      <feBlend mode="normal" in2="BackgroundImageFix" result="effect1_dropShadow"></feBlend>
      <feBlend mode="normal" in="SourceGraphic" in2="effect1_dropShadow" result="shape"></feBlend>
    </filter>
    <filter id="filter5_d" x="730" y="524" width="60" height="60" filterUnits="userSpaceOnUse" color-interpolation-filters="sRGB">
      <feFlood flood-opacity="0" result="BackgroundImageFix"></feFlood>
      <feColorMatrix in="SourceAlpha" type="matrix" values="0 0 0 0 0 0 0 0 0 0 0 0 0 0 0 0 0 0 127 0"></feColorMatrix>
      <feOffset dx="-3" dy="4"></feOffset>
      <feGaussianBlur stdDeviation="5.5"></feGaussianBlur>
      <feColorMatrix type="matrix" values="0 0 0 0 0 0 0 0 0 0 0 0 0 0 0 0 0 0 0.12 0"></feColorMatrix>
      <feBlend mode="normal" in2="BackgroundImageFix" result="effect1_dropShadow"></feBlend>
      <feBlend mode="normal" in="SourceGraphic" in2="effect1_dropShadow" result="shape"></feBlend>
    </filter>
    <filter id="filter6_d" x="660" y="154" width="60" height="60" filterUnits="userSpaceOnUse" color-interpolation-filters="sRGB">
      <feFlood flood-opacity="0" result="BackgroundImageFix"></feFlood>
      <feColorMatrix in="SourceAlpha" type="matrix" values="0 0 0 0 0 0 0 0 0 0 0 0 0 0 0 0 0 0 127 0"></feColorMatrix>
      <feOffset dx="-3" dy="4"></feOffset>
      <feGaussianBlur stdDeviation="5.5"></feGaussianBlur>
      <feColorMatrix type="matrix" values="0 0 0 0 0 0 0 0 0 0 0 0 0 0 0 0 0 0 0.12 0"></feColorMatrix>
      <feBlend mode="normal" in2="BackgroundImageFix" result="effect1_dropShadow"></feBlend>
      <feBlend mode="normal" in="SourceGraphic" in2="effect1_dropShadow" result="shape"></feBlend>
    </filter>
    <filter id="filter7_d" x="1070" y="194" width="60" height="60" filterUnits="userSpaceOnUse" color-interpolation-filters="sRGB">
      <feFlood flood-opacity="0" result="BackgroundImageFix"></feFlood>
      <feColorMatrix in="SourceAlpha" type="matrix" values="0 0 0 0 0 0 0 0 0 0 0 0 0 0 0 0 0 0 127 0"></feColorMatrix>
      <feOffset dx="-3" dy="4"></feOffset>
      <feGaussianBlur stdDeviation="5.5"></feGaussianBlur>
      <feColorMatrix type="matrix" values="0 0 0 0 0 0 0 0 0 0 0 0 0 0 0 0 0 0 0.12 0"></feColorMatrix>
      <feBlend mode="normal" in2="BackgroundImageFix" result="effect1_dropShadow"></feBlend>
      <feBlend mode="normal" in="SourceGraphic" in2="effect1_dropShadow" result="shape"></feBlend>
    </filter>
    <filter id="filter8_d" x="1000" y="264" width="60" height="60" filterUnits="userSpaceOnUse" color-interpolation-filters="sRGB">
      <feFlood flood-opacity="0" result="BackgroundImageFix"></feFlood>
      <feColorMatrix in="SourceAlpha" type="matrix" values="0 0 0 0 0 0 0 0 0 0 0 0 0 0 0 0 0 0 127 0"></feColorMatrix>
      <feOffset dx="-3" dy="4"></feOffset>
      <feGaussianBlur stdDeviation="5.5"></feGaussianBlur>
      <feColorMatrix type="matrix" values="0 0 0 0 0 0 0 0 0 0 0 0 0 0 0 0 0 0 0.12 0"></feColorMatrix>
      <feBlend mode="normal" in2="BackgroundImageFix" result="effect1_dropShadow"></feBlend>
      <feBlend mode="normal" in="SourceGraphic" in2="effect1_dropShadow" result="shape"></feBlend>
    </filter>
    <filter id="filter9_d" x="740" y="34" width="60" height="60" filterUnits="userSpaceOnUse" color-interpolation-filters="sRGB">
      <feFlood flood-opacity="0" result="BackgroundImageFix"></feFlood>
      <feColorMatrix in="SourceAlpha" type="matrix" values="0 0 0 0 0 0 0 0 0 0 0 0 0 0 0 0 0 0 127 0"></feColorMatrix>
      <feOffset dx="-3" dy="4"></feOffset>
      <feGaussianBlur stdDeviation="5.5"></feGaussianBlur>
      <feColorMatrix type="matrix" values="0 0 0 0 0 0 0 0 0 0 0 0 0 0 0 0 0 0 0.12 0"></feColorMatrix>
      <feBlend mode="normal" in2="BackgroundImageFix" result="effect1_dropShadow"></feBlend>
      <feBlend mode="normal" in="SourceGraphic" in2="effect1_dropShadow" result="shape"></feBlend>
    </filter>
  </defs>
</svg>