<svg width="16" height="17" viewBox="0 0 16 17" fill="none" xmlns="http://www.w3.org/2000/svg">
<path d="M5.33334 15.3799C5.14668 15.3799 4.95333 15.3333 4.78 15.24C4.4 15.04 4.16668 14.6399 4.16668 14.2133V13.2666C2.15334 13.06 0.833344 11.5799 0.833344 9.45992V5.45996C0.833344 3.16663 2.37334 1.62663 4.66668 1.62663H11.3333C13.6267 1.62663 15.1667 3.16663 15.1667 5.45996V9.45992C15.1667 11.7533 13.6267 13.2933 11.3333 13.2933H8.82L5.97999 15.1866C5.78666 15.3133 5.56001 15.3799 5.33334 15.3799ZM4.66668 2.61996C2.94668 2.61996 1.83334 3.73329 1.83334 5.45329V9.45333C1.83334 11.1733 2.94668 12.2867 4.66668 12.2867C4.94001 12.2867 5.16668 12.5133 5.16668 12.7867V14.2067C5.16668 14.2933 5.22001 14.3333 5.25335 14.3533C5.28668 14.3733 5.35335 14.3933 5.42669 14.3466L8.39336 12.3733C8.47336 12.32 8.57335 12.2867 8.67335 12.2867H11.34C13.06 12.2867 14.1733 11.1733 14.1733 9.45333V5.45329C14.1733 3.73329 13.06 2.61996 11.34 2.61996H4.66668Z" fill="#232323"/>
<path d="M7.99987 8.57332C7.72653 8.57332 7.49987 8.34666 7.49987 8.07332V7.93335C7.49987 7.16002 8.06652 6.78001 8.27986 6.63334C8.52652 6.46667 8.60652 6.35335 8.60652 6.18001C8.60652 5.84668 8.3332 5.57332 7.99987 5.57332C7.66653 5.57332 7.39322 5.84668 7.39322 6.18001C7.39322 6.45335 7.16655 6.68001 6.89322 6.68001C6.61989 6.68001 6.39322 6.45335 6.39322 6.18001C6.39322 5.29335 7.1132 4.57332 7.99987 4.57332C8.88653 4.57332 9.60652 5.29335 9.60652 6.18001C9.60652 6.94001 9.04654 7.32 8.83987 7.46C8.57987 7.63333 8.49987 7.74668 8.49987 7.93335V8.07332C8.49987 8.35332 8.2732 8.57332 7.99987 8.57332Z" fill="#232323"/>
<path d="M8 10.2333C7.72 10.2333 7.5 10.0067 7.5 9.73332C7.5 9.45999 7.72667 9.23332 8 9.23332C8.27333 9.23332 8.5 9.45999 8.5 9.73332C8.5 10.0067 8.28 10.2333 8 10.2333Z" fill="#232323"/>
</svg>
