<svg width="327" height="294" viewBox="0 0 327 294" fill="none" xmlns="http://www.w3.org/2000/svg">
<circle r="27" transform="matrix(1 0 0 -1 -1 63)" fill="white"/>
<circle r="27" transform="matrix(1 0 0 -1 41 54)" fill="white"/>
<circle r="27" transform="matrix(1 0 0 -1 80 63)" fill="white"/>
<circle r="27" transform="matrix(1 0 0 -1 121 45)" fill="white"/>
<circle r="27" transform="matrix(1 0 0 -1 202 45)" fill="white"/>
<circle r="27" transform="matrix(1 0 0 -1 246 54)" fill="white"/>
<circle r="27" transform="matrix(1 0 0 -1 284 45)" fill="white"/>
<circle r="27" transform="matrix(1 0 0 -1 327 36)" fill="white"/>
<circle r="27" transform="matrix(1 0 0 -1 160 27)" fill="white"/>
<rect y="50" width="327" height="244" fill="white"/>
</svg>
