<svg width="16" height="16" viewBox="0 0 16 16" fill="none" xmlns="http://www.w3.org/2000/svg">
<path d="M2.33334 12.5C2.06001 12.5 1.83334 12.2733 1.83334 12V4.66666C1.83334 1.72666 2.72668 0.833328 5.66668 0.833328H10.3333C13.2733 0.833328 14.1667 1.72666 14.1667 4.66666V11.3333C14.1667 11.44 14.1667 11.54 14.16 11.6467C14.14 11.92 13.8933 12.1333 13.6267 12.1133C13.3533 12.0933 13.14 11.8533 13.16 11.58C13.1667 11.5 13.1667 11.4133 13.1667 11.3333V4.66666C13.1667 2.28666 12.72 1.83333 10.3333 1.83333H5.66668C3.28001 1.83333 2.83334 2.28666 2.83334 4.66666V12C2.83334 12.2733 2.60668 12.5 2.33334 12.5Z" fill="#232323"/>
<path d="M11.3333 15.1667H4.66668C3.10668 15.1667 1.83334 13.8933 1.83334 12.3333V11.9C1.83334 10.5733 2.91334 9.5 4.23334 9.5H13.6667C13.94 9.5 14.1667 9.72667 14.1667 10V12.3333C14.1667 13.8933 12.8933 15.1667 11.3333 15.1667ZM4.23334 10.5C3.46001 10.5 2.83334 11.1267 2.83334 11.9V12.3333C2.83334 13.3467 3.65334 14.1667 4.66668 14.1667H11.3333C12.3467 14.1667 13.1667 13.3467 13.1667 12.3333V10.5H4.23334Z" fill="#232323"/>
<path d="M10.6667 5.16667H5.33334C5.06001 5.16667 4.83334 4.94001 4.83334 4.66667C4.83334 4.39334 5.06001 4.16667 5.33334 4.16667H10.6667C10.94 4.16667 11.1667 4.39334 11.1667 4.66667C11.1667 4.94001 10.94 5.16667 10.6667 5.16667Z" fill="#232323"/>
<path d="M8.66668 7.5H5.33334C5.06001 7.5 4.83334 7.27333 4.83334 7C4.83334 6.72667 5.06001 6.5 5.33334 6.5H8.66668C8.94001 6.5 9.16668 6.72667 9.16668 7C9.16668 7.27333 8.94001 7.5 8.66668 7.5Z" fill="#232323"/>
</svg>
