<svg width="16" height="17" viewBox="0 0 16 17" fill="none" xmlns="http://www.w3.org/2000/svg">
<path d="M14.3333 7.76666V3.23333C14.3333 2.23333 13.9067 1.83333 12.8467 1.83333H10.1533C9.09332 1.83333 8.66666 2.23333 8.66666 3.23333V7.76666C8.66666 8.76666 9.09332 9.16666 10.1533 9.16666H12.8467C13.9067 9.16666 14.3333 8.76666 14.3333 7.76666Z" fill="#F8991D"/>
<path d="M7.33332 9.23333V13.7667C7.33332 14.7667 6.90666 15.1667 5.84666 15.1667H3.15332C2.09332 15.1667 1.66666 14.7667 1.66666 13.7667V9.23333C1.66666 8.23333 2.09332 7.83333 3.15332 7.83333H5.84666C6.90666 7.83333 7.33332 8.23333 7.33332 9.23333Z" fill="#F8991D"/>
<path d="M14.3333 13.7667V11.9C14.3333 10.9 13.9067 10.5 12.8467 10.5H10.1533C9.09332 10.5 8.66666 10.9 8.66666 11.9V13.7667C8.66666 14.7667 9.09332 15.1667 10.1533 15.1667H12.8467C13.9067 15.1667 14.3333 14.7667 14.3333 13.7667Z" fill="#F8991D"/>
<path d="M7.33332 5.1V3.23333C7.33332 2.23333 6.90666 1.83333 5.84666 1.83333H3.15332C2.09332 1.83333 1.66666 2.23333 1.66666 3.23333V5.1C1.66666 6.1 2.09332 6.5 3.15332 6.5H5.84666C6.90666 6.5 7.33332 6.1 7.33332 5.1Z" fill="#F8991D"/>
</svg>
