<svg width="16" height="17" viewBox="0 0 16 17" fill="none" xmlns="http://www.w3.org/2000/svg">
<path d="M10 15.6667H9.33334C9.06001 15.6667 8.83334 15.44 8.83334 15.1667C8.83334 14.8933 9.06001 14.6667 9.33334 14.6667H10C13.0733 14.6667 14.1667 13.5733 14.1667 10.5V6.5C14.1667 3.42667 13.0733 2.33334 10 2.33334H6.00001C2.92668 2.33334 1.83334 3.42667 1.83334 6.5V7.15334C1.83334 7.42667 1.60668 7.65334 1.33334 7.65334C1.06001 7.65334 0.833344 7.42667 0.833344 7.15334V6.5C0.833344 2.88 2.38001 1.33334 6.00001 1.33334H10C13.62 1.33334 15.1667 2.88 15.1667 6.5V10.5C15.1667 14.12 13.62 15.6667 10 15.6667Z" fill="#232323"/>
<path d="M8.66667 8.33334C8.54 8.33334 8.41333 8.28667 8.31333 8.18667C8.12 7.99334 8.12 7.67334 8.31333 7.48L10.8067 4.98H9.33333C9.06 4.98 8.83333 4.75334 8.83333 4.48C8.83333 4.20667 9.05333 3.98 9.33333 3.98H12.0067C12.2067 3.98 12.3933 4.1 12.4667 4.28667C12.5467 4.47334 12.5 4.68667 12.36 4.83334L9.02 8.18667C8.92 8.28667 8.79333 8.33334 8.66667 8.33334Z" fill="#232323"/>
<path d="M12.0067 7.66C11.7333 7.66 11.5067 7.43334 11.5067 7.16V4.48C11.5067 4.20667 11.7333 3.98 12.0067 3.98C12.28 3.98 12.5067 4.20667 12.5067 4.48V7.15334C12.5067 7.43334 12.28 7.66 12.0067 7.66Z" fill="#232323"/>
<path d="M5.23334 15.6667H3.43334C1.66001 15.6667 0.833344 14.84 0.833344 13.0667V11.2667C0.833344 9.49333 1.66001 8.66666 3.43334 8.66666H5.23334C7.00668 8.66666 7.83334 9.49333 7.83334 11.2667V13.0667C7.83334 14.84 7.00668 15.6667 5.23334 15.6667ZM3.43334 9.66666C2.20668 9.66666 1.83334 10.04 1.83334 11.2667V13.0667C1.83334 14.2933 2.20668 14.6667 3.43334 14.6667H5.23334C6.46001 14.6667 6.83334 14.2933 6.83334 13.0667V11.2667C6.83334 10.04 6.46001 9.66666 5.23334 9.66666H3.43334Z" fill="#232323"/>
</svg>
