<svg width="157" height="32" viewBox="0 0 157 32" fill="none" xmlns="http://www.w3.org/2000/svg">
<g clip-path="url(#clip0_1873_12578)">
<path d="M15.8376 32.0191C24.5845 32.0191 31.6753 24.8513 31.6753 16.0095C31.6753 7.16771 24.5845 0 15.8376 0C7.09075 0 0 7.16771 0 16.0095C0 24.8513 7.09075 32.0191 15.8376 32.0191Z" fill="#232057"/>
<path d="M10.5957 21.4223C10.5957 21.7042 10.6509 21.9834 10.7582 22.2436C10.8655 22.5038 11.0228 22.74 11.2209 22.9385C11.4189 23.1369 11.654 23.2938 11.9123 23.3999C12.1707 23.5061 12.4473 23.5594 12.7262 23.5569H14.9322V8.44315H13.1976C12.8577 8.4381 12.5202 8.50141 12.2047 8.62941C11.8893 8.75741 11.6021 8.94753 11.36 9.18873C11.1179 9.42992 10.9256 9.71738 10.7944 10.0344C10.6632 10.3514 10.5957 10.6916 10.5957 11.0352V21.4223Z" fill="white"/>
<path d="M18.8542 8.44305H16.7236V17.2674H19.0239C19.5574 17.2674 20.0697 17.0558 20.4506 16.678C20.8314 16.3002 21.0502 15.7864 21.0601 15.2471V10.5967C21.063 10.3066 21.0073 10.0189 20.8965 9.75129C20.7856 9.48366 20.622 9.24167 20.4155 9.04011C20.2091 8.83855 19.9642 8.68165 19.6957 8.579C19.4272 8.47634 19.1409 8.43008 18.8542 8.44305Z" fill="white"/>
<path d="M18.8919 23.5569C20.0894 23.5569 21.0601 22.5756 21.0601 21.3651C21.0601 20.1546 20.0894 19.1733 18.8919 19.1733C17.6944 19.1733 16.7236 20.1546 16.7236 21.3651C16.7236 22.5756 17.6944 23.5569 18.8919 23.5569Z" fill="#F8991D"/>
<path d="M49.4923 11.7213C48.9999 11.2394 48.425 10.8519 47.7955 10.5778C47.1264 10.2965 46.4083 10.1539 45.6838 10.1585H41.4793C41.3479 10.1405 41.2147 10.1405 41.0833 10.1585L40.7628 10.3682C40.6659 10.4628 40.5945 10.5809 40.5554 10.7112C40.5271 10.8367 40.5271 10.9669 40.5554 11.0924V23.8428C40.5571 24.1058 40.6583 24.3581 40.8382 24.548C40.9337 24.6293 41.0421 24.6937 41.1587 24.7386C41.3386 24.8131 41.5361 24.833 41.727 24.7957C41.9179 24.7585 42.0939 24.6658 42.2334 24.529C42.3296 24.4413 42.4011 24.3295 42.4408 24.205C42.4675 24.0858 42.4675 23.962 42.4408 23.8428V20.9649H45.6461C46.3441 20.9665 47.0357 20.8305 47.6823 20.5647C48.3404 20.2958 48.9371 19.8937 49.4358 19.383C49.9157 18.8952 50.2996 18.3195 50.567 17.6868C50.854 17.0266 50.9955 16.3113 50.9818 15.5903C50.9909 14.8778 50.8562 14.171 50.5859 13.5129C50.3342 12.8524 49.9634 12.245 49.4923 11.7213ZM48.8324 16.8291C48.6675 17.2313 48.4311 17.5995 48.1348 17.9155C47.822 18.2244 47.4583 18.4759 47.0601 18.6588C46.6388 18.8481 46.1826 18.9456 45.7215 18.9447H42.4974V12.1406H45.7403C46.1954 12.1396 46.6454 12.2371 47.0601 12.4265C47.457 12.6185 47.8151 12.8835 48.116 13.2079C48.4206 13.5172 48.6581 13.8872 48.8136 14.2943C48.9858 14.6976 49.0756 15.132 49.0776 15.5713C49.0822 16.0031 48.9987 16.4313 48.8324 16.8291Z" fill="black"/>
<path d="M56.9778 22.9659C56.855 22.9277 56.7236 22.9277 56.6008 22.9659C56.3706 22.9794 56.1401 22.9458 55.9231 22.8672C55.706 22.7886 55.5069 22.6666 55.3375 22.5085C55.1715 22.3411 55.0429 22.1396 54.9604 21.9177C54.868 21.695 54.8292 21.4533 54.8473 21.2125V11.0541C54.8756 10.9286 54.8756 10.7983 54.8473 10.6729C54.7993 10.5478 54.7216 10.4365 54.621 10.3489C54.5319 10.2534 54.4234 10.1785 54.303 10.1291C54.1827 10.0798 54.0532 10.0573 53.9234 10.063C53.7993 10.035 53.6705 10.035 53.5463 10.063C53.434 10.1219 53.3321 10.1992 53.2447 10.2917C53.1544 10.3843 53.0838 10.4945 53.0373 10.6157C53.0175 10.742 53.0175 10.8706 53.0373 10.9969V21.06C53.0178 21.5832 53.1144 22.1042 53.3201 22.5847C53.485 23.0286 53.7422 23.4315 54.0743 23.7664C54.4073 24.0998 54.8054 24.3595 55.2432 24.5288C55.6979 24.7175 56.1847 24.8147 56.6762 24.8146C56.8006 24.8398 56.9288 24.8398 57.0533 24.8146C57.2803 24.713 57.4618 24.5296 57.5623 24.3C57.5906 24.1746 57.5906 24.0443 57.5623 23.9189C57.5645 23.7881 57.5406 23.6583 57.492 23.5371C57.4434 23.416 57.3711 23.306 57.2795 23.2137C57.2035 23.1046 57.0991 23.0188 56.9778 22.9659Z" fill="black"/>
<path d="M68.9129 14.4658C68.8224 14.3685 68.7134 14.2907 68.5924 14.2371C68.4761 14.1873 68.3511 14.1616 68.2247 14.1616C68.0984 14.1616 67.9734 14.1873 67.8571 14.2371C67.7305 14.2907 67.6153 14.3684 67.5177 14.4658C67.4176 14.55 67.3453 14.663 67.3103 14.7898C67.282 14.9152 67.282 15.0455 67.3103 15.171V19.6879C67.3074 20.1281 67.2374 20.5653 67.1029 20.984C66.9652 21.3727 66.7609 21.7339 66.4996 22.0513C66.2375 22.3552 65.9167 22.6016 65.5568 22.7755C65.165 22.9512 64.7411 23.0421 64.3125 23.0423C63.8593 23.0812 63.4031 23.0228 62.9738 22.8708C62.2144 22.5231 61.6144 21.8961 61.2958 21.1174C61.1487 20.7079 61.0722 20.276 61.0695 19.8404V15.2472C61.0978 15.1218 61.0978 14.9915 61.0695 14.866C61.0115 14.7466 60.9352 14.6373 60.8433 14.542C60.7586 14.4512 60.6558 14.3798 60.5416 14.3324C60.2925 14.2372 60.0176 14.2372 59.7686 14.3324C59.6569 14.3843 59.5548 14.4552 59.4669 14.542C59.3871 14.6427 59.3176 14.7512 59.2595 14.866C59.2312 14.9915 59.2312 15.1218 59.2595 15.2472V19.8023C59.2425 21.2211 59.7774 22.59 60.749 23.6141C61.2358 24.0941 61.8042 24.4815 62.427 24.7576C63.0527 25.0282 63.7262 25.1676 64.4067 25.1676C65.0873 25.1676 65.7607 25.0282 66.3864 24.7576C66.9769 24.4834 67.5086 24.0949 67.9513 23.6141C68.3946 23.1159 68.7458 22.5414 68.9883 21.9178C69.2288 21.2524 69.3501 20.5489 69.3466 19.8404V15.2472C69.3748 15.1218 69.3748 14.9915 69.3466 14.866C69.3111 14.7692 69.2532 14.6824 69.1777 14.6128C69.1023 14.5431 69.0115 14.4928 68.9129 14.4658Z" fill="black"/>
<path d="M77.8498 14.4656C77.7423 14.3719 77.6216 14.2948 77.4916 14.2369H77.0957C76.3431 14.234 75.5982 14.3898 74.9086 14.6943C74.1999 14.9667 73.557 15.389 73.0231 15.9331C72.506 16.4538 72.0903 17.068 71.7976 17.7438C71.513 18.4521 71.3658 19.2091 71.3639 19.9736V23.9379C71.337 24.0699 71.337 24.2061 71.3639 24.3382C71.415 24.4616 71.4923 24.5722 71.5902 24.6622C71.6853 24.7537 71.7979 24.8246 71.9211 24.8705C72.0443 24.9164 72.1755 24.9363 72.3067 24.929C72.4245 24.9566 72.5471 24.9566 72.6649 24.929C72.7766 24.8771 72.8786 24.8061 72.9666 24.7193C73.0592 24.6287 73.1301 24.5179 73.174 24.3953C73.2102 24.2644 73.2102 24.126 73.174 23.9951V19.9165C73.1774 19.4119 73.28 18.9131 73.4756 18.4489C73.6636 18.0082 73.9323 17.6073 74.2675 17.2673C74.6073 16.9238 75.011 16.6517 75.4553 16.4668C75.9013 16.2691 76.3825 16.1653 76.8694 16.1619C77 16.1891 77.1347 16.1891 77.2654 16.1619C77.3866 16.1175 77.4962 16.0458 77.5859 15.9522C77.6778 15.857 77.7541 15.7476 77.8121 15.6282C77.8391 15.4962 77.8391 15.36 77.8121 15.228C77.8304 15.1016 77.8304 14.9732 77.8121 14.8468C77.8451 14.7226 77.8579 14.5939 77.8498 14.4656Z" fill="black"/>
<path d="M86.0886 14.4848C85.4246 14.1959 84.7092 14.0469 83.9863 14.0469C83.2634 14.0469 82.5481 14.1959 81.8841 14.4848C81.242 14.7544 80.6589 15.1495 80.1683 15.6474C79.6657 16.1462 79.268 16.7427 78.9993 17.4009C78.7131 18.0753 78.5656 18.8016 78.5657 19.5355C78.5584 20.2701 78.7063 20.9978 78.9993 21.6701C79.552 22.9868 80.5851 24.0379 81.8841 24.6051C82.5498 24.8971 83.2702 25.0402 83.9957 25.0244C84.645 25.0477 85.2907 24.9172 85.8812 24.6433C86.46 24.396 86.995 24.0548 87.4649 23.6331V23.8618C87.4617 24.1314 87.5633 24.3914 87.7477 24.5861C87.8313 24.6829 87.9341 24.7608 88.0494 24.8148C88.1735 24.8434 88.3024 24.8434 88.4265 24.8148C88.5571 24.842 88.6918 24.842 88.8224 24.8148C89.0623 24.6999 89.2555 24.5046 89.3692 24.2621C89.3871 24.1293 89.3871 23.9947 89.3692 23.8618V19.4783C89.353 18.7504 89.1994 18.0324 88.9167 17.3627C88.3721 16.0736 87.3602 15.0439 86.0886 14.4848ZM87.1633 20.9649C86.9899 21.3772 86.7403 21.7524 86.4279 22.0703C86.1125 22.3898 85.7419 22.6481 85.3344 22.8327C84.9094 23.0211 84.4504 23.1184 83.9863 23.1184C83.5222 23.1184 83.0632 23.0211 82.6382 22.8327C82.2211 22.6556 81.843 22.3964 81.5258 22.0703C81.2257 21.7424 80.9777 21.3695 80.7905 20.9649C80.52 20.327 80.4473 19.6211 80.582 18.9406C80.7166 18.26 81.0523 17.6368 81.5447 17.1531C81.8557 16.8331 82.2277 16.5802 82.6382 16.4098C83.0663 16.2205 83.5285 16.1232 83.9957 16.1239C84.9076 16.1361 85.7794 16.505 86.4279 17.1531C86.91 17.6433 87.2379 18.2666 87.3707 18.9446C87.4968 19.6241 87.4248 20.3261 87.1633 20.9649Z" fill="black"/>
<path d="M95.8555 22.9661C95.7326 22.9279 95.6012 22.9279 95.4784 22.9661C95.2479 23.01 95.0113 23.01 94.7808 22.9661C94.5612 22.8828 94.3619 22.7528 94.1963 22.585C94.0386 22.4109 93.9111 22.2111 93.8192 21.9941C93.7719 21.7679 93.7719 21.5342 93.8192 21.308V11.0543C93.857 10.9301 93.857 10.7973 93.8192 10.6731C93.7844 10.5413 93.7042 10.4264 93.593 10.3491C93.5054 10.2515 93.3972 10.1752 93.2764 10.1257C93.1557 10.0762 93.0254 10.0548 92.8953 10.0632C92.7775 10.0356 92.655 10.0356 92.5371 10.0632C92.4218 10.1172 92.319 10.1951 92.2354 10.2919C92.1393 10.3796 92.0678 10.4914 92.0281 10.6159C91.9998 10.7414 91.9998 10.8717 92.0281 10.9971V21.0602C92.0286 21.5818 92.1244 22.0987 92.3109 22.585C92.4803 23.0311 92.7441 23.4344 93.0839 23.7666C93.4066 24.1038 93.7995 24.3642 94.234 24.529C94.6945 24.7202 95.1879 24.8174 95.6858 24.8149C95.8099 24.8435 95.9388 24.8435 96.0629 24.8149C96.1067 24.7445 96.1386 24.6672 96.1572 24.5862C96.2526 24.5056 96.3244 24.4001 96.3645 24.2812C96.391 24.1556 96.391 24.0257 96.3645 23.9C96.3668 23.7693 96.3428 23.6395 96.2942 23.5183C96.2456 23.3971 96.1734 23.2871 96.0817 23.1949C96.0297 23.0982 95.9511 23.0188 95.8555 22.9661Z" fill="black"/>
<path d="M102.793 12.4646C103.455 12.1773 104.167 12.0282 104.886 12.0262C105.591 12.0332 106.287 12.1817 106.935 12.4631C107.582 12.7445 108.167 13.1532 108.657 13.6653C108.747 13.7589 108.856 13.8306 108.978 13.875C109.108 13.9022 109.243 13.9022 109.374 13.875C109.627 13.8667 109.868 13.765 110.052 13.5891C110.144 13.4968 110.216 13.3868 110.265 13.2656C110.313 13.1445 110.337 13.0146 110.335 12.8839C110.362 12.7583 110.362 12.6284 110.335 12.5027C110.291 12.3861 110.22 12.2817 110.128 12.1978C109.423 11.4688 108.576 10.8974 107.639 10.5206C106.762 10.1493 105.819 9.96125 104.867 9.96788C104.179 9.95073 103.492 10.0407 102.831 10.2347C102.202 10.4217 101.6 10.6908 101.04 11.0352C99.9447 11.6973 99.0459 12.6453 98.4381 13.7797C97.8187 14.9114 97.4943 16.1838 97.4954 17.4771C97.4897 18.1208 97.5722 18.7622 97.7405 19.383C97.9166 20.0037 98.17 20.5993 98.4947 21.1555C98.9535 22.0229 99.578 22.7896 100.332 23.4112C101.086 24.0328 101.955 24.4969 102.888 24.7767C103.502 24.947 104.136 25.0367 104.773 25.0435C105.736 25.0422 106.69 24.8546 107.582 24.4908C108.53 24.1413 109.392 23.5887 110.109 22.8708C110.204 22.7903 110.276 22.6848 110.316 22.5659C110.336 22.4396 110.336 22.311 110.316 22.1847C110.334 22.0647 110.334 21.9426 110.316 21.8226C110.278 21.6875 110.199 21.5677 110.09 21.4795C110.004 21.3947 109.901 21.3296 109.788 21.2889C109.669 21.2386 109.541 21.2127 109.411 21.2127C109.282 21.2127 109.154 21.2386 109.034 21.2889C108.917 21.3295 108.812 21.4021 108.733 21.4986C108.191 22.0281 107.55 22.4428 106.847 22.7183C106.192 22.9768 105.495 23.1062 104.792 23.0995C104.086 23.089 103.39 22.937 102.742 22.6524C102.095 22.3678 101.51 21.9562 101.021 21.4414C100.267 20.6536 99.76 19.6574 99.5653 18.5786C99.3707 17.4998 99.4967 16.387 99.9276 15.3806C100.47 14.0678 101.498 13.0213 102.793 12.4646Z" fill="black"/>
<path d="M119.311 14.4848C118.642 14.1989 117.925 14.0499 117.199 14.0464C116.447 14.0358 115.702 14.1852 115.012 14.4848C113.729 15.0462 112.714 16.0928 112.184 17.4008C111.903 18.0765 111.762 18.8028 111.769 19.5354C111.762 20.27 111.909 20.9978 112.202 21.67C112.619 22.6619 113.315 23.5084 114.203 24.1047C115.091 24.7009 116.133 25.0207 117.199 25.0244C117.925 25.0209 118.642 24.8719 119.311 24.586C119.957 24.3164 120.541 23.9141 121.026 23.4044C121.519 22.9085 121.91 22.319 122.176 21.67C122.44 20.9905 122.568 20.2651 122.553 19.5354C122.554 18.8015 122.406 18.0753 122.12 17.4008C121.588 16.1008 120.582 15.0569 119.311 14.4848ZM120.348 20.9648C120.174 21.3727 119.932 21.7468 119.631 22.0703C119.312 22.3857 118.942 22.6435 118.538 22.8326C118.109 23.0215 117.647 23.119 117.18 23.119C116.713 23.119 116.251 23.0215 115.822 22.8326C115.414 22.6504 115.043 22.3918 114.729 22.0703C114.417 21.7524 114.167 21.3772 113.994 20.9648C113.808 20.5382 113.712 20.0776 113.711 19.6116C113.71 19.1394 113.806 18.6721 113.994 18.2394C114.171 17.8351 114.421 17.467 114.729 17.153C115.047 16.833 115.425 16.5803 115.841 16.4097C116.263 16.2204 116.719 16.123 117.18 16.1239C117.647 16.1231 118.109 16.2205 118.538 16.4097C118.945 16.585 119.317 16.8373 119.631 17.153C120.101 17.6495 120.421 18.2709 120.555 18.9446C120.681 19.6241 120.609 20.326 120.348 20.9648Z" fill="black"/>
<path d="M134.243 10.3492C134.136 10.2451 134.007 10.1669 133.866 10.1205C133.742 10.0913 133.613 10.0913 133.489 10.1205C133.359 10.0928 133.224 10.0928 133.093 10.1205C132.978 10.1745 132.875 10.2524 132.791 10.3492C132.609 10.5529 132.508 10.8179 132.509 11.0925V15.2474C132.033 14.8533 131.498 14.5381 130.925 14.3135C130.322 14.0839 129.683 13.9676 129.039 13.9704C127.975 13.9729 126.936 14.2925 126.05 14.8891C125.165 15.4857 124.473 16.3329 124.062 17.3248C123.776 17.9993 123.628 18.7255 123.628 19.4594C123.628 20.1933 123.776 20.9196 124.062 21.594C124.335 22.2454 124.725 22.8399 125.212 23.3475C125.707 23.845 126.289 24.2456 126.928 24.5291C127.595 24.8184 128.313 24.9676 129.039 24.9675C129.753 24.9678 130.459 24.8185 131.113 24.5291C131.756 24.2596 132.339 23.8645 132.829 23.3665C133.323 22.8705 133.725 22.2897 134.017 21.6512C134.301 20.9828 134.449 20.2632 134.451 19.5357V11.0925C134.478 10.9606 134.478 10.8243 134.451 10.6923C134.403 10.5659 134.333 10.4496 134.243 10.3492ZM132.358 20.8888C132.171 21.2935 131.923 21.6664 131.622 21.9943C131.305 22.3204 130.927 22.5796 130.51 22.7566C130.089 22.946 129.633 23.0434 129.171 23.0425C128.704 23.0432 128.242 22.9459 127.814 22.7566C126.962 22.397 126.284 21.7122 125.928 20.8507C125.577 19.9769 125.577 18.9991 125.928 18.1253C126.112 17.758 126.361 17.4284 126.664 17.1533C126.979 16.8338 127.35 16.5755 127.757 16.3909C128.19 16.2182 128.65 16.1277 129.115 16.1241C130.034 16.1273 130.915 16.4971 131.566 17.1533C131.87 17.4779 132.119 17.8515 132.301 18.2587C132.652 19.1325 132.652 20.1103 132.301 20.9841L132.358 20.8888Z" fill="black"/>
<path d="M146.875 17.3626C146.308 16.0628 145.268 15.0327 143.971 14.4847C143.304 14.1954 142.586 14.0463 141.86 14.0464C141.134 14.0499 140.416 14.1989 139.748 14.4847C139.106 14.7543 138.523 15.1494 138.032 15.6473C137.523 16.1408 137.125 16.7386 136.863 17.4008C136.577 18.0752 136.43 18.8015 136.43 19.5354C136.433 20.2689 136.581 20.9944 136.863 21.67C137.13 22.3237 137.528 22.9142 138.032 23.4043C138.527 23.9019 139.109 24.3025 139.748 24.586C140.415 24.8746 141.134 25.0175 141.86 25.0053C142.248 25.0532 142.64 25.0532 143.029 25.0053C143.364 24.9326 143.692 24.8306 144.009 24.7003C144.292 24.5923 144.559 24.4447 144.801 24.262C145.025 24.1116 145.233 23.9393 145.423 23.7474C145.531 23.6652 145.621 23.5614 145.687 23.4425C145.742 23.3278 145.78 23.2059 145.8 23.0803C145.823 22.8448 145.763 22.6087 145.631 22.4133C145.572 22.3283 145.502 22.2514 145.423 22.1846C145.365 22.076 145.281 21.9841 145.178 21.9177C145.024 21.8705 144.86 21.8705 144.707 21.9177C144.516 21.9539 144.336 22.032 144.179 22.1464C143.908 22.4565 143.564 22.6924 143.18 22.8326C142.76 23.0008 142.311 23.0849 141.86 23.0803C141.469 23.0742 141.082 23.01 140.71 22.8897C140.014 22.6354 139.423 22.1521 139.032 21.5175C138.823 21.2007 138.682 20.8438 138.617 20.4693H146.347C146.471 20.4985 146.6 20.4985 146.724 20.4693C146.845 20.4249 146.955 20.3532 147.045 20.2596C147.14 20.1791 147.212 20.0736 147.252 19.9547C147.288 19.8367 147.288 19.7105 147.252 19.5925C147.283 18.8307 147.155 18.0708 146.875 17.3626ZM138.56 18.773C138.635 18.3861 138.768 18.0131 138.956 17.6676C139.148 17.3395 139.398 17.049 139.691 16.8099C139.991 16.5651 140.329 16.372 140.691 16.2382C141.079 16.1023 141.487 16.0315 141.897 16.0285C142.314 16.0314 142.728 16.1022 143.123 16.2382C143.485 16.3767 143.827 16.5625 144.141 16.7909C144.435 17.0373 144.684 17.3341 144.876 17.6676C145.083 18.0044 145.218 18.3808 145.272 18.773H138.56Z" fill="black"/>
<path d="M150.646 21.7275C150.336 21.7275 150.034 21.8203 149.777 21.9941C149.519 22.1679 149.319 22.415 149.2 22.704C149.082 22.9931 149.051 23.3111 149.111 23.618C149.172 23.9249 149.321 24.2067 149.539 24.428C149.758 24.6492 150.037 24.7999 150.341 24.8609C150.644 24.9219 150.959 24.8906 151.245 24.7709C151.531 24.6511 151.775 24.4484 151.947 24.1882C152.119 23.9281 152.211 23.6223 152.211 23.3094C152.211 22.8898 152.046 22.4875 151.753 22.1908C151.459 21.8942 151.061 21.7275 150.646 21.7275Z" fill="#F8991D"/>
<path d="M151.57 10.3871H150.514V9.98682H153.116V10.3871H152.041V13.5508H151.57V10.3871Z" fill="black"/>
<path d="M156.49 11.988C156.49 11.4925 156.49 10.9016 156.49 10.4442C156.377 10.8635 156.227 11.3019 156.057 11.7974L155.435 13.5318H154.982L154.417 11.8355C154.257 11.3801 154.125 10.9155 154.021 10.4442C154.021 10.9016 154.021 11.4925 154.021 12.0261V13.5508H153.587L153.832 9.98682H154.417L155.02 11.7212C155.171 12.1405 155.284 12.5407 155.378 12.9028C155.476 12.5026 155.596 12.1082 155.736 11.7212L156.377 9.98682H156.943L157.169 13.5508H156.49V11.988Z" fill="black"/>
</g>
<defs>
<clipPath id="clip0_1873_12578">
<rect width="157" height="32" fill="white"/>
</clipPath>
</defs>
</svg>
