<svg width="24" height="24" viewBox="0 0 24 24" fill="none" xmlns="http://www.w3.org/2000/svg">
<g clip-path="url(#clip0_2433_24707)">
<path d="M12 24C5.37258 24 0 18.6274 0 12C0 5.37258 5.37258 0 12 0C18.6274 0 24 5.37258 24 12C23.9928 18.6245 18.6245 23.9928 12 24ZM16 9.41302C16.4063 9.039 16.4326 8.40637 16.0586 8.00002C15.6846 7.59366 15.0519 7.56741 14.6456 7.94142C14.6252 7.96012 14.6057 7.97967 14.587 8.00002L12 10.586L9.414 8.00002C9.01673 7.61634 8.38369 7.62736 8.00002 8.02462C7.62577 8.41214 7.62577 9.02648 8.00002 9.414L10.586 12L8.00002 14.586C7.61634 14.9833 7.62736 15.6163 8.02462 16C8.41214 16.3742 9.02648 16.3742 9.414 16L12 13.414L14.587 16C14.961 16.4063 15.5936 16.4326 16 16.0586C16.4063 15.6846 16.4326 15.0519 16.0586 14.6456C16.0399 14.6252 16.0203 14.6057 16 14.587L13.414 12L16 9.41302Z" fill="#EB944E"/>
</g>
<defs>
<clipPath id="clip0_2433_24707">
<rect width="24" height="24" fill="white" transform="matrix(1 0 0 -1 0 24)"/>
</clipPath>
</defs>
</svg>
