<svg width="16" height="16" viewBox="0 0 16 16" fill="none" xmlns="http://www.w3.org/2000/svg">
<path d="M8.00001 14.72C7.80001 14.72 7.60001 14.6733 7.43334 14.58C6.18668 13.9 3.99334 13.18 2.62001 13L2.42668 12.9733C1.55334 12.8667 0.833344 12.0467 0.833344 11.16V3.10667C0.833344 2.58 1.04001 2.1 1.42001 1.75333C1.80001 1.40667 2.29334 1.24 2.81334 1.28667C4.28001 1.4 6.49334 2.13333 7.74668 2.92L7.90668 3.01333C7.95334 3.04 8.05334 3.04 8.09334 3.02L8.20001 2.95333C9.45334 2.16667 11.6667 1.42 13.14 1.29333C13.1533 1.29333 13.2067 1.29333 13.22 1.29333C13.7067 1.24667 14.2067 1.42 14.58 1.76667C14.96 2.11333 15.1667 2.59333 15.1667 3.12V11.1667C15.1667 12.06 14.4467 12.8733 13.5667 12.98L13.3467 13.0067C11.9733 13.1867 9.77334 13.9133 8.55334 14.5867C8.39334 14.68 8.20001 14.72 8.00001 14.72ZM2.65334 2.28C2.44001 2.28 2.24668 2.35333 2.09334 2.49333C1.92668 2.64667 1.83334 2.86667 1.83334 3.10667V11.16C1.83334 11.5533 2.17334 11.9333 2.55334 11.9867L2.75334 12.0133C4.25334 12.2133 6.55334 12.9667 7.88668 13.6933C7.94668 13.72 8.03334 13.7267 8.06668 13.7133C9.40001 12.9733 11.7133 12.2133 13.22 12.0133L13.4467 11.9867C13.8267 11.94 14.1667 11.5533 14.1667 11.16V3.11333C14.1667 2.86667 14.0733 2.65333 13.9067 2.49333C13.7333 2.34 13.5133 2.26667 13.2667 2.28C13.2533 2.28 13.2 2.28 13.1867 2.28C11.9133 2.39333 9.86001 3.08 8.74001 3.78L8.63334 3.85333C8.26668 4.08 7.74668 4.08 7.39334 3.86L7.23334 3.76667C6.09334 3.06667 4.04001 2.38667 2.73334 2.28C2.70668 2.28 2.68001 2.28 2.65334 2.28Z" fill="#232323"/>
<path d="M8 14.16C7.72667 14.16 7.5 13.9333 7.5 13.66V3.66C7.5 3.38667 7.72667 3.16 8 3.16C8.27333 3.16 8.5 3.38667 8.5 3.66V13.66C8.5 13.94 8.27333 14.16 8 14.16Z" fill="#232323"/>
<path d="M5.16666 6.16H3.66666C3.39332 6.16 3.16666 5.93333 3.16666 5.66C3.16666 5.38667 3.39332 5.16 3.66666 5.16H5.16666C5.43999 5.16 5.66666 5.38667 5.66666 5.66C5.66666 5.93333 5.43999 6.16 5.16666 6.16Z" fill="#232323"/>
<path d="M5.66666 8.16H3.66666C3.39332 8.16 3.16666 7.93333 3.16666 7.66C3.16666 7.38667 3.39332 7.16 3.66666 7.16H5.66666C5.93999 7.16 6.16666 7.38667 6.16666 7.66C6.16666 7.93333 5.93999 8.16 5.66666 8.16Z" fill="#232323"/>
</svg>
