<svg width="16" height="16" viewBox="0 0 16 16" fill="none" xmlns="http://www.w3.org/2000/svg">
<path d="M8.01333 13.6867C6.45999 13.6867 4.90666 13.44 3.43333 12.9467C2.87333 12.7533 2.44666 12.36 2.25999 11.8467C2.06666 11.3333 2.13333 10.7667 2.43999 10.26L3.20666 8.98667C3.36666 8.72 3.51333 8.18667 3.51333 7.87334V5.94667C3.51333 3.46667 5.53333 1.44667 8.01333 1.44667C10.4933 1.44667 12.5133 3.46667 12.5133 5.94667V7.87334C12.5133 8.18 12.66 8.72 12.82 8.99334L13.58 10.26C13.8667 10.74 13.92 11.32 13.7267 11.8467C13.5333 12.3733 13.1133 12.7733 12.5867 12.9467C11.12 13.44 9.56666 13.6867 8.01333 13.6867ZM8.01333 2.44667C6.08666 2.44667 4.51333 4.01334 4.51333 5.94667V7.87334C4.51333 8.36 4.31333 9.08 4.06666 9.5L3.29999 10.7733C3.15333 11.02 3.11333 11.28 3.19999 11.5C3.27999 11.7267 3.47999 11.9 3.75333 11.9933C6.53999 12.9267 9.49333 12.9267 12.28 11.9933C12.52 11.9133 12.7067 11.7333 12.7933 11.4933C12.88 11.2533 12.86 10.9933 12.7267 10.7733L11.96 9.5C11.7067 9.06667 11.5133 8.35334 11.5133 7.86667V5.94667C11.5133 4.01334 9.94666 2.44667 8.01333 2.44667Z" fill="#232323"/>
<path d="M9.25333 2.62667C9.20666 2.62667 9.15999 2.62 9.11333 2.60667C8.91999 2.55333 8.73333 2.51333 8.55333 2.48667C7.98666 2.41333 7.43999 2.45333 6.92666 2.60667C6.73999 2.66667 6.53999 2.60667 6.41333 2.46667C6.28666 2.32667 6.24666 2.12667 6.31999 1.94667C6.59333 1.24667 7.25999 0.786667 8.01999 0.786667C8.77999 0.786667 9.44666 1.24 9.71999 1.94667C9.78666 2.12667 9.75333 2.32667 9.62666 2.46667C9.52666 2.57333 9.38666 2.62667 9.25333 2.62667Z" fill="#232323"/>
<path d="M8.01334 15.2067C7.35334 15.2067 6.71334 14.94 6.24667 14.4733C5.78 14.0067 5.51334 13.3667 5.51334 12.7067H6.51334C6.51334 13.1 6.67334 13.4867 6.95334 13.7667C7.23334 14.0467 7.62 14.2067 8.01334 14.2067C8.84 14.2067 9.51334 13.5333 9.51334 12.7067H10.5133C10.5133 14.0867 9.39334 15.2067 8.01334 15.2067Z" fill="#232323"/>
</svg>
